<svg xmlns="http://www.w3.org/2000/svg" viewBox="0 0 1920 1080"><path d="M374.97 466.267V621.59h-59.228v24.175H460.79V621.59h-59.228V434.235h-19.34L310 474.426l12.087 21.153zm263.505 118.759c0 24.174-21.455 40.795-52.278 40.795-23.872 0-44.119-9.368-61.041-27.499l-18.736 16.922c19.642 22.06 49.559 34.751 81.59 34.751 45.026 0 77.057-25.383 77.057-64.365 0-24.779-13.296-42.608-38.981-50.163 19.944-7.857 30.52-23.57 30.52-46.536 0-36.262-26.894-58.926-67.689-58.926-31.73 0-57.718 13.598-75.546 37.168l20.548 14.505c10.577-16.016 32.032-27.499 54.393-27.499 24.477 0 42.306 13.599 42.306 34.147 0 22.06-20.85 37.169-50.162 37.169h-20.851v24.175h22.362c32.636 0 56.508 8.763 56.508 35.356m66.783-109.694c0 9.67 7.857 17.527 17.527 17.527s17.526-7.857 17.526-17.527-7.856-17.526-17.526-17.526-17.527 7.856-17.527 17.526m0 131.753c0 9.67 7.857 17.527 17.527 17.527s17.526-7.857 17.526-17.527-7.856-17.527-17.526-17.527-17.527 7.857-17.527 17.527m184.031-141.423v102.139h-85.216zm0 126.314v53.789h26.592v-53.789h26.29v-24.175h-26.29V434.235h-29.312L773.552 569.312v22.664zm174.661-68.294c-11.181 0-47.746-7.555-47.746-36.262 0-20.549 19.945-33.241 42.306-33.241 23.873 0 41.4 15.11 41.4 33.543 0 9.066-7.555 35.96-35.96 35.96m-13.599 22.966c4.533 0 7.253.604 7.857.604 45.026 6.346 51.976 29.01 51.976 40.795 0 23.571-25.384 37.774-52.278 37.774-30.521-.303-51.674-17.225-51.674-38.076 0-16.016 15.412-41.097 44.119-41.097m8.462-116.643c-44.724 0-68.596 29.614-68.596 58.926 0 18.131 9.065 35.658 27.196 46.838-25.081 6.951-37.773 28.708-37.773 51.07 0 36.564 31.729 63.156 79.173 63.156 50.464 0 77.963-32.031 77.963-63.761 0-21.153-12.389-42.003-37.773-53.486 2.418 0 27.499-12.088 27.499-44.724 0-38.982-35.054-58.019-67.689-58.019m115.437 45.327c0 9.67 7.857 17.527 17.527 17.527s17.527-7.857 17.527-17.527-7.857-17.526-17.527-17.526-17.527 7.856-17.527 17.526m0 131.753c0 9.67 7.857 17.527 17.527 17.527s17.527-7.857 17.527-17.527-7.857-17.527-17.527-17.527-17.527 7.857-17.527 17.527m79.47 17.527c0-78.568 116.341-84.31 116.341-132.357 0-12.692-4.835-37.773-44.723-37.773-29.312 0-53.789 29.312-54.091 29.916l-19.642-15.714c22.361-26.592 51.975-38.679 78.568-38.679 35.355 0 66.178 21.455 66.178 61.041 0 70.409-116.039 73.431-116.039 130.544h118.759v24.175H1253.72zm247.49 21.153h26.593v-4.835c0-91.26 40.492-146.862 62.25-170.13 2.115-2.116 14.505-13.901 14.505-13.901v-22.664h-154.719v24.175h123.896c-61.646 64.063-71.618 146.258-72.525 187.355"/></svg>