<svg xmlns="http://www.w3.org/2000/svg" viewBox="0 0 1920 1080"><path d="M374.968 466.265v155.322H315.74v24.175h145.048v-24.175H401.56V434.234h-19.34l-72.222 40.19 12.088 21.153zm263.505 118.758c0 24.175-21.455 40.795-52.278 40.795a81.6 81.6 0 0 1-61.04-27.499l-18.736 16.922a108.8 108.8 0 0 0 81.59 34.752c45.025 0 77.056-25.384 77.056-64.366 0-24.779-13.296-42.607-38.981-50.162q30.218-12.087 30.52-46.536c0-36.262-26.894-58.926-67.689-58.926a90.66 90.66 0 0 0-75.546 37.169l20.549 14.504a66.48 66.48 0 0 1 54.393-27.498c24.477 0 42.305 13.598 42.305 34.146 0 22.06-20.85 37.169-50.162 37.169h-20.85v24.175h22.36c32.637 0 56.51 8.763 56.51 35.355m66.781-109.693a17.527 17.527 0 1 0 35.053 0 17.527 17.527 0 0 0-35.053 0m0 131.753a17.527 17.527 0 1 0 35.053 0 17.527 17.527 0 0 0-35.053 0m184.03-141.423V567.8H804.07zm0 126.313v53.789h26.592v-53.789h26.29V567.8h-26.29V434.234h-29.311L773.549 569.31v22.663zm174.662-68.293c-11.181 0-47.745-7.555-47.745-36.262 0-20.549 19.944-33.24 42.305-33.24 23.873 0 41.4 15.109 41.4 33.542 0 9.066-7.555 35.96-35.96 35.96m-13.598 22.966q6.95.302 7.856.604c45.026 6.346 51.976 29.01 51.976 40.795 0 23.57-25.384 37.773-52.278 37.773-30.52-.302-51.673-17.225-51.673-38.075 0-16.016 15.411-41.097 44.119-41.097m8.46-116.643c-44.723 0-68.595 29.614-68.595 58.926 0 18.13 9.066 35.657 27.197 46.838a51.37 51.37 0 0 0-37.773 51.07c0 36.563 31.729 63.156 79.172 63.156 50.464 0 77.963-32.032 77.963-63.761 0-21.153-12.39-42.004-37.773-53.487 2.418 0 27.499-12.087 27.499-44.723 0-38.981-35.054-58.019-67.69-58.019m115.432 45.327a17.527 17.527 0 1 0 35.053 0 17.527 17.527 0 0 0-35.053 0m0 131.753a17.527 17.527 0 1 0 35.053 0 17.527 17.527 0 0 0-35.053 0m79.474 17.527c0-78.569 116.34-84.31 116.34-132.357 0-12.692-4.834-37.773-44.723-37.773-29.312 0-53.788 29.312-54.09 29.916l-19.642-15.714a102.74 102.74 0 0 1 78.567-38.679c35.356 0 66.178 21.455 66.178 61.041 0 70.409-116.038 73.43-116.038 130.543h118.758v24.175h-145.35zm247.494 21.152h26.592v-4.835a244.77 244.77 0 0 1 76.754-184.03v-22.663h-154.718v24.174h123.896a281.03 281.03 0 0 0-72.524 187.354"/></svg>