<?xml version="1.0" encoding="UTF-8" standalone="no"?>
<!DOCTYPE svg PUBLIC "-//W3C//DTD SVG 1.1//EN" "http://www.w3.org/Graphics/SVG/1.1/DTD/svg11.dtd">
<svg width="100%" height="100%" viewBox="0 0 1920 1080" version="1.1" xmlns="http://www.w3.org/2000/svg" xmlns:xlink="http://www.w3.org/1999/xlink" xml:space="preserve" xmlns:serif="http://www.serif.com/" style="fill-rule:evenodd;clip-rule:evenodd;stroke-linejoin:round;stroke-miterlimit:2;">
    <rect id="Dots" x="0" y="0" width="1920" height="1080" style="fill:none;"/>
    <g>
        <circle cx="960" cy="540" r="20" style="fill:#111;"/>
        <circle cx="960" cy="230" r="10" style="fill:#111;"/>
        <path d="M800,262.872c4.78,-2.76 10.901,-1.12 13.66,3.66c2.76,4.78 1.12,10.901 -3.66,13.66c-4.78,2.76 -10.901,1.12 -13.66,-3.66c-2.76,-4.78 -1.12,-10.901 3.66,-13.66Z" style="fill:#111;"/>
        <path d="M682.872,380c2.759,-4.78 8.88,-6.42 13.66,-3.66c4.78,2.759 6.42,8.88 3.66,13.66c-2.759,4.78 -8.88,6.42 -13.66,3.66c-4.78,-2.759 -6.42,-8.88 -3.66,-13.66Z" style="fill:#111;"/>
        <path d="M640,540c-0,-5.519 4.481,-10 10,-10c5.519,0 10,4.481 10,10c-0,5.519 -4.481,10 -10,10c-5.519,0 -10,-4.481 -10,-10Z" style="fill:#111;"/>
        <path d="M682.872,700c-2.76,-4.78 -1.12,-10.901 3.66,-13.66c4.78,-2.76 10.901,-1.12 13.66,3.66c2.76,4.78 1.12,10.901 -3.66,13.66c-4.78,2.76 -10.901,1.12 -13.66,-3.66Z" style="fill:#111;"/>
        <path d="M800,817.128c-4.78,-2.759 -6.42,-8.88 -3.66,-13.66c2.759,-4.78 8.88,-6.42 13.66,-3.66c4.78,2.759 6.42,8.88 3.66,13.66c-2.759,4.78 -8.88,6.42 -13.66,3.66Z" style="fill:#111;"/>
        <circle cx="960" cy="850" r="10" style="fill:#111;"/>
        <path d="M1110,799.808c4.78,-2.76 10.901,-1.12 13.66,3.66c2.76,4.78 1.12,10.901 -3.66,13.66c-4.78,2.76 -10.901,1.12 -13.66,-3.66c-2.76,-4.78 -1.12,-10.901 3.66,-13.66Z" style="fill:#111;"/>
        <path d="M1219.81,690c2.759,-4.78 8.88,-6.42 13.66,-3.66c4.78,2.759 6.42,8.88 3.66,13.66c-2.759,4.78 -8.88,6.42 -13.66,3.66c-4.78,-2.759 -6.42,-8.88 -3.66,-13.66Z" style="fill:#111;"/>
        <path d="M1260,540c0,-5.519 4.481,-10 10,-10c5.519,0 10,4.481 10,10c-0,5.519 -4.481,10 -10,10c-5.519,0 -10,-4.481 -10,-10Z" style="fill:#111;"/>
        <path d="M1219.81,390c-2.76,-4.78 -1.12,-10.901 3.66,-13.66c4.78,-2.76 10.901,-1.12 13.66,3.66c2.76,4.78 1.12,10.901 -3.66,13.66c-4.78,2.76 -10.901,1.12 -13.66,-3.66Z" style="fill:#111;"/>
        <path d="M1110,280.192c-4.78,-2.759 -6.42,-8.88 -3.66,-13.66c2.759,-4.78 8.88,-6.42 13.66,-3.66c4.78,2.759 6.42,8.88 3.66,13.66c-2.759,4.78 -8.88,6.42 -13.66,3.66Z" style="fill:#111;"/>
    </g>
    <circle cx="960" cy="540" r="20" style="fill:#111;"/>
    <g>
        <path d="M992.926,226.726c2.745,0.288 4.739,2.75 4.45,5.495c-0.288,2.744 -2.75,4.738 -5.495,4.45c-2.744,-0.289 -4.738,-2.751 -4.45,-5.495c0.289,-2.745 2.751,-4.739 5.495,-4.45Z" style="fill:#777;"/>
        <path d="M928.119,843.329c2.744,0.289 4.738,2.751 4.45,5.495c-0.289,2.745 -2.751,4.739 -5.495,4.45c-2.745,-0.288 -4.739,-2.75 -4.45,-5.495c0.288,-2.744 2.75,-4.738 5.495,-4.45Z" style="fill:#777;"/>
        <path d="M1025.49,231.884c2.699,0.573 4.425,3.231 3.851,5.93c-0.573,2.699 -3.231,4.425 -5.93,3.851c-2.699,-0.574 -4.425,-3.231 -3.851,-5.93c0.574,-2.7 3.231,-4.425 5.93,-3.851Z" style="fill:#777;"/>
        <path d="M896.587,838.335c2.699,0.574 4.425,3.231 3.851,5.93c-0.574,2.7 -3.231,4.425 -5.93,3.851c-2.699,-0.573 -4.425,-3.231 -3.851,-5.93c0.573,-2.699 3.231,-4.425 5.93,-3.851Z" style="fill:#777;"/>
        <path d="M1057.34,240.417c2.625,0.853 4.063,3.676 3.211,6.301c-0.853,2.624 -3.676,4.063 -6.301,3.21c-2.624,-0.853 -4.063,-3.676 -3.21,-6.301c0.853,-2.624 3.676,-4.063 6.3,-3.21Z" style="fill:#777;"/>
        <path d="M865.75,830.072c2.624,0.853 4.063,3.676 3.21,6.301c-0.853,2.624 -3.676,4.063 -6.3,3.21c-2.625,-0.853 -4.063,-3.676 -3.211,-6.301c0.853,-2.624 3.676,-4.063 6.301,-3.21Z" style="fill:#777;"/>
        <path d="M1088.12,252.233c2.521,1.123 3.657,4.081 2.534,6.602c-1.122,2.521 -4.08,3.656 -6.601,2.534c-2.521,-1.123 -3.657,-4.081 -2.534,-6.602c1.122,-2.521 4.08,-3.656 6.601,-2.534Z" style="fill:#777;"/>
        <path d="M835.945,818.631c2.521,1.123 3.657,4.081 2.534,6.602c-1.122,2.521 -4.08,3.656 -6.601,2.534c-2.521,-1.123 -3.657,-4.081 -2.534,-6.602c1.122,-2.521 4.08,-3.656 6.601,-2.534Z" style="fill:#777;"/>
        <path d="M1145.15,285.16c2.233,1.622 2.729,4.751 1.107,6.984c-1.623,2.232 -4.752,2.728 -6.984,1.106c-2.233,-1.622 -2.729,-4.752 -1.107,-6.984c1.622,-2.233 4.752,-2.728 6.984,-1.106Z" style="fill:#777;"/>
        <path d="M780.725,786.75c2.233,1.622 2.729,4.752 1.107,6.984c-1.622,2.233 -4.752,2.728 -6.984,1.106c-2.233,-1.622 -2.729,-4.751 -1.107,-6.984c1.623,-2.232 4.752,-2.728 6.984,-1.106Z" style="fill:#777;"/>
        <path d="M1170.78,305.909c2.051,1.847 2.217,5.011 0.37,7.062c-1.846,2.051 -5.01,2.216 -7.061,0.37c-2.051,-1.847 -2.217,-5.011 -0.37,-7.062c1.846,-2.05 5.01,-2.216 7.061,-0.37Z" style="fill:#777;"/>
        <path d="M755.915,766.659c2.051,1.847 2.217,5.011 0.37,7.062c-1.846,2.05 -5.01,2.216 -7.061,0.37c-2.051,-1.847 -2.217,-5.011 -0.37,-7.062c1.846,-2.051 5.01,-2.216 7.061,-0.37Z" style="fill:#777;"/>
        <path d="M1194.09,329.224c1.846,2.051 1.68,5.215 -0.37,7.061c-2.051,1.847 -5.215,1.681 -7.062,-0.37c-1.846,-2.051 -1.681,-5.215 0.37,-7.061c2.051,-1.847 5.215,-1.681 7.062,0.37Z" style="fill:#777;"/>
        <path d="M733.341,744.085c1.846,2.051 1.681,5.215 -0.37,7.061c-2.051,1.847 -5.215,1.681 -7.062,-0.37c-1.846,-2.051 -1.68,-5.215 0.37,-7.061c2.051,-1.847 5.215,-1.681 7.062,0.37Z" style="fill:#777;"/>
        <path d="M1214.84,354.848c1.622,2.232 1.127,5.362 -1.106,6.984c-2.232,1.622 -5.362,1.126 -6.984,-1.107c-1.622,-2.232 -1.126,-5.361 1.106,-6.984c2.233,-1.622 5.362,-1.126 6.984,1.107Z" style="fill:#777;"/>
        <path d="M713.25,719.275c1.622,2.232 1.126,5.361 -1.106,6.984c-2.233,1.622 -5.362,1.126 -6.984,-1.107c-1.622,-2.232 -1.127,-5.362 1.106,-6.984c2.232,-1.622 5.362,-1.126 6.984,1.107Z" style="fill:#777;"/>
        <path d="M1247.77,411.878c1.122,2.521 -0.013,5.479 -2.534,6.601c-2.521,1.123 -5.479,-0.013 -6.602,-2.534c-1.122,-2.521 0.013,-5.479 2.534,-6.601c2.521,-1.123 5.479,0.013 6.602,2.534Z" style="fill:#777;"/>
        <path d="M681.369,664.055c1.122,2.521 -0.013,5.479 -2.534,6.601c-2.521,1.123 -5.479,-0.013 -6.602,-2.534c-1.122,-2.521 0.013,-5.479 2.534,-6.601c2.521,-1.123 5.479,0.013 6.602,2.534Z" style="fill:#777;"/>
        <path d="M1259.58,442.66c0.853,2.624 -0.586,5.447 -3.21,6.3c-2.625,0.853 -5.448,-0.586 -6.301,-3.21c-0.853,-2.625 0.586,-5.448 3.21,-6.301c2.625,-0.852 5.448,0.586 6.301,3.211Z" style="fill:#777;"/>
        <path d="M669.928,634.25c0.853,2.625 -0.586,5.448 -3.21,6.301c-2.625,0.852 -5.448,-0.586 -6.301,-3.211c-0.853,-2.624 0.586,-5.447 3.21,-6.3c2.625,-0.853 5.448,0.586 6.301,3.21Z" style="fill:#777;"/>
        <path d="M1268.12,474.508c0.574,2.699 -1.151,5.356 -3.851,5.93c-2.699,0.574 -5.356,-1.152 -5.93,-3.851c-0.574,-2.699 1.152,-5.357 3.851,-5.93c2.699,-0.574 5.357,1.152 5.93,3.851Z" style="fill:#777;"/>
        <path d="M661.665,603.413c0.574,2.699 -1.152,5.357 -3.851,5.93c-2.699,0.574 -5.357,-1.152 -5.93,-3.851c-0.574,-2.699 1.151,-5.356 3.851,-5.93c2.699,-0.574 5.356,1.152 5.93,3.851Z" style="fill:#777;"/>
        <path d="M1273.27,507.074c0.289,2.744 -1.705,5.206 -4.45,5.495c-2.744,0.288 -5.206,-1.706 -5.495,-4.45c-0.288,-2.745 1.706,-5.207 4.45,-5.495c2.745,-0.289 5.207,1.705 5.495,4.45Z" style="fill:#777;"/>
        <path d="M656.671,571.881c0.288,2.745 -1.706,5.207 -4.45,5.495c-2.745,0.289 -5.207,-1.705 -5.495,-4.45c-0.289,-2.744 1.705,-5.206 4.45,-5.495c2.744,-0.288 5.206,1.706 5.495,4.45Z" style="fill:#777;"/>
        <path d="M1273.27,572.926c-0.288,2.745 -2.75,4.739 -5.495,4.45c-2.744,-0.288 -4.738,-2.75 -4.45,-5.495c0.289,-2.744 2.751,-4.738 5.495,-4.45c2.745,0.289 4.739,2.751 4.45,5.495Z" style="fill:#777;"/>
        <path d="M656.671,508.119c-0.289,2.744 -2.751,4.738 -5.495,4.45c-2.745,-0.289 -4.739,-2.751 -4.45,-5.495c0.288,-2.745 2.75,-4.739 5.495,-4.45c2.744,0.288 4.738,2.75 4.45,5.495Z" style="fill:#777;"/>
        <path d="M1268.12,605.492c-0.573,2.699 -3.231,4.425 -5.93,3.851c-2.699,-0.573 -4.425,-3.231 -3.851,-5.93c0.574,-2.699 3.231,-4.425 5.93,-3.851c2.7,0.574 4.425,3.231 3.851,5.93Z" style="fill:#777;"/>
        <path d="M661.665,476.587c-0.574,2.699 -3.231,4.425 -5.93,3.851c-2.7,-0.574 -4.425,-3.231 -3.851,-5.93c0.573,-2.699 3.231,-4.425 5.93,-3.851c2.699,0.573 4.425,3.231 3.851,5.93Z" style="fill:#777;"/>
        <path d="M1259.58,637.34c-0.853,2.625 -3.676,4.063 -6.301,3.211c-2.624,-0.853 -4.063,-3.676 -3.21,-6.301c0.853,-2.624 3.676,-4.063 6.301,-3.21c2.624,0.853 4.063,3.676 3.21,6.3Z" style="fill:#777;"/>
        <path d="M669.928,445.75c-0.853,2.624 -3.676,4.063 -6.301,3.21c-2.624,-0.853 -4.063,-3.676 -3.21,-6.3c0.853,-2.625 3.676,-4.063 6.301,-3.211c2.624,0.853 4.063,3.676 3.21,6.301Z" style="fill:#777;"/>
        <path d="M1247.77,668.122c-1.123,2.521 -4.081,3.657 -6.602,2.534c-2.521,-1.122 -3.656,-4.08 -2.534,-6.601c1.123,-2.521 4.081,-3.657 6.602,-2.534c2.521,1.122 3.656,4.08 2.534,6.601Z" style="fill:#777;"/>
        <path d="M681.369,415.945c-1.123,2.521 -4.081,3.657 -6.602,2.534c-2.521,-1.122 -3.656,-4.08 -2.534,-6.601c1.123,-2.521 4.081,-3.657 6.602,-2.534c2.521,1.122 3.656,4.08 2.534,6.601Z" style="fill:#777;"/>
        <path d="M1214.84,725.152c-1.622,2.233 -4.751,2.729 -6.984,1.107c-2.232,-1.623 -2.728,-4.752 -1.106,-6.984c1.622,-2.233 4.752,-2.729 6.984,-1.107c2.233,1.622 2.728,4.752 1.106,6.984Z" style="fill:#777;"/>
        <path d="M713.25,360.725c-1.622,2.233 -4.752,2.729 -6.984,1.107c-2.233,-1.622 -2.728,-4.752 -1.106,-6.984c1.622,-2.233 4.751,-2.729 6.984,-1.107c2.232,1.623 2.728,4.752 1.106,6.984Z" style="fill:#777;"/>
        <path d="M1194.09,750.776c-1.847,2.051 -5.011,2.217 -7.062,0.37c-2.051,-1.846 -2.216,-5.01 -0.37,-7.061c1.847,-2.051 5.011,-2.217 7.062,-0.37c2.05,1.846 2.216,5.01 0.37,7.061Z" style="fill:#777;"/>
        <path d="M733.341,335.915c-1.847,2.051 -5.011,2.217 -7.062,0.37c-2.05,-1.846 -2.216,-5.01 -0.37,-7.061c1.847,-2.051 5.011,-2.217 7.062,-0.37c2.051,1.846 2.216,5.01 0.37,7.061Z" style="fill:#777;"/>
        <path d="M1170.78,774.091c-2.051,1.846 -5.215,1.68 -7.061,-0.37c-1.847,-2.051 -1.681,-5.215 0.37,-7.062c2.051,-1.846 5.215,-1.681 7.061,0.37c1.847,2.051 1.681,5.215 -0.37,7.062Z" style="fill:#777;"/>
        <path d="M755.915,313.341c-2.051,1.846 -5.215,1.681 -7.061,-0.37c-1.847,-2.051 -1.681,-5.215 0.37,-7.062c2.051,-1.846 5.215,-1.68 7.061,0.37c1.847,2.051 1.681,5.215 -0.37,7.062Z" style="fill:#777;"/>
        <path d="M1145.15,794.84c-2.232,1.622 -5.362,1.127 -6.984,-1.106c-1.622,-2.232 -1.126,-5.362 1.107,-6.984c2.232,-1.622 5.361,-1.126 6.984,1.106c1.622,2.233 1.126,5.362 -1.107,6.984Z" style="fill:#777;"/>
        <path d="M780.725,293.25c-2.232,1.622 -5.361,1.126 -6.984,-1.106c-1.622,-2.233 -1.126,-5.362 1.107,-6.984c2.232,-1.622 5.362,-1.127 6.984,1.106c1.622,2.232 1.126,5.362 -1.107,6.984Z" style="fill:#777;"/>
        <path d="M1088.12,827.767c-2.521,1.122 -5.479,-0.013 -6.601,-2.534c-1.123,-2.521 0.013,-5.479 2.534,-6.602c2.521,-1.122 5.479,0.013 6.601,2.534c1.123,2.521 -0.013,5.479 -2.534,6.602Z" style="fill:#777;"/>
        <path d="M835.945,261.369c-2.521,1.122 -5.479,-0.013 -6.601,-2.534c-1.123,-2.521 0.013,-5.479 2.534,-6.602c2.521,-1.122 5.479,0.013 6.601,2.534c1.123,2.521 -0.013,5.479 -2.534,6.602Z" style="fill:#777;"/>
        <path d="M1057.34,839.583c-2.624,0.853 -5.447,-0.586 -6.3,-3.21c-0.853,-2.625 0.586,-5.448 3.21,-6.301c2.625,-0.853 5.448,0.586 6.301,3.21c0.852,2.625 -0.586,5.448 -3.211,6.301Z" style="fill:#777;"/>
        <path d="M865.75,249.928c-2.625,0.853 -5.448,-0.586 -6.301,-3.21c-0.852,-2.625 0.586,-5.448 3.211,-6.301c2.624,-0.853 5.447,0.586 6.3,3.21c0.853,2.625 -0.586,5.448 -3.21,6.301Z" style="fill:#777;"/>
        <path d="M1025.49,848.116c-2.699,0.574 -5.356,-1.151 -5.93,-3.851c-0.574,-2.699 1.152,-5.356 3.851,-5.93c2.699,-0.574 5.357,1.152 5.93,3.851c0.574,2.699 -1.152,5.357 -3.851,5.93Z" style="fill:#777;"/>
        <path d="M896.587,241.665c-2.699,0.574 -5.357,-1.152 -5.93,-3.851c-0.574,-2.699 1.152,-5.357 3.851,-5.93c2.699,-0.574 5.356,1.151 5.93,3.851c0.574,2.699 -1.152,5.356 -3.851,5.93Z" style="fill:#777;"/>
        <path d="M992.926,853.274c-2.744,0.289 -5.206,-1.705 -5.495,-4.45c-0.288,-2.744 1.706,-5.206 4.45,-5.495c2.745,-0.288 5.207,1.706 5.495,4.45c0.289,2.745 -1.705,5.207 -4.45,5.495Z" style="fill:#777;"/>
        <path d="M928.119,236.671c-2.745,0.288 -5.207,-1.706 -5.495,-4.45c-0.289,-2.745 1.705,-5.207 4.45,-5.495c2.744,-0.289 5.206,1.705 5.495,4.45c0.288,2.744 -1.706,5.206 -4.45,5.495Z" style="fill:#777;"/>
    </g>
    <path d="M979.655,584.919l44.818,213.343c1.135,5.401 -2.329,10.707 -7.73,11.842c-5.401,1.135 -10.708,-2.329 -11.842,-7.73l-44.819,-213.343c-1.135,-5.402 2.329,-10.708 7.73,-11.843c5.402,-1.134 10.708,2.329 11.843,7.731Z" style="fill:#f44;"/>
    <path d="M911.599,532.169l-203.577,-77.978c-5.154,-1.974 -7.735,-7.761 -5.761,-12.915c1.974,-5.154 7.761,-7.736 12.915,-5.762l203.577,77.978c5.154,1.974 7.735,7.762 5.761,12.916c-1.974,5.154 -7.761,7.735 -12.915,5.761Z" style="fill:#111;"/>
    <circle cx="960" cy="540" r="20" style="fill:#111;"/>
    <path d="M993.024,503.759l82.823,-59.932c4.471,-3.236 10.728,-2.233 13.963,2.239c3.236,4.471 2.233,10.728 -2.239,13.963l-82.822,59.933c-4.471,3.235 -10.728,2.232 -13.964,-2.239c-3.235,-4.471 -2.232,-10.728 2.239,-13.964Z" style="fill:#111;"/>
</svg>
