<svg xmlns="http://www.w3.org/2000/svg" xml:space="preserve" style="fill-rule:evenodd;clip-rule:evenodd;stroke-linecap:round;stroke-linejoin:round;stroke-miterlimit:1.5" viewBox="0 0 1920 1080"><path d="M0 0h1920v1080H0z" style="fill:none"/><path d="m963.694 527.751-7.388 22.715-266.094-86.552L697.6 441.2z" style="fill:#111"/><path d="m971.612 552.794-21.055-28.839L1090.753 421.6l21.055 28.839zM948.8 242.4h22.4v86.4h-22.4zM1257.6 551.2h-86.4v-22.4h86.4zM948.8 751.2h22.4v86.4h-22.4zM662.4 528.8h86.4v22.4h-86.4zM1118.5 287.871l-34.253 59.329-19.399-11.2 34.254-59.329zM1223.33 400.899l-59.329 34.254-11.2-19.399 59.329-34.253z" style="fill:#111"/><path d="M948.8 751.2h22.4v86.4h-22.4zM662.4 528.8h86.4v22.4h-86.4zM1212.13 698.499l-59.329-34.253 11.2-19.399 59.329 34.254zM1099.1 803.329 1064.846 744l19.399-11.2 34.253 59.329zM855.153 744l-34.254 59.329-19.398-11.2 34.253-59.329zM767.2 664.246l-59.329 34.253-11.2-19.398L756 644.847zM756 435.153l-59.329-34.254 11.2-19.398 59.329 34.253zM835.754 347.2l-34.253-59.329 19.398-11.2L855.153 336zM997.473 244.699l-2.676 25.46-12.73-1.338 2.676-25.46zM1255.3 577.473l-25.46-2.676 1.338-12.73 25.46 2.676zM922.527 835.301l2.676-25.46 12.73 1.338-2.676 25.46zM664.699 502.527l25.46 2.676-1.338 12.73-25.46-2.676zM1028.13 250.234l-5.323 25.04-12.52-2.661 5.322-25.04zM1249.77 608.135l-25.04-5.323 2.661-12.52 25.04 5.322zM891.865 829.766l5.323-25.04 12.52 2.661-5.322 25.04zM670.234 471.865l25.04 5.323-2.661 12.52-25.04-5.322zM1058.05 258.943l-7.911 24.347-12.173-3.955 7.911-24.347zM1241.06 638.05l-24.347-7.911 3.955-12.173 24.347 7.911zM861.95 821.057l7.911-24.347 12.173 3.955-7.911 24.347zM678.943 441.95l24.347 7.911-3.955 12.173-24.347-7.911zM1086.89 270.732l-10.413 23.387-11.693-5.206 10.412-23.387zM1229.27 666.892l-23.387-10.413 5.206-11.693 23.387 10.412zM833.108 809.268l10.413-23.387 11.693 5.206-10.412 23.387zM690.732 413.108l23.387 10.413-5.206 11.693-23.387-10.412zM1140.1 302.998l-15.048 20.711-10.355-7.523 15.047-20.711zM1197 720.103l-20.711-15.048 7.523-10.355 20.711 15.047zM779.897 777.002l15.048-20.711 10.355 7.523-15.047 20.711zM722.998 359.897l20.711 15.048-7.523 10.355-20.711-15.047zM1163.89 323.123l-17.129 19.024-9.513-8.565 17.13-19.024zM1176.88 743.889l-19.024-17.129 8.565-9.513 19.024 17.13zM756.111 756.877l17.129-19.024 9.513 8.565-17.13 19.024zM743.123 336.111l19.024 17.129-8.565 9.513-19.024-17.13zM1185.44 345.623l-19.024 17.13-8.565-9.513 19.024-17.129zM1154.38 765.442l-17.13-19.024 9.513-8.565 17.129 19.024zM734.558 734.377l19.024-17.13 8.565 9.513-19.024 17.129zM765.623 314.558l17.13 19.024-9.513 8.565-17.129-19.024zM1204.53 370.253l-20.711 15.047-7.523-10.355 20.711-15.048zM1129.75 784.525l-15.047-20.711 10.355-7.523 15.048 20.711zM715.475 709.747l20.711-15.047 7.523 10.355-20.711 15.048zM790.253 295.475l15.047 20.711-10.355 7.523-15.048-20.711zM1234.47 424.802l-23.387 10.412-5.206-11.693 23.387-10.413zM1075.2 814.474l-10.412-23.387 11.693-5.206 10.413 23.387zM685.526 655.198l23.387-10.412 5.206 11.693-23.387 10.413zM844.802 265.526l10.412 23.387-11.693 5.206-10.413-23.387zM1245.01 454.123l-24.347 7.911-3.955-12.173 24.347-7.911zM1045.88 825.012l-7.911-24.347 12.173-3.955 7.911 24.347zM674.988 625.877l24.347-7.911 3.955 12.173-24.347 7.911zM874.123 254.988l7.911 24.347-12.173 3.955-7.911-24.347zM1252.43 484.386l-25.04 5.322-2.661-12.52 25.04-5.323zM1015.61 832.427l-5.322-25.04 12.52-2.661 5.323 25.04zM667.573 595.614l25.04-5.322 2.661 12.52-25.04 5.323zM904.386 247.573l5.322 25.04-12.52 2.661-5.323-25.04zM1256.64 515.257l-25.46 2.676-1.338-12.73 25.46-2.676zM984.743 836.639l-2.676-25.46 12.73-1.338 2.676 25.46zM663.361 564.743l25.46-2.676 1.338 12.73-25.46 2.676zM935.257 243.361l2.676 25.46-12.73 1.338-2.676-25.46z" style="fill:#111"/><circle cx="960" cy="540" r="320" style="fill:none;stroke:#777;stroke-width:5px"/><path d="m980.621 694.48-26.527-151.106 12.608-2.213 26.526 151.106c13.876.547 25.993 10.691 28.491 24.919 2.497 14.229-5.44 27.893-18.299 33.134l14.372 81.867-12.608 2.213-14.371-81.867c-13.876-.547-25.993-10.691-28.491-24.919-2.497-14.229 5.44-27.893 18.299-33.134m14.528 45.739c9.834-1.727 16.417-11.113 14.69-20.947-1.726-9.835-11.112-16.417-20.947-14.691s-16.417 11.113-14.69 20.947c1.726 9.835 11.112 16.417 20.947 14.691" style="fill:#f44"/><circle cx="960" cy="540" r="32" style="fill:#111"/></svg>