<?xml version="1.0" encoding="UTF-8" standalone="no"?>
<!DOCTYPE svg PUBLIC "-//W3C//DTD SVG 1.1//EN" "http://www.w3.org/Graphics/SVG/1.1/DTD/svg11.dtd">
<svg width="100%" height="100%" viewBox="0 0 1920 1080" version="1.1" xmlns="http://www.w3.org/2000/svg" xmlns:xlink="http://www.w3.org/1999/xlink" xml:space="preserve" xmlns:serif="http://www.serif.com/" style="fill-rule:evenodd;clip-rule:evenodd;stroke-linejoin:round;stroke-miterlimit:2;">
    <rect id="LCD" x="0" y="0" width="1920" height="1080" style="fill:none;"/>
    <g>
        <circle cx="745.973" cy="492.337" r="13.749" style="fill:#ff4242;"/>
        <circle cx="745.973" cy="587.663" r="13.749" style="fill:#ff4242;"/>
    </g>
    <g>
        <circle cx="1174.03" cy="492.337" r="13.749" style="fill:#ff4242;"/>
        <circle cx="1174.03" cy="587.663" r="13.749" style="fill:#ff4242;"/>
    </g>
    <g>
        <path d="M364.271,408.364c4.312,-3.652 9.89,-5.855 15.977,-5.855l115.492,0c6.088,0 11.665,2.203 15.978,5.855l-23.019,23.018l-101.409,0l-23.019,-23.018Z"/>
        <path d="M514.634,411.28c3.652,4.313 5.855,9.89 5.855,15.978l-0,110.68l-12.728,-0l-16.145,-16.145l-0,-87.494l23.018,-23.019Z" style="fill:#fff;"/>
        <path d="M520.489,542.062l-0,110.68c-0,6.088 -2.203,11.665 -5.855,15.978l-23.018,-23.019l-0,-87.494l16.145,-16.145l12.728,0Z" style="fill:#fff;"/>
        <path d="M511.718,671.636c-4.313,3.652 -9.89,5.855 -15.978,5.855l-115.492,-0c-6.087,-0 -11.665,-2.203 -15.977,-5.855l23.019,-23.018l101.409,-0l23.019,23.018Z"/>
        <path d="M361.354,668.72c-3.651,-4.313 -5.854,-9.89 -5.854,-15.978l0,-110.68l12.728,0l16.145,16.145l0,87.494l-23.019,23.019Z"/>
        <path d="M355.5,537.938l0,-110.68c0,-6.088 2.203,-11.665 5.854,-15.978l23.019,23.019l0,87.494l-16.145,16.145l-12.728,-0Z"/>
        <path d="M385.748,553.749l-13.749,-13.749l13.749,-13.749l104.493,-0l13.749,13.749l-13.749,13.749l-104.493,0Z"/>
    </g>
    <g>
        <path d="M792.325,408.364c4.312,-3.652 9.889,-5.855 15.977,-5.855l115.492,0c6.088,0 11.665,2.203 15.978,5.855l-23.019,23.018l-101.41,0l-23.018,-23.018Z"/>
        <path d="M942.688,411.28c3.652,4.313 5.854,9.89 5.854,15.978l0,110.68l-12.728,-0l-16.145,-16.145l0,-87.494l23.019,-23.019Z" style="fill:#fff;"/>
        <path d="M948.542,542.062l0,110.68c0,6.088 -2.202,11.665 -5.854,15.978l-23.019,-23.019l0,-87.494l16.145,-16.145l12.728,0Z" style="fill:#fff;"/>
        <path d="M939.772,671.636c-4.313,3.652 -9.89,5.855 -15.978,5.855l-115.492,-0c-6.088,-0 -11.665,-2.203 -15.977,-5.855l23.018,-23.018l101.41,-0l23.019,23.018Z"/>
        <path d="M789.408,668.72c-3.651,-4.313 -5.854,-9.89 -5.854,-15.978l-0,-110.68l12.728,0l16.145,16.145l-0,87.494l-23.019,23.019Z"/>
        <path d="M783.554,537.938l-0,-110.68c-0,-6.088 2.203,-11.665 5.854,-15.978l23.019,23.019l-0,87.494l-16.145,16.145l-12.728,-0Z" style="fill:#fff;"/>
        <path d="M813.802,553.749l-13.749,-13.749l13.749,-13.749l104.493,-0l13.749,13.749l-13.749,13.749l-104.493,0Z" style="fill:#fff;"/>
    </g>
    <g>
        <path d="M1220.38,408.364c4.313,-3.652 9.89,-5.855 15.978,-5.855l115.492,0c6.088,0 11.665,2.203 15.978,5.855l-23.019,23.018l-101.41,0l-23.019,-23.018Z" style="fill:#fff;"/>
        <path d="M1370.74,411.28c3.651,4.313 5.854,9.89 5.854,15.978l0,110.68l-12.728,-0l-16.145,-16.145l0,-87.494l23.019,-23.019Z" style="fill:#fff;"/>
        <path d="M1376.6,542.062l0,110.68c0,6.088 -2.203,11.665 -5.854,15.978l-23.019,-23.019l0,-87.494l16.145,-16.145l12.728,0Z"/>
        <path d="M1367.83,671.636c-4.313,3.652 -9.89,5.855 -15.978,5.855l-115.492,-0c-6.088,-0 -11.665,-2.203 -15.978,-5.855l23.019,-23.018l101.41,-0l23.019,23.018Z" style="fill:#fff;"/>
        <path d="M1217.46,668.72c-3.652,-4.313 -5.854,-9.89 -5.854,-15.978l-0,-110.68l12.728,0l16.145,16.145l-0,87.494l-23.019,23.019Z" style="fill:#fff;"/>
        <path d="M1211.61,537.938l-0,-110.68c-0,-6.088 2.202,-11.665 5.854,-15.978l23.019,23.019l-0,87.494l-16.145,16.145l-12.728,-0Z"/>
        <path d="M1241.86,553.749l-13.749,-13.749l13.749,-13.749l104.492,-0l13.749,13.749l-13.749,13.749l-104.492,0Z" style="fill:#fff;"/>
    </g>
    <g>
        <path d="M552.174,408.364c4.313,-3.652 9.89,-5.855 15.978,-5.855l115.492,0c6.088,0 11.665,2.203 15.978,5.855l-23.019,23.018l-101.41,0l-23.019,-23.018Z" style="fill:#fff;"/>
        <path d="M702.538,411.28c3.652,4.313 5.854,9.89 5.854,15.978l0,110.68l-12.728,-0l-16.145,-16.145l0,-87.494l23.019,-23.019Z" style="fill:#fff;"/>
        <path d="M708.392,542.062l0,110.68c0,6.088 -2.202,11.665 -5.854,15.978l-23.019,-23.019l0,-87.494l16.145,-16.145l12.728,0Z" style="fill:#fff;"/>
        <path d="M699.622,671.636c-4.313,3.652 -9.89,5.855 -15.978,5.855l-115.492,-0c-6.088,-0 -11.665,-2.203 -15.978,-5.855l23.019,-23.018l101.41,-0l23.019,23.018Z" style="fill:#fff;"/>
        <path d="M549.258,668.72c-3.651,-4.313 -5.854,-9.89 -5.854,-15.978l-0,-110.68l12.728,0l16.145,16.145l-0,87.494l-23.019,23.019Z"/>
        <path d="M543.404,537.938l-0,-110.68c-0,-6.088 2.203,-11.665 5.854,-15.978l23.019,23.019l-0,87.494l-16.145,16.145l-12.728,-0Z"/>
        <path d="M573.652,553.749l-13.749,-13.749l13.749,-13.749l104.492,-0l13.749,13.749l-13.749,13.749l-104.492,0Z" style="fill:#fff;"/>
    </g>
    <g>
        <path d="M980.228,408.364c4.313,-3.652 9.89,-5.855 15.978,-5.855l115.492,0c6.088,0 11.665,2.203 15.977,5.855l-23.018,23.018l-101.41,0l-23.019,-23.018Z" style="fill:#fff;"/>
        <path d="M1130.59,411.28c3.651,4.313 5.854,9.89 5.854,15.978l0,110.68l-12.728,-0l-16.145,-16.145l0,-87.494l23.019,-23.019Z" style="fill:#fff;"/>
        <path d="M1136.45,542.062l0,110.68c0,6.088 -2.203,11.665 -5.854,15.978l-23.019,-23.019l0,-87.494l16.145,-16.145l12.728,0Z" style="fill:#fff;"/>
        <path d="M1127.67,671.636c-4.312,3.652 -9.889,5.855 -15.977,5.855l-115.492,-0c-6.088,-0 -11.665,-2.203 -15.978,-5.855l23.019,-23.018l101.41,-0l23.018,23.018Z" style="fill:#fff;"/>
        <path d="M977.312,668.72c-3.652,-4.313 -5.854,-9.89 -5.854,-15.978l-0,-110.68l12.728,0l16.145,16.145l-0,87.494l-23.019,23.019Z" style="fill:#fff;"/>
        <path d="M971.458,537.938l-0,-110.68c-0,-6.088 2.202,-11.665 5.854,-15.978l23.019,23.019l-0,87.494l-16.145,16.145l-12.728,-0Z" style="fill:#fff;"/>
        <path d="M1001.71,553.749l-13.749,-13.749l13.749,-13.749l104.493,-0l13.749,13.749l-13.749,13.749l-104.493,0Z" style="fill:#fff;"/>
    </g>
    <g>
        <path d="M1408.28,408.364c4.313,-3.652 9.89,-5.855 15.978,-5.855l115.492,0c6.087,0 11.665,2.203 15.977,5.855l-23.019,23.018l-101.409,0l-23.019,-23.018Z" style="fill:#fff;"/>
        <path d="M1558.65,411.28c3.651,4.313 5.854,9.89 5.854,15.978l-0,110.68l-12.728,-0l-16.145,-16.145l-0,-87.494l23.019,-23.019Z" style="fill:#fff;"/>
        <path d="M1564.5,542.062l-0,110.68c-0,6.088 -2.203,11.665 -5.854,15.978l-23.019,-23.019l-0,-87.494l16.145,-16.145l12.728,0Z" style="fill:#fff;"/>
        <path d="M1555.73,671.636c-4.312,3.652 -9.89,5.855 -15.977,5.855l-115.492,-0c-6.088,-0 -11.665,-2.203 -15.978,-5.855l23.019,-23.018l101.409,-0l23.019,23.018Z"/>
        <path d="M1405.37,668.72c-3.652,-4.313 -5.855,-9.89 -5.855,-15.978l0,-110.68l12.728,0l16.145,16.145l0,87.494l-23.018,23.019Z"/>
        <path d="M1399.51,537.938l0,-110.68c0,-6.088 2.203,-11.665 5.855,-15.978l23.018,23.019l0,87.494l-16.145,16.145l-12.728,-0Z"/>
        <path d="M1429.76,553.749l-13.749,-13.749l13.749,-13.749l104.493,-0l13.749,13.749l-13.749,13.749l-104.493,0Z"/>
    </g>
</svg>
