<?xml version="1.0" encoding="UTF-8" standalone="no"?>
<!DOCTYPE svg PUBLIC "-//W3C//DTD SVG 1.1//EN" "http://www.w3.org/Graphics/SVG/1.1/DTD/svg11.dtd">
<svg width="100%" height="100%" viewBox="0 0 1920 1080" version="1.1" xmlns="http://www.w3.org/2000/svg" xmlns:xlink="http://www.w3.org/1999/xlink" xml:space="preserve" xmlns:serif="http://www.serif.com/" style="fill-rule:evenodd;clip-rule:evenodd;stroke-linejoin:round;stroke-miterlimit:2;">
    <rect id="Matrix" x="0" y="0" width="1920" height="1080" style="fill:none;"/>
    <g>
        <path d="M346.567,403.194l0,22.866c0,1.104 -0.896,2 -2,2l-22.866,-0c-1.103,-0 -2,-0.896 -2,-2l0,-22.866c0,-1.104 0.897,-2 2,-2l22.866,0c1.104,0 2,0.896 2,2Z" style="fill:#222;"/>
        <path d="M377.91,403.194l0,22.866c0,1.104 -0.896,2 -2,2l-22.865,-0c-1.104,-0 -2,-0.896 -2,-2l-0,-22.866c-0,-1.104 0.896,-2 2,-2l22.865,0c1.104,0 2,0.896 2,2Z" style="fill:#222;"/>
        <path d="M409.254,403.194l-0,22.866c-0,1.104 -0.896,2 -2,2l-22.866,-0c-1.104,-0 -2,-0.896 -2,-2l0,-22.866c0,-1.104 0.896,-2 2,-2l22.866,0c1.104,0 2,0.896 2,2Z" style="fill:#222;"/>
        <path d="M440.597,403.194l0,22.866c0,1.104 -0.896,2 -2,2l-22.866,-0c-1.103,-0 -2,-0.896 -2,-2l0,-22.866c0,-1.104 0.897,-2 2,-2l22.866,0c1.104,0 2,0.896 2,2Z" style="fill:#222;"/>
        <path d="M471.94,403.194l0,22.866c0,1.104 -0.896,2 -2,2l-22.865,-0c-1.104,-0 -2,-0.896 -2,-2l-0,-22.866c-0,-1.104 0.896,-2 2,-2l22.865,0c1.104,0 2,0.896 2,2Z" style="fill:#222;"/>
        <path d="M503.284,403.194l-0,22.866c-0,1.104 -0.897,2 -2,2l-22.866,-0c-1.104,-0 -2,-0.896 -2,-2l-0,-22.866c-0,-1.104 0.896,-2 2,-2l22.866,0c1.103,0 2,0.896 2,2Z" style="fill:#222;"/>
        <path d="M534.627,403.194l-0,22.866c-0,1.104 -0.896,2 -2,2l-22.866,-0c-1.104,-0 -2,-0.896 -2,-2l0,-22.866c0,-1.104 0.896,-2 2,-2l22.866,0c1.104,0 2,0.896 2,2Z" style="fill:#222;"/>
        <path d="M565.97,403.194l0,22.866c0,1.104 -0.896,2 -2,2l-22.866,-0c-1.103,-0 -2,-0.896 -2,-2l0,-22.866c0,-1.104 0.897,-2 2,-2l22.866,0c1.104,0 2,0.896 2,2Z" style="fill:#222;"/>
        <path d="M597.313,403.194l0,22.866c0,1.104 -0.896,2 -2,2l-22.865,-0c-1.104,-0 -2,-0.896 -2,-2l-0,-22.866c-0,-1.104 0.896,-2 2,-2l22.865,0c1.104,0 2,0.896 2,2Z" style="fill:#222;"/>
        <path d="M628.657,403.194l-0,22.866c-0,1.104 -0.896,2 -2,2l-22.866,-0c-1.104,-0 -2,-0.896 -2,-2l0,-22.866c0,-1.104 0.896,-2 2,-2l22.866,0c1.104,0 2,0.896 2,2Z" style="fill:#222;"/>
        <path d="M660,403.194l0,22.866c0,1.104 -0.896,2 -2,2l-22.866,-0c-1.104,-0 -2,-0.896 -2,-2l0,-22.866c0,-1.104 0.896,-2 2,-2l22.866,0c1.104,0 2,0.896 2,2Z" style="fill:#222;"/>
        <path d="M691.343,403.194l0,22.866c0,1.104 -0.896,2 -2,2l-22.865,-0c-1.104,-0 -2,-0.896 -2,-2l-0,-22.866c-0,-1.104 0.896,-2 2,-2l22.865,0c1.104,0 2,0.896 2,2Z" style="fill:#222;"/>
        <path d="M722.687,403.194l-0,22.866c-0,1.104 -0.897,2 -2,2l-22.866,-0c-1.104,-0 -2,-0.896 -2,-2l-0,-22.866c-0,-1.104 0.896,-2 2,-2l22.866,0c1.103,0 2,0.896 2,2Z" style="fill:#222;"/>
        <path d="M754.03,403.194l-0,22.866c-0,1.104 -0.896,2 -2,2l-22.866,-0c-1.104,-0 -2,-0.896 -2,-2l0,-22.866c0,-1.104 0.896,-2 2,-2l22.866,0c1.104,0 2,0.896 2,2Z" style="fill:#222;"/>
        <path d="M785.373,403.194l0,22.866c0,1.104 -0.896,2 -2,2l-22.866,-0c-1.103,-0 -2,-0.896 -2,-2l0,-22.866c0,-1.104 0.897,-2 2,-2l22.866,0c1.104,0 2,0.896 2,2Z" style="fill:#222;"/>
        <path d="M816.716,403.194l0,22.866c0,1.104 -0.896,2 -2,2l-22.865,-0c-1.104,-0 -2,-0.896 -2,-2l-0,-22.866c-0,-1.104 0.896,-2 2,-2l22.865,0c1.104,0 2,0.896 2,2Z" style="fill:#222;"/>
        <path d="M848.06,403.194l-0,22.866c-0,1.104 -0.896,2 -2,2l-22.866,-0c-1.104,-0 -2,-0.896 -2,-2l0,-22.866c0,-1.104 0.896,-2 2,-2l22.866,0c1.104,0 2,0.896 2,2Z" style="fill:#222;"/>
        <path d="M879.403,403.194l-0,22.866c-0,1.104 -0.896,2 -2,2l-22.866,-0c-1.104,-0 -2,-0.896 -2,-2l0,-22.866c0,-1.104 0.896,-2 2,-2l22.866,0c1.104,0 2,0.896 2,2Z" style="fill:#222;"/>
        <path d="M910.746,403.194l0,22.866c0,1.104 -0.896,2 -2,2l-22.865,-0c-1.104,-0 -2,-0.896 -2,-2l-0,-22.866c-0,-1.104 0.896,-2 2,-2l22.865,0c1.104,0 2,0.896 2,2Z" style="fill:#222;"/>
        <path d="M942.09,403.194l-0,22.866c-0,1.104 -0.897,2 -2,2l-22.866,-0c-1.104,-0 -2,-0.896 -2,-2l-0,-22.866c-0,-1.104 0.896,-2 2,-2l22.866,0c1.103,0 2,0.896 2,2Z" style="fill:#222;"/>
        <path d="M973.433,403.194l-0,22.866c-0,1.104 -0.896,2 -2,2l-22.866,-0c-1.104,-0 -2,-0.896 -2,-2l0,-22.866c0,-1.104 0.896,-2 2,-2l22.866,0c1.104,0 2,0.896 2,2Z" style="fill:#222;"/>
        <path d="M1004.78,403.194l0,22.866c0,1.104 -0.896,2 -2,2l-22.866,-0c-1.103,-0 -2,-0.896 -2,-2l0,-22.866c0,-1.104 0.897,-2 2,-2l22.866,0c1.104,0 2,0.896 2,2Z" style="fill:#222;"/>
        <path d="M1036.12,403.194l0,22.866c0,1.104 -0.896,2 -2,2l-22.865,-0c-1.104,-0 -2,-0.896 -2,-2l-0,-22.866c-0,-1.104 0.896,-2 2,-2l22.865,0c1.104,0 2,0.896 2,2Z" style="fill:#222;"/>
        <path d="M1067.46,403.194l-0,22.866c-0,1.104 -0.896,2 -2,2l-22.866,-0c-1.104,-0 -2,-0.896 -2,-2l0,-22.866c0,-1.104 0.896,-2 2,-2l22.866,0c1.104,0 2,0.896 2,2Z" style="fill:#222;"/>
        <path d="M1098.81,403.194l-0,22.866c-0,1.104 -0.896,2 -2,2l-22.866,-0c-1.104,-0 -2,-0.896 -2,-2l0,-22.866c0,-1.104 0.896,-2 2,-2l22.866,0c1.104,0 2,0.896 2,2Z" style="fill:#222;"/>
        <path d="M1130.15,403.194l0,22.866c0,1.104 -0.896,2 -2,2l-22.865,-0c-1.104,-0 -2,-0.896 -2,-2l-0,-22.866c-0,-1.104 0.896,-2 2,-2l22.865,0c1.104,0 2,0.896 2,2Z" style="fill:#222;"/>
        <path d="M1161.49,403.194l-0,22.866c-0,1.104 -0.897,2 -2,2l-22.866,-0c-1.104,-0 -2,-0.896 -2,-2l-0,-22.866c-0,-1.104 0.896,-2 2,-2l22.866,0c1.103,0 2,0.896 2,2Z" style="fill:#222;"/>
        <path d="M1192.84,403.194l-0,22.866c-0,1.104 -0.896,2 -2,2l-22.866,-0c-1.104,-0 -2,-0.896 -2,-2l0,-22.866c0,-1.104 0.896,-2 2,-2l22.866,0c1.104,0 2,0.896 2,2Z" style="fill:#222;"/>
        <path d="M1224.18,403.194l0,22.866c0,1.104 -0.896,2 -2,2l-22.866,-0c-1.103,-0 -2,-0.896 -2,-2l0,-22.866c0,-1.104 0.897,-2 2,-2l22.866,0c1.104,0 2,0.896 2,2Z" style="fill:#222;"/>
        <path d="M1255.52,403.194l0,22.866c0,1.104 -0.896,2 -2,2l-22.865,-0c-1.104,-0 -2,-0.896 -2,-2l-0,-22.866c-0,-1.104 0.896,-2 2,-2l22.865,0c1.104,0 2,0.896 2,2Z" style="fill:#222;"/>
        <path d="M1286.87,403.194l-0,22.866c-0,1.104 -0.896,2 -2,2l-22.866,-0c-1.104,-0 -2,-0.896 -2,-2l0,-22.866c0,-1.104 0.896,-2 2,-2l22.866,0c1.104,0 2,0.896 2,2Z" style="fill:#222;"/>
        <path d="M1318.21,403.194l-0,22.866c-0,1.104 -0.896,2 -2,2l-22.866,-0c-1.104,-0 -2,-0.896 -2,-2l0,-22.866c0,-1.104 0.896,-2 2,-2l22.866,0c1.104,0 2,0.896 2,2Z" style="fill:#222;"/>
        <path d="M1349.55,403.194l0,22.866c0,1.104 -0.896,2 -2,2l-22.865,-0c-1.104,-0 -2,-0.896 -2,-2l-0,-22.866c-0,-1.104 0.896,-2 2,-2l22.865,0c1.104,0 2,0.896 2,2Z" style="fill:#222;"/>
        <path d="M1380.9,403.194l-0,22.866c-0,1.104 -0.897,2 -2,2l-22.866,-0c-1.104,-0 -2,-0.896 -2,-2l-0,-22.866c-0,-1.104 0.896,-2 2,-2l22.866,0c1.103,0 2,0.896 2,2Z" style="fill:#222;"/>
        <path d="M1412.24,403.194l-0,22.866c-0,1.104 -0.896,2 -2,2l-22.866,-0c-1.104,-0 -2,-0.896 -2,-2l0,-22.866c0,-1.104 0.896,-2 2,-2l22.866,0c1.104,0 2,0.896 2,2Z" style="fill:#222;"/>
        <path d="M1443.58,403.194l0,22.866c0,1.104 -0.896,2 -2,2l-22.866,-0c-1.103,-0 -2,-0.896 -2,-2l0,-22.866c0,-1.104 0.897,-2 2,-2l22.866,0c1.104,0 2,0.896 2,2Z" style="fill:#222;"/>
        <path d="M1474.92,403.194l0,22.866c0,1.104 -0.896,2 -2,2l-22.865,-0c-1.104,-0 -2,-0.896 -2,-2l-0,-22.866c-0,-1.104 0.896,-2 2,-2l22.865,0c1.104,0 2,0.896 2,2Z" style="fill:#222;"/>
        <path d="M1506.27,403.194l-0,22.866c-0,1.104 -0.897,2 -2,2l-22.866,-0c-1.104,-0 -2,-0.896 -2,-2l-0,-22.866c-0,-1.104 0.896,-2 2,-2l22.866,0c1.103,0 2,0.896 2,2Z" style="fill:#222;"/>
        <path d="M1537.61,403.194l-0,22.866c-0,1.104 -0.896,2 -2,2l-22.866,-0c-1.104,-0 -2,-0.896 -2,-2l0,-22.866c0,-1.104 0.896,-2 2,-2l22.866,0c1.104,0 2,0.896 2,2Z" style="fill:#222;"/>
        <path d="M1568.95,403.194l0,22.866c0,1.104 -0.896,2 -2,2l-22.865,-0c-1.104,-0 -2,-0.896 -2,-2l-0,-22.866c-0,-1.104 0.896,-2 2,-2l22.865,0c1.104,0 2,0.896 2,2Z" style="fill:#222;"/>
        <path d="M1600.3,403.194l-0,22.866c-0,1.104 -0.897,2 -2,2l-22.866,-0c-1.104,-0 -2,-0.896 -2,-2l-0,-22.866c-0,-1.104 0.896,-2 2,-2l22.866,0c1.103,0 2,0.896 2,2Z" style="fill:#222;"/>
        <path d="M346.567,434.537l0,22.866c0,1.104 -0.896,2 -2,2l-22.866,-0c-1.103,-0 -2,-0.896 -2,-2l0,-22.866c0,-1.104 0.897,-2 2,-2l22.866,0c1.104,0 2,0.896 2,2Z" style="fill:#222;"/>
        <path d="M471.94,434.537l0,22.866c0,1.104 -0.896,2 -2,2l-22.865,-0c-1.104,-0 -2,-0.896 -2,-2l-0,-22.866c-0,-1.104 0.896,-2 2,-2l22.865,0c1.104,0 2,0.896 2,2Z" style="fill:#222;"/>
        <path d="M503.284,434.537l-0,22.866c-0,1.104 -0.897,2 -2,2l-22.866,-0c-1.104,-0 -2,-0.896 -2,-2l-0,-22.866c-0,-1.104 0.896,-2 2,-2l22.866,0c1.103,0 2,0.896 2,2Z" style="fill:#222;"/>
        <path d="M534.627,434.537l-0,22.866c-0,1.104 -0.896,2 -2,2l-22.866,-0c-1.104,-0 -2,-0.896 -2,-2l0,-22.866c0,-1.104 0.896,-2 2,-2l22.866,0c1.104,0 2,0.896 2,2Z" style="fill:#222;"/>
        <path d="M691.343,434.537l0,22.866c0,1.104 -0.896,2 -2,2l-22.865,-0c-1.104,-0 -2,-0.896 -2,-2l-0,-22.866c-0,-1.104 0.896,-2 2,-2l22.865,0c1.104,0 2,0.896 2,2Z" style="fill:#222;"/>
        <path d="M722.687,434.537l-0,22.866c-0,1.104 -0.897,2 -2,2l-22.866,-0c-1.104,-0 -2,-0.896 -2,-2l-0,-22.866c-0,-1.104 0.896,-2 2,-2l22.866,0c1.103,0 2,0.896 2,2Z" style="fill:#222;"/>
        <path d="M754.03,434.537l-0,22.866c-0,1.104 -0.896,2 -2,2l-22.866,-0c-1.104,-0 -2,-0.896 -2,-2l0,-22.866c0,-1.104 0.896,-2 2,-2l22.866,0c1.104,0 2,0.896 2,2Z" style="fill:#222;"/>
        <path d="M785.373,434.537l0,22.866c0,1.104 -0.896,2 -2,2l-22.866,-0c-1.103,-0 -2,-0.896 -2,-2l0,-22.866c0,-1.104 0.897,-2 2,-2l22.866,0c1.104,0 2,0.896 2,2Z" style="fill:#222;"/>
        <path d="M816.716,434.537l0,22.866c0,1.104 -0.896,2 -2,2l-22.865,-0c-1.104,-0 -2,-0.896 -2,-2l-0,-22.866c-0,-1.104 0.896,-2 2,-2l22.865,0c1.104,0 2,0.896 2,2Z" style="fill:#222;"/>
        <path d="M848.06,434.537l-0,22.866c-0,1.104 -0.896,2 -2,2l-22.866,-0c-1.104,-0 -2,-0.896 -2,-2l0,-22.866c0,-1.104 0.896,-2 2,-2l22.866,0c1.104,0 2,0.896 2,2Z" style="fill:#222;"/>
        <path d="M879.403,434.537l-0,22.866c-0,1.104 -0.896,2 -2,2l-22.866,-0c-1.104,-0 -2,-0.896 -2,-2l0,-22.866c0,-1.104 0.896,-2 2,-2l22.866,0c1.104,0 2,0.896 2,2Z" style="fill:#222;"/>
        <path d="M942.09,434.537l-0,22.866c-0,1.104 -0.897,2 -2,2l-22.866,-0c-1.104,-0 -2,-0.896 -2,-2l-0,-22.866c-0,-1.104 0.896,-2 2,-2l22.866,0c1.103,0 2,0.896 2,2Z" style="fill:#222;"/>
        <path d="M973.433,434.537l-0,22.866c-0,1.104 -0.896,2 -2,2l-22.866,-0c-1.104,-0 -2,-0.896 -2,-2l0,-22.866c0,-1.104 0.896,-2 2,-2l22.866,0c1.104,0 2,0.896 2,2Z" style="fill:#222;"/>
        <path d="M1004.78,434.537l0,22.866c0,1.104 -0.896,2 -2,2l-22.866,-0c-1.103,-0 -2,-0.896 -2,-2l0,-22.866c0,-1.104 0.897,-2 2,-2l22.866,0c1.104,0 2,0.896 2,2Z" style="fill:#222;"/>
        <path d="M1130.15,434.537l0,22.866c0,1.104 -0.896,2 -2,2l-22.865,-0c-1.104,-0 -2,-0.896 -2,-2l-0,-22.866c-0,-1.104 0.896,-2 2,-2l22.865,0c1.104,0 2,0.896 2,2Z" style="fill:#222;"/>
        <path d="M1161.49,434.537l-0,22.866c-0,1.104 -0.897,2 -2,2l-22.866,-0c-1.104,-0 -2,-0.896 -2,-2l-0,-22.866c-0,-1.104 0.896,-2 2,-2l22.866,0c1.103,0 2,0.896 2,2Z" style="fill:#222;"/>
        <path d="M1192.84,434.537l-0,22.866c-0,1.104 -0.896,2 -2,2l-22.866,-0c-1.104,-0 -2,-0.896 -2,-2l0,-22.866c0,-1.104 0.896,-2 2,-2l22.866,0c1.104,0 2,0.896 2,2Z" style="fill:#222;"/>
        <path d="M1224.18,434.537l0,22.866c0,1.104 -0.896,2 -2,2l-22.866,-0c-1.103,-0 -2,-0.896 -2,-2l0,-22.866c0,-1.104 0.897,-2 2,-2l22.866,0c1.104,0 2,0.896 2,2Z" style="fill:#222;"/>
        <path d="M1380.9,434.537l-0,22.866c-0,1.104 -0.897,2 -2,2l-22.866,-0c-1.104,-0 -2,-0.896 -2,-2l-0,-22.866c-0,-1.104 0.896,-2 2,-2l22.866,0c1.103,0 2,0.896 2,2Z" style="fill:#222;"/>
        <path d="M1412.24,434.537l-0,22.866c-0,1.104 -0.896,2 -2,2l-22.866,-0c-1.104,-0 -2,-0.896 -2,-2l0,-22.866c0,-1.104 0.896,-2 2,-2l22.866,0c1.104,0 2,0.896 2,2Z" style="fill:#222;"/>
        <path d="M1600.3,434.537l-0,22.866c-0,1.104 -0.897,2 -2,2l-22.866,-0c-1.104,-0 -2,-0.896 -2,-2l-0,-22.866c-0,-1.104 0.896,-2 2,-2l22.866,0c1.103,0 2,0.896 2,2Z" style="fill:#222;"/>
        <path d="M346.567,465.881l0,22.865c0,1.104 -0.896,2 -2,2l-22.866,0c-1.103,0 -2,-0.896 -2,-2l0,-22.865c0,-1.104 0.897,-2 2,-2l22.866,-0c1.104,-0 2,0.896 2,2Z" style="fill:#222;"/>
        <path d="M377.91,465.881l0,22.865c0,1.104 -0.896,2 -2,2l-22.865,0c-1.104,0 -2,-0.896 -2,-2l-0,-22.865c-0,-1.104 0.896,-2 2,-2l22.865,-0c1.104,-0 2,0.896 2,2Z" style="fill:#222;"/>
        <path d="M409.254,465.881l-0,22.865c-0,1.104 -0.896,2 -2,2l-22.866,0c-1.104,0 -2,-0.896 -2,-2l0,-22.865c0,-1.104 0.896,-2 2,-2l22.866,-0c1.104,-0 2,0.896 2,2Z" style="fill:#222;"/>
        <path d="M471.94,465.881l0,22.865c0,1.104 -0.896,2 -2,2l-22.865,0c-1.104,0 -2,-0.896 -2,-2l-0,-22.865c-0,-1.104 0.896,-2 2,-2l22.865,-0c1.104,-0 2,0.896 2,2Z" style="fill:#222;"/>
        <path d="M503.284,465.881l-0,22.865c-0,1.104 -0.897,2 -2,2l-22.866,0c-1.104,0 -2,-0.896 -2,-2l-0,-22.865c-0,-1.104 0.896,-2 2,-2l22.866,-0c1.103,-0 2,0.896 2,2Z" style="fill:#222;"/>
        <path d="M534.627,465.881l-0,22.865c-0,1.104 -0.896,2 -2,2l-22.866,0c-1.104,0 -2,-0.896 -2,-2l0,-22.865c0,-1.104 0.896,-2 2,-2l22.866,-0c1.104,-0 2,0.896 2,2Z" style="fill:#222;"/>
        <path d="M565.97,465.881l0,22.865c0,1.104 -0.896,2 -2,2l-22.866,0c-1.103,0 -2,-0.896 -2,-2l0,-22.865c0,-1.104 0.897,-2 2,-2l22.866,-0c1.104,-0 2,0.896 2,2Z" style="fill:#222;"/>
        <path d="M597.313,465.881l0,22.865c0,1.104 -0.896,2 -2,2l-22.865,0c-1.104,0 -2,-0.896 -2,-2l-0,-22.865c-0,-1.104 0.896,-2 2,-2l22.865,-0c1.104,-0 2,0.896 2,2Z" style="fill:#222;"/>
        <path d="M628.657,465.881l-0,22.865c-0,1.104 -0.896,2 -2,2l-22.866,0c-1.104,0 -2,-0.896 -2,-2l0,-22.865c0,-1.104 0.896,-2 2,-2l22.866,-0c1.104,-0 2,0.896 2,2Z" style="fill:#222;"/>
        <path d="M660,465.881l0,22.865c0,1.104 -0.896,2 -2,2l-22.866,0c-1.104,0 -2,-0.896 -2,-2l0,-22.865c0,-1.104 0.896,-2 2,-2l22.866,-0c1.104,-0 2,0.896 2,2Z" style="fill:#222;"/>
        <path d="M722.687,465.881l-0,22.865c-0,1.104 -0.897,2 -2,2l-22.866,0c-1.104,0 -2,-0.896 -2,-2l-0,-22.865c-0,-1.104 0.896,-2 2,-2l22.866,-0c1.103,-0 2,0.896 2,2Z" style="fill:#222;"/>
        <path d="M754.03,465.881l-0,22.865c-0,1.104 -0.896,2 -2,2l-22.866,0c-1.104,0 -2,-0.896 -2,-2l0,-22.865c0,-1.104 0.896,-2 2,-2l22.866,-0c1.104,-0 2,0.896 2,2Z" style="fill:#222;"/>
        <path d="M785.373,465.881l0,22.865c0,1.104 -0.896,2 -2,2l-22.866,0c-1.103,0 -2,-0.896 -2,-2l0,-22.865c0,-1.104 0.897,-2 2,-2l22.866,-0c1.104,-0 2,0.896 2,2Z" style="fill:#222;"/>
        <path d="M848.06,465.881l-0,22.865c-0,1.104 -0.896,2 -2,2l-22.866,0c-1.104,0 -2,-0.896 -2,-2l0,-22.865c0,-1.104 0.896,-2 2,-2l22.866,-0c1.104,-0 2,0.896 2,2Z" style="fill:#222;"/>
        <path d="M879.403,465.881l-0,22.865c-0,1.104 -0.896,2 -2,2l-22.866,0c-1.104,0 -2,-0.896 -2,-2l0,-22.865c0,-1.104 0.896,-2 2,-2l22.866,-0c1.104,-0 2,0.896 2,2Z" style="fill:#222;"/>
        <path d="M942.09,465.881l-0,22.865c-0,1.104 -0.897,2 -2,2l-22.866,0c-1.104,0 -2,-0.896 -2,-2l-0,-22.865c-0,-1.104 0.896,-2 2,-2l22.866,-0c1.103,-0 2,0.896 2,2Z" style="fill:#222;"/>
        <path d="M973.433,465.881l-0,22.865c-0,1.104 -0.896,2 -2,2l-22.866,0c-1.104,0 -2,-0.896 -2,-2l0,-22.865c0,-1.104 0.896,-2 2,-2l22.866,-0c1.104,-0 2,0.896 2,2Z" style="fill:#222;"/>
        <path d="M1036.12,465.881l0,22.865c0,1.104 -0.896,2 -2,2l-22.865,0c-1.104,0 -2,-0.896 -2,-2l-0,-22.865c-0,-1.104 0.896,-2 2,-2l22.865,-0c1.104,-0 2,0.896 2,2Z" style="fill:#222;"/>
        <path d="M1067.46,465.881l-0,22.865c-0,1.104 -0.896,2 -2,2l-22.866,0c-1.104,0 -2,-0.896 -2,-2l0,-22.865c0,-1.104 0.896,-2 2,-2l22.866,-0c1.104,-0 2,0.896 2,2Z" style="fill:#222;"/>
        <path d="M1098.81,465.881l-0,22.865c-0,1.104 -0.896,2 -2,2l-22.866,0c-1.104,0 -2,-0.896 -2,-2l0,-22.865c0,-1.104 0.896,-2 2,-2l22.866,-0c1.104,-0 2,0.896 2,2Z" style="fill:#222;"/>
        <path d="M1161.49,465.881l-0,22.865c-0,1.104 -0.897,2 -2,2l-22.866,0c-1.104,0 -2,-0.896 -2,-2l-0,-22.865c-0,-1.104 0.896,-2 2,-2l22.866,-0c1.103,-0 2,0.896 2,2Z" style="fill:#222;"/>
        <path d="M1192.84,465.881l-0,22.865c-0,1.104 -0.896,2 -2,2l-22.866,0c-1.104,0 -2,-0.896 -2,-2l0,-22.865c0,-1.104 0.896,-2 2,-2l22.866,-0c1.104,-0 2,0.896 2,2Z" style="fill:#222;"/>
        <path d="M1224.18,465.881l0,22.865c0,1.104 -0.896,2 -2,2l-22.866,0c-1.103,0 -2,-0.896 -2,-2l0,-22.865c0,-1.104 0.897,-2 2,-2l22.866,-0c1.104,-0 2,0.896 2,2Z" style="fill:#222;"/>
        <path d="M1255.52,465.881l0,22.865c0,1.104 -0.896,2 -2,2l-22.865,0c-1.104,0 -2,-0.896 -2,-2l-0,-22.865c-0,-1.104 0.896,-2 2,-2l22.865,-0c1.104,-0 2,0.896 2,2Z" style="fill:#222;"/>
        <path d="M1286.87,465.881l-0,22.865c-0,1.104 -0.896,2 -2,2l-22.866,0c-1.104,0 -2,-0.896 -2,-2l0,-22.865c0,-1.104 0.896,-2 2,-2l22.866,-0c1.104,-0 2,0.896 2,2Z" style="fill:#222;"/>
        <path d="M1318.21,465.881l-0,22.865c-0,1.104 -0.896,2 -2,2l-22.866,0c-1.104,0 -2,-0.896 -2,-2l0,-22.865c0,-1.104 0.896,-2 2,-2l22.866,-0c1.104,-0 2,0.896 2,2Z" style="fill:#222;"/>
        <path d="M1349.55,465.881l0,22.865c0,1.104 -0.896,2 -2,2l-22.865,0c-1.104,0 -2,-0.896 -2,-2l-0,-22.865c-0,-1.104 0.896,-2 2,-2l22.865,-0c1.104,-0 2,0.896 2,2Z" style="fill:#222;"/>
        <path d="M1412.24,465.881l-0,22.865c-0,1.104 -0.896,2 -2,2l-22.866,0c-1.104,0 -2,-0.896 -2,-2l0,-22.865c0,-1.104 0.896,-2 2,-2l22.866,-0c1.104,-0 2,0.896 2,2Z" style="fill:#222;"/>
        <path d="M1443.58,465.881l0,22.865c0,1.104 -0.896,2 -2,2l-22.866,0c-1.103,0 -2,-0.896 -2,-2l0,-22.865c0,-1.104 0.897,-2 2,-2l22.866,-0c1.104,-0 2,0.896 2,2Z" style="fill:#222;"/>
        <path d="M1474.92,465.881l0,22.865c0,1.104 -0.896,2 -2,2l-22.865,0c-1.104,0 -2,-0.896 -2,-2l-0,-22.865c-0,-1.104 0.896,-2 2,-2l22.865,-0c1.104,-0 2,0.896 2,2Z" style="fill:#222;"/>
        <path d="M1506.27,465.881l-0,22.865c-0,1.104 -0.897,2 -2,2l-22.866,0c-1.104,0 -2,-0.896 -2,-2l-0,-22.865c-0,-1.104 0.896,-2 2,-2l22.866,-0c1.103,-0 2,0.896 2,2Z" style="fill:#222;"/>
        <path d="M1537.61,465.881l-0,22.865c-0,1.104 -0.896,2 -2,2l-22.866,0c-1.104,0 -2,-0.896 -2,-2l0,-22.865c0,-1.104 0.896,-2 2,-2l22.866,-0c1.104,-0 2,0.896 2,2Z" style="fill:#222;"/>
        <path d="M1600.3,465.881l-0,22.865c-0,1.104 -0.897,2 -2,2l-22.866,0c-1.104,0 -2,-0.896 -2,-2l-0,-22.865c-0,-1.104 0.896,-2 2,-2l22.866,-0c1.103,-0 2,0.896 2,2Z" style="fill:#222;"/>
        <path d="M346.567,497.224l0,22.866c0,1.103 -0.896,2 -2,2l-22.866,-0c-1.103,-0 -2,-0.897 -2,-2l0,-22.866c0,-1.104 0.897,-2 2,-2l22.866,-0c1.104,-0 2,0.896 2,2Z" style="fill:#222;"/>
        <path d="M377.91,497.224l0,22.866c0,1.103 -0.896,2 -2,2l-22.865,-0c-1.104,-0 -2,-0.897 -2,-2l-0,-22.866c-0,-1.104 0.896,-2 2,-2l22.865,-0c1.104,-0 2,0.896 2,2Z" style="fill:#222;"/>
        <path d="M409.254,497.224l-0,22.866c-0,1.103 -0.896,2 -2,2l-22.866,-0c-1.104,-0 -2,-0.897 -2,-2l0,-22.866c0,-1.104 0.896,-2 2,-2l22.866,-0c1.104,-0 2,0.896 2,2Z" style="fill:#222;"/>
        <path d="M471.94,497.224l0,22.866c0,1.103 -0.896,2 -2,2l-22.865,-0c-1.104,-0 -2,-0.897 -2,-2l-0,-22.866c-0,-1.104 0.896,-2 2,-2l22.865,-0c1.104,-0 2,0.896 2,2Z" style="fill:#222;"/>
        <path d="M503.284,497.224l-0,22.866c-0,1.103 -0.897,2 -2,2l-22.866,-0c-1.104,-0 -2,-0.897 -2,-2l-0,-22.866c-0,-1.104 0.896,-2 2,-2l22.866,-0c1.103,-0 2,0.896 2,2Z" style="fill:#222;"/>
        <path d="M534.627,497.224l-0,22.866c-0,1.103 -0.896,2 -2,2l-22.866,-0c-1.104,-0 -2,-0.897 -2,-2l0,-22.866c0,-1.104 0.896,-2 2,-2l22.866,-0c1.104,-0 2,0.896 2,2Z" style="fill:#222;"/>
        <path d="M565.97,497.224l0,22.866c0,1.103 -0.896,2 -2,2l-22.866,-0c-1.103,-0 -2,-0.897 -2,-2l0,-22.866c0,-1.104 0.897,-2 2,-2l22.866,-0c1.104,-0 2,0.896 2,2Z" style="fill:#222;"/>
        <path d="M597.313,497.224l0,22.866c0,1.103 -0.896,2 -2,2l-22.865,-0c-1.104,-0 -2,-0.897 -2,-2l-0,-22.866c-0,-1.104 0.896,-2 2,-2l22.865,-0c1.104,-0 2,0.896 2,2Z" style="fill:#222;"/>
        <path d="M628.657,497.224l-0,22.866c-0,1.103 -0.896,2 -2,2l-22.866,-0c-1.104,-0 -2,-0.897 -2,-2l0,-22.866c0,-1.104 0.896,-2 2,-2l22.866,-0c1.104,-0 2,0.896 2,2Z" style="fill:#222;"/>
        <path d="M660,497.224l0,22.866c0,1.103 -0.896,2 -2,2l-22.866,-0c-1.104,-0 -2,-0.897 -2,-2l0,-22.866c0,-1.104 0.896,-2 2,-2l22.866,-0c1.104,-0 2,0.896 2,2Z" style="fill:#222;"/>
        <path d="M722.687,497.224l-0,22.866c-0,1.103 -0.897,2 -2,2l-22.866,-0c-1.104,-0 -2,-0.897 -2,-2l-0,-22.866c-0,-1.104 0.896,-2 2,-2l22.866,-0c1.103,-0 2,0.896 2,2Z" style="fill:#222;"/>
        <path d="M785.373,497.224l0,22.866c0,1.103 -0.896,2 -2,2l-22.866,-0c-1.103,-0 -2,-0.897 -2,-2l0,-22.866c0,-1.104 0.897,-2 2,-2l22.866,-0c1.104,-0 2,0.896 2,2Z" style="fill:#222;"/>
        <path d="M848.06,497.224l-0,22.866c-0,1.103 -0.896,2 -2,2l-22.866,-0c-1.104,-0 -2,-0.897 -2,-2l0,-22.866c0,-1.104 0.896,-2 2,-2l22.866,-0c1.104,-0 2,0.896 2,2Z" style="fill:#222;"/>
        <path d="M879.403,497.224l-0,22.866c-0,1.103 -0.896,2 -2,2l-22.866,-0c-1.104,-0 -2,-0.897 -2,-2l0,-22.866c0,-1.104 0.896,-2 2,-2l22.866,-0c1.104,-0 2,0.896 2,2Z" style="fill:#222;"/>
        <path d="M942.09,497.224l-0,22.866c-0,1.103 -0.897,2 -2,2l-22.866,-0c-1.104,-0 -2,-0.897 -2,-2l-0,-22.866c-0,-1.104 0.896,-2 2,-2l22.866,-0c1.103,-0 2,0.896 2,2Z" style="fill:#222;"/>
        <path d="M973.433,497.224l-0,22.866c-0,1.103 -0.896,2 -2,2l-22.866,-0c-1.104,-0 -2,-0.897 -2,-2l0,-22.866c0,-1.104 0.896,-2 2,-2l22.866,-0c1.104,-0 2,0.896 2,2Z" style="fill:#222;"/>
        <path d="M1036.12,497.224l0,22.866c0,1.103 -0.896,2 -2,2l-22.865,-0c-1.104,-0 -2,-0.897 -2,-2l-0,-22.866c-0,-1.104 0.896,-2 2,-2l22.865,-0c1.104,-0 2,0.896 2,2Z" style="fill:#222;"/>
        <path d="M1067.46,497.224l-0,22.866c-0,1.103 -0.896,2 -2,2l-22.866,-0c-1.104,-0 -2,-0.897 -2,-2l0,-22.866c0,-1.104 0.896,-2 2,-2l22.866,-0c1.104,-0 2,0.896 2,2Z" style="fill:#222;"/>
        <path d="M1098.81,497.224l-0,22.866c-0,1.103 -0.896,2 -2,2l-22.866,-0c-1.104,-0 -2,-0.897 -2,-2l0,-22.866c0,-1.104 0.896,-2 2,-2l22.866,-0c1.104,-0 2,0.896 2,2Z" style="fill:#222;"/>
        <path d="M1161.49,497.224l-0,22.866c-0,1.103 -0.897,2 -2,2l-22.866,-0c-1.104,-0 -2,-0.897 -2,-2l-0,-22.866c-0,-1.104 0.896,-2 2,-2l22.866,-0c1.103,-0 2,0.896 2,2Z" style="fill:#222;"/>
        <path d="M1224.18,497.224l0,22.866c0,1.103 -0.896,2 -2,2l-22.866,-0c-1.103,-0 -2,-0.897 -2,-2l0,-22.866c0,-1.104 0.897,-2 2,-2l22.866,-0c1.104,-0 2,0.896 2,2Z" style="fill:#222;"/>
        <path d="M1255.52,497.224l0,22.866c0,1.103 -0.896,2 -2,2l-22.865,-0c-1.104,-0 -2,-0.897 -2,-2l-0,-22.866c-0,-1.104 0.896,-2 2,-2l22.865,-0c1.104,-0 2,0.896 2,2Z" style="fill:#222;"/>
        <path d="M1286.87,497.224l-0,22.866c-0,1.103 -0.896,2 -2,2l-22.866,-0c-1.104,-0 -2,-0.897 -2,-2l0,-22.866c0,-1.104 0.896,-2 2,-2l22.866,-0c1.104,-0 2,0.896 2,2Z" style="fill:#222;"/>
        <path d="M1318.21,497.224l-0,22.866c-0,1.103 -0.896,2 -2,2l-22.866,-0c-1.104,-0 -2,-0.897 -2,-2l0,-22.866c0,-1.104 0.896,-2 2,-2l22.866,-0c1.104,-0 2,0.896 2,2Z" style="fill:#222;"/>
        <path d="M1349.55,497.224l0,22.866c0,1.103 -0.896,2 -2,2l-22.865,-0c-1.104,-0 -2,-0.897 -2,-2l-0,-22.866c-0,-1.104 0.896,-2 2,-2l22.865,-0c1.104,-0 2,0.896 2,2Z" style="fill:#222;"/>
        <path d="M1412.24,497.224l-0,22.866c-0,1.103 -0.896,2 -2,2l-22.866,-0c-1.104,-0 -2,-0.897 -2,-2l0,-22.866c0,-1.104 0.896,-2 2,-2l22.866,-0c1.104,-0 2,0.896 2,2Z" style="fill:#222;"/>
        <path d="M1443.58,497.224l0,22.866c0,1.103 -0.896,2 -2,2l-22.866,-0c-1.103,-0 -2,-0.897 -2,-2l0,-22.866c0,-1.104 0.897,-2 2,-2l22.866,-0c1.104,-0 2,0.896 2,2Z" style="fill:#222;"/>
        <path d="M1474.92,497.224l0,22.866c0,1.103 -0.896,2 -2,2l-22.865,-0c-1.104,-0 -2,-0.897 -2,-2l-0,-22.866c-0,-1.104 0.896,-2 2,-2l22.865,-0c1.104,-0 2,0.896 2,2Z" style="fill:#222;"/>
        <path d="M1506.27,497.224l-0,22.866c-0,1.103 -0.897,2 -2,2l-22.866,-0c-1.104,-0 -2,-0.897 -2,-2l-0,-22.866c-0,-1.104 0.896,-2 2,-2l22.866,-0c1.103,-0 2,0.896 2,2Z" style="fill:#222;"/>
        <path d="M1568.95,497.224l0,22.866c0,1.103 -0.896,2 -2,2l-22.865,-0c-1.104,-0 -2,-0.897 -2,-2l-0,-22.866c-0,-1.104 0.896,-2 2,-2l22.865,-0c1.104,-0 2,0.896 2,2Z" style="fill:#222;"/>
        <path d="M1600.3,497.224l-0,22.866c-0,1.103 -0.897,2 -2,2l-22.866,-0c-1.104,-0 -2,-0.897 -2,-2l-0,-22.866c-0,-1.104 0.896,-2 2,-2l22.866,-0c1.103,-0 2,0.896 2,2Z" style="fill:#222;"/>
        <path d="M346.567,528.567l0,22.866c0,1.104 -0.896,2 -2,2l-22.866,-0c-1.103,-0 -2,-0.896 -2,-2l0,-22.866c0,-1.104 0.897,-2 2,-2l22.866,0c1.104,0 2,0.896 2,2Z" style="fill:#222;"/>
        <path d="M377.91,528.567l0,22.866c0,1.104 -0.896,2 -2,2l-22.865,-0c-1.104,-0 -2,-0.896 -2,-2l-0,-22.866c-0,-1.104 0.896,-2 2,-2l22.865,0c1.104,0 2,0.896 2,2Z" style="fill:#222;"/>
        <path d="M409.254,528.567l-0,22.866c-0,1.104 -0.896,2 -2,2l-22.866,-0c-1.104,-0 -2,-0.896 -2,-2l0,-22.866c0,-1.104 0.896,-2 2,-2l22.866,0c1.104,0 2,0.896 2,2Z" style="fill:#222;"/>
        <path d="M471.94,528.567l0,22.866c0,1.104 -0.896,2 -2,2l-22.865,-0c-1.104,-0 -2,-0.896 -2,-2l-0,-22.866c-0,-1.104 0.896,-2 2,-2l22.865,0c1.104,0 2,0.896 2,2Z" style="fill:#222;"/>
        <path d="M503.284,528.567l-0,22.866c-0,1.104 -0.897,2 -2,2l-22.866,-0c-1.104,-0 -2,-0.896 -2,-2l-0,-22.866c-0,-1.104 0.896,-2 2,-2l22.866,0c1.103,0 2,0.896 2,2Z" style="fill:#222;"/>
        <path d="M534.627,528.567l-0,22.866c-0,1.104 -0.896,2 -2,2l-22.866,-0c-1.104,-0 -2,-0.896 -2,-2l0,-22.866c0,-1.104 0.896,-2 2,-2l22.866,0c1.104,0 2,0.896 2,2Z" style="fill:#222;"/>
        <path d="M565.97,528.567l0,22.866c0,1.104 -0.896,2 -2,2l-22.866,-0c-1.103,-0 -2,-0.896 -2,-2l0,-22.866c0,-1.104 0.897,-2 2,-2l22.866,0c1.104,0 2,0.896 2,2Z" style="fill:#222;"/>
        <path d="M691.343,528.567l0,22.866c0,1.104 -0.896,2 -2,2l-22.865,-0c-1.104,-0 -2,-0.896 -2,-2l-0,-22.866c-0,-1.104 0.896,-2 2,-2l22.865,0c1.104,0 2,0.896 2,2Z" style="fill:#222;"/>
        <path d="M722.687,528.567l-0,22.866c-0,1.104 -0.897,2 -2,2l-22.866,-0c-1.104,-0 -2,-0.896 -2,-2l-0,-22.866c-0,-1.104 0.896,-2 2,-2l22.866,0c1.103,0 2,0.896 2,2Z" style="fill:#222;"/>
        <path d="M754.03,528.567l-0,22.866c-0,1.104 -0.896,2 -2,2l-22.866,-0c-1.104,-0 -2,-0.896 -2,-2l0,-22.866c0,-1.104 0.896,-2 2,-2l22.866,0c1.104,0 2,0.896 2,2Z" style="fill:#222;"/>
        <path d="M785.373,528.567l0,22.866c0,1.104 -0.896,2 -2,2l-22.866,-0c-1.103,-0 -2,-0.896 -2,-2l0,-22.866c0,-1.104 0.897,-2 2,-2l22.866,0c1.104,0 2,0.896 2,2Z" style="fill:#222;"/>
        <path d="M973.433,528.567l-0,22.866c-0,1.104 -0.896,2 -2,2l-22.866,-0c-1.104,-0 -2,-0.896 -2,-2l0,-22.866c0,-1.104 0.896,-2 2,-2l22.866,0c1.104,0 2,0.896 2,2Z" style="fill:#222;"/>
        <path d="M1004.78,528.567l0,22.866c0,1.104 -0.896,2 -2,2l-22.866,-0c-1.103,-0 -2,-0.896 -2,-2l0,-22.866c0,-1.104 0.897,-2 2,-2l22.866,0c1.104,0 2,0.896 2,2Z" style="fill:#222;"/>
        <path d="M1130.15,528.567l0,22.866c0,1.104 -0.896,2 -2,2l-22.865,-0c-1.104,-0 -2,-0.896 -2,-2l-0,-22.866c-0,-1.104 0.896,-2 2,-2l22.865,0c1.104,0 2,0.896 2,2Z" style="fill:#222;"/>
        <path d="M1161.49,528.567l-0,22.866c-0,1.104 -0.897,2 -2,2l-22.866,-0c-1.104,-0 -2,-0.896 -2,-2l-0,-22.866c-0,-1.104 0.896,-2 2,-2l22.866,0c1.103,0 2,0.896 2,2Z" style="fill:#222;"/>
        <path d="M1192.84,528.567l-0,22.866c-0,1.104 -0.896,2 -2,2l-22.866,-0c-1.104,-0 -2,-0.896 -2,-2l0,-22.866c0,-1.104 0.896,-2 2,-2l22.866,0c1.104,0 2,0.896 2,2Z" style="fill:#222;"/>
        <path d="M1224.18,528.567l0,22.866c0,1.104 -0.896,2 -2,2l-22.866,-0c-1.103,-0 -2,-0.896 -2,-2l0,-22.866c0,-1.104 0.897,-2 2,-2l22.866,0c1.104,0 2,0.896 2,2Z" style="fill:#222;"/>
        <path d="M1255.52,528.567l0,22.866c0,1.104 -0.896,2 -2,2l-22.865,-0c-1.104,-0 -2,-0.896 -2,-2l-0,-22.866c-0,-1.104 0.896,-2 2,-2l22.865,0c1.104,0 2,0.896 2,2Z" style="fill:#222;"/>
        <path d="M1380.9,528.567l-0,22.866c-0,1.104 -0.897,2 -2,2l-22.866,-0c-1.104,-0 -2,-0.896 -2,-2l-0,-22.866c-0,-1.104 0.896,-2 2,-2l22.866,0c1.103,0 2,0.896 2,2Z" style="fill:#222;"/>
        <path d="M1412.24,528.567l-0,22.866c-0,1.104 -0.896,2 -2,2l-22.866,-0c-1.104,-0 -2,-0.896 -2,-2l0,-22.866c0,-1.104 0.896,-2 2,-2l22.866,0c1.104,0 2,0.896 2,2Z" style="fill:#222;"/>
        <path d="M1443.58,528.567l0,22.866c0,1.104 -0.896,2 -2,2l-22.866,-0c-1.103,-0 -2,-0.896 -2,-2l0,-22.866c0,-1.104 0.897,-2 2,-2l22.866,0c1.104,0 2,0.896 2,2Z" style="fill:#222;"/>
        <path d="M1474.92,528.567l0,22.866c0,1.104 -0.896,2 -2,2l-22.865,-0c-1.104,-0 -2,-0.896 -2,-2l-0,-22.866c-0,-1.104 0.896,-2 2,-2l22.865,0c1.104,0 2,0.896 2,2Z" style="fill:#222;"/>
        <path d="M1537.61,528.567l-0,22.866c-0,1.104 -0.896,2 -2,2l-22.866,-0c-1.104,-0 -2,-0.896 -2,-2l0,-22.866c0,-1.104 0.896,-2 2,-2l22.866,0c1.104,0 2,0.896 2,2Z" style="fill:#222;"/>
        <path d="M1568.95,528.567l0,22.866c0,1.104 -0.896,2 -2,2l-22.865,-0c-1.104,-0 -2,-0.896 -2,-2l-0,-22.866c-0,-1.104 0.896,-2 2,-2l22.865,0c1.104,0 2,0.896 2,2Z" style="fill:#222;"/>
        <path d="M1600.3,528.567l-0,22.866c-0,1.104 -0.897,2 -2,2l-22.866,-0c-1.104,-0 -2,-0.896 -2,-2l-0,-22.866c-0,-1.104 0.896,-2 2,-2l22.866,0c1.103,0 2,0.896 2,2Z" style="fill:#222;"/>
        <path d="M346.567,559.91l0,22.866c0,1.104 -0.896,2 -2,2l-22.866,0c-1.103,0 -2,-0.896 -2,-2l0,-22.866c0,-1.103 0.897,-2 2,-2l22.866,0c1.104,0 2,0.897 2,2Z" style="fill:#222;"/>
        <path d="M377.91,559.91l0,22.866c0,1.104 -0.896,2 -2,2l-22.865,0c-1.104,0 -2,-0.896 -2,-2l-0,-22.866c-0,-1.103 0.896,-2 2,-2l22.865,0c1.104,0 2,0.897 2,2Z" style="fill:#222;"/>
        <path d="M409.254,559.91l-0,22.866c-0,1.104 -0.896,2 -2,2l-22.866,0c-1.104,0 -2,-0.896 -2,-2l0,-22.866c0,-1.103 0.896,-2 2,-2l22.866,0c1.104,0 2,0.897 2,2Z" style="fill:#222;"/>
        <path d="M471.94,559.91l0,22.866c0,1.104 -0.896,2 -2,2l-22.865,0c-1.104,0 -2,-0.896 -2,-2l-0,-22.866c-0,-1.103 0.896,-2 2,-2l22.865,0c1.104,0 2,0.897 2,2Z" style="fill:#222;"/>
        <path d="M503.284,559.91l-0,22.866c-0,1.104 -0.897,2 -2,2l-22.866,0c-1.104,0 -2,-0.896 -2,-2l-0,-22.866c-0,-1.103 0.896,-2 2,-2l22.866,0c1.103,0 2,0.897 2,2Z" style="fill:#222;"/>
        <path d="M534.627,559.91l-0,22.866c-0,1.104 -0.896,2 -2,2l-22.866,0c-1.104,0 -2,-0.896 -2,-2l0,-22.866c0,-1.103 0.896,-2 2,-2l22.866,0c1.104,0 2,0.897 2,2Z" style="fill:#222;"/>
        <path d="M565.97,559.91l0,22.866c0,1.104 -0.896,2 -2,2l-22.866,0c-1.103,0 -2,-0.896 -2,-2l0,-22.866c0,-1.103 0.897,-2 2,-2l22.866,0c1.104,0 2,0.897 2,2Z" style="fill:#222;"/>
        <path d="M597.313,559.91l0,22.866c0,1.104 -0.896,2 -2,2l-22.865,0c-1.104,0 -2,-0.896 -2,-2l-0,-22.866c-0,-1.103 0.896,-2 2,-2l22.865,0c1.104,0 2,0.897 2,2Z" style="fill:#222;"/>
        <path d="M628.657,559.91l-0,22.866c-0,1.104 -0.896,2 -2,2l-22.866,0c-1.104,0 -2,-0.896 -2,-2l0,-22.866c0,-1.103 0.896,-2 2,-2l22.866,0c1.104,0 2,0.897 2,2Z" style="fill:#222;"/>
        <path d="M660,559.91l0,22.866c0,1.104 -0.896,2 -2,2l-22.866,0c-1.104,0 -2,-0.896 -2,-2l0,-22.866c0,-1.103 0.896,-2 2,-2l22.866,0c1.104,0 2,0.897 2,2Z" style="fill:#222;"/>
        <path d="M722.687,559.91l-0,22.866c-0,1.104 -0.897,2 -2,2l-22.866,0c-1.104,0 -2,-0.896 -2,-2l-0,-22.866c-0,-1.103 0.896,-2 2,-2l22.866,0c1.103,0 2,0.897 2,2Z" style="fill:#222;"/>
        <path d="M785.373,559.91l0,22.866c0,1.104 -0.896,2 -2,2l-22.866,0c-1.103,0 -2,-0.896 -2,-2l0,-22.866c0,-1.103 0.897,-2 2,-2l22.866,0c1.104,0 2,0.897 2,2Z" style="fill:#222;"/>
        <path d="M816.716,559.91l0,22.866c0,1.104 -0.896,2 -2,2l-22.865,0c-1.104,0 -2,-0.896 -2,-2l-0,-22.866c-0,-1.103 0.896,-2 2,-2l22.865,0c1.104,0 2,0.897 2,2Z" style="fill:#222;"/>
        <path d="M848.06,559.91l-0,22.866c-0,1.104 -0.896,2 -2,2l-22.866,0c-1.104,0 -2,-0.896 -2,-2l0,-22.866c0,-1.103 0.896,-2 2,-2l22.866,0c1.104,0 2,0.897 2,2Z" style="fill:#222;"/>
        <path d="M879.403,559.91l-0,22.866c-0,1.104 -0.896,2 -2,2l-22.866,0c-1.104,0 -2,-0.896 -2,-2l0,-22.866c0,-1.103 0.896,-2 2,-2l22.866,0c1.104,0 2,0.897 2,2Z" style="fill:#222;"/>
        <path d="M942.09,559.91l-0,22.866c-0,1.104 -0.897,2 -2,2l-22.866,0c-1.104,0 -2,-0.896 -2,-2l-0,-22.866c-0,-1.103 0.896,-2 2,-2l22.866,0c1.103,0 2,0.897 2,2Z" style="fill:#222;"/>
        <path d="M973.433,559.91l-0,22.866c-0,1.104 -0.896,2 -2,2l-22.866,0c-1.104,0 -2,-0.896 -2,-2l0,-22.866c0,-1.103 0.896,-2 2,-2l22.866,0c1.104,0 2,0.897 2,2Z" style="fill:#222;"/>
        <path d="M1036.12,559.91l0,22.866c0,1.104 -0.896,2 -2,2l-22.865,0c-1.104,0 -2,-0.896 -2,-2l-0,-22.866c-0,-1.103 0.896,-2 2,-2l22.865,0c1.104,0 2,0.897 2,2Z" style="fill:#222;"/>
        <path d="M1067.46,559.91l-0,22.866c-0,1.104 -0.896,2 -2,2l-22.866,0c-1.104,0 -2,-0.896 -2,-2l0,-22.866c0,-1.103 0.896,-2 2,-2l22.866,0c1.104,0 2,0.897 2,2Z" style="fill:#222;"/>
        <path d="M1098.81,559.91l-0,22.866c-0,1.104 -0.896,2 -2,2l-22.866,0c-1.104,0 -2,-0.896 -2,-2l0,-22.866c0,-1.103 0.896,-2 2,-2l22.866,0c1.104,0 2,0.897 2,2Z" style="fill:#222;"/>
        <path d="M1161.49,559.91l-0,22.866c-0,1.104 -0.897,2 -2,2l-22.866,0c-1.104,0 -2,-0.896 -2,-2l-0,-22.866c-0,-1.103 0.896,-2 2,-2l22.866,0c1.103,0 2,0.897 2,2Z" style="fill:#222;"/>
        <path d="M1224.18,559.91l0,22.866c0,1.104 -0.896,2 -2,2l-22.866,0c-1.103,0 -2,-0.896 -2,-2l0,-22.866c0,-1.103 0.897,-2 2,-2l22.866,0c1.104,0 2,0.897 2,2Z" style="fill:#222;"/>
        <path d="M1286.87,559.91l-0,22.866c-0,1.104 -0.896,2 -2,2l-22.866,0c-1.104,0 -2,-0.896 -2,-2l0,-22.866c0,-1.103 0.896,-2 2,-2l22.866,0c1.104,0 2,0.897 2,2Z" style="fill:#222;"/>
        <path d="M1318.21,559.91l-0,22.866c-0,1.104 -0.896,2 -2,2l-22.866,0c-1.104,0 -2,-0.896 -2,-2l0,-22.866c0,-1.103 0.896,-2 2,-2l22.866,0c1.104,0 2,0.897 2,2Z" style="fill:#222;"/>
        <path d="M1349.55,559.91l0,22.866c0,1.104 -0.896,2 -2,2l-22.865,0c-1.104,0 -2,-0.896 -2,-2l-0,-22.866c-0,-1.103 0.896,-2 2,-2l22.865,0c1.104,0 2,0.897 2,2Z" style="fill:#222;"/>
        <path d="M1380.9,559.91l-0,22.866c-0,1.104 -0.897,2 -2,2l-22.866,0c-1.104,0 -2,-0.896 -2,-2l-0,-22.866c-0,-1.103 0.896,-2 2,-2l22.866,0c1.103,0 2,0.897 2,2Z" style="fill:#222;"/>
        <path d="M1412.24,559.91l-0,22.866c-0,1.104 -0.896,2 -2,2l-22.866,0c-1.104,0 -2,-0.896 -2,-2l0,-22.866c0,-1.103 0.896,-2 2,-2l22.866,0c1.104,0 2,0.897 2,2Z" style="fill:#222;"/>
        <path d="M1443.58,559.91l0,22.866c0,1.104 -0.896,2 -2,2l-22.866,0c-1.103,0 -2,-0.896 -2,-2l0,-22.866c0,-1.103 0.897,-2 2,-2l22.866,0c1.104,0 2,0.897 2,2Z" style="fill:#222;"/>
        <path d="M1474.92,559.91l0,22.866c0,1.104 -0.896,2 -2,2l-22.865,0c-1.104,0 -2,-0.896 -2,-2l-0,-22.866c-0,-1.103 0.896,-2 2,-2l22.865,0c1.104,0 2,0.897 2,2Z" style="fill:#222;"/>
        <path d="M1537.61,559.91l-0,22.866c-0,1.104 -0.896,2 -2,2l-22.866,0c-1.104,0 -2,-0.896 -2,-2l0,-22.866c0,-1.103 0.896,-2 2,-2l22.866,0c1.104,0 2,0.897 2,2Z" style="fill:#222;"/>
        <path d="M1568.95,559.91l0,22.866c0,1.104 -0.896,2 -2,2l-22.865,0c-1.104,0 -2,-0.896 -2,-2l-0,-22.866c-0,-1.103 0.896,-2 2,-2l22.865,0c1.104,0 2,0.897 2,2Z" style="fill:#222;"/>
        <path d="M1600.3,559.91l-0,22.866c-0,1.104 -0.897,2 -2,2l-22.866,0c-1.104,0 -2,-0.896 -2,-2l-0,-22.866c-0,-1.103 0.896,-2 2,-2l22.866,0c1.103,0 2,0.897 2,2Z" style="fill:#222;"/>
        <path d="M346.567,591.254l0,22.865c0,1.104 -0.896,2 -2,2l-22.866,0c-1.103,0 -2,-0.896 -2,-2l0,-22.865c0,-1.104 0.897,-2 2,-2l22.866,-0c1.104,-0 2,0.896 2,2Z" style="fill:#222;"/>
        <path d="M377.91,591.254l0,22.865c0,1.104 -0.896,2 -2,2l-22.865,0c-1.104,0 -2,-0.896 -2,-2l-0,-22.865c-0,-1.104 0.896,-2 2,-2l22.865,-0c1.104,-0 2,0.896 2,2Z" style="fill:#222;"/>
        <path d="M409.254,591.254l-0,22.865c-0,1.104 -0.896,2 -2,2l-22.866,0c-1.104,0 -2,-0.896 -2,-2l0,-22.865c0,-1.104 0.896,-2 2,-2l22.866,-0c1.104,-0 2,0.896 2,2Z" style="fill:#222;"/>
        <path d="M471.94,591.254l0,22.865c0,1.104 -0.896,2 -2,2l-22.865,0c-1.104,0 -2,-0.896 -2,-2l-0,-22.865c-0,-1.104 0.896,-2 2,-2l22.865,-0c1.104,-0 2,0.896 2,2Z" style="fill:#222;"/>
        <path d="M503.284,591.254l-0,22.865c-0,1.104 -0.897,2 -2,2l-22.866,0c-1.104,0 -2,-0.896 -2,-2l-0,-22.865c-0,-1.104 0.896,-2 2,-2l22.866,-0c1.103,-0 2,0.896 2,2Z" style="fill:#222;"/>
        <path d="M534.627,591.254l-0,22.865c-0,1.104 -0.896,2 -2,2l-22.866,0c-1.104,0 -2,-0.896 -2,-2l0,-22.865c0,-1.104 0.896,-2 2,-2l22.866,-0c1.104,-0 2,0.896 2,2Z" style="fill:#222;"/>
        <path d="M565.97,591.254l0,22.865c0,1.104 -0.896,2 -2,2l-22.866,0c-1.103,0 -2,-0.896 -2,-2l0,-22.865c0,-1.104 0.897,-2 2,-2l22.866,-0c1.104,-0 2,0.896 2,2Z" style="fill:#222;"/>
        <path d="M597.313,591.254l0,22.865c0,1.104 -0.896,2 -2,2l-22.865,0c-1.104,0 -2,-0.896 -2,-2l-0,-22.865c-0,-1.104 0.896,-2 2,-2l22.865,-0c1.104,-0 2,0.896 2,2Z" style="fill:#222;"/>
        <path d="M628.657,591.254l-0,22.865c-0,1.104 -0.896,2 -2,2l-22.866,0c-1.104,0 -2,-0.896 -2,-2l0,-22.865c0,-1.104 0.896,-2 2,-2l22.866,-0c1.104,-0 2,0.896 2,2Z" style="fill:#222;"/>
        <path d="M660,591.254l0,22.865c0,1.104 -0.896,2 -2,2l-22.866,0c-1.104,0 -2,-0.896 -2,-2l0,-22.865c0,-1.104 0.896,-2 2,-2l22.866,-0c1.104,-0 2,0.896 2,2Z" style="fill:#222;"/>
        <path d="M722.687,591.254l-0,22.865c-0,1.104 -0.897,2 -2,2l-22.866,0c-1.104,0 -2,-0.896 -2,-2l-0,-22.865c-0,-1.104 0.896,-2 2,-2l22.866,-0c1.103,-0 2,0.896 2,2Z" style="fill:#222;"/>
        <path d="M754.03,591.254l-0,22.865c-0,1.104 -0.896,2 -2,2l-22.866,0c-1.104,0 -2,-0.896 -2,-2l0,-22.865c0,-1.104 0.896,-2 2,-2l22.866,-0c1.104,-0 2,0.896 2,2Z" style="fill:#222;"/>
        <path d="M785.373,591.254l0,22.865c0,1.104 -0.896,2 -2,2l-22.866,0c-1.103,0 -2,-0.896 -2,-2l0,-22.865c0,-1.104 0.897,-2 2,-2l22.866,-0c1.104,-0 2,0.896 2,2Z" style="fill:#222;"/>
        <path d="M816.716,591.254l0,22.865c0,1.104 -0.896,2 -2,2l-22.865,0c-1.104,0 -2,-0.896 -2,-2l-0,-22.865c-0,-1.104 0.896,-2 2,-2l22.865,-0c1.104,-0 2,0.896 2,2Z" style="fill:#222;"/>
        <path d="M848.06,591.254l-0,22.865c-0,1.104 -0.896,2 -2,2l-22.866,0c-1.104,0 -2,-0.896 -2,-2l0,-22.865c0,-1.104 0.896,-2 2,-2l22.866,-0c1.104,-0 2,0.896 2,2Z" style="fill:#222;"/>
        <path d="M879.403,591.254l-0,22.865c-0,1.104 -0.896,2 -2,2l-22.866,0c-1.104,0 -2,-0.896 -2,-2l0,-22.865c0,-1.104 0.896,-2 2,-2l22.866,-0c1.104,-0 2,0.896 2,2Z" style="fill:#222;"/>
        <path d="M942.09,591.254l-0,22.865c-0,1.104 -0.897,2 -2,2l-22.866,0c-1.104,0 -2,-0.896 -2,-2l-0,-22.865c-0,-1.104 0.896,-2 2,-2l22.866,-0c1.103,-0 2,0.896 2,2Z" style="fill:#222;"/>
        <path d="M973.433,591.254l-0,22.865c-0,1.104 -0.896,2 -2,2l-22.866,0c-1.104,0 -2,-0.896 -2,-2l0,-22.865c0,-1.104 0.896,-2 2,-2l22.866,-0c1.104,-0 2,0.896 2,2Z" style="fill:#222;"/>
        <path d="M1036.12,591.254l0,22.865c0,1.104 -0.896,2 -2,2l-22.865,0c-1.104,0 -2,-0.896 -2,-2l-0,-22.865c-0,-1.104 0.896,-2 2,-2l22.865,-0c1.104,-0 2,0.896 2,2Z" style="fill:#222;"/>
        <path d="M1067.46,591.254l-0,22.865c-0,1.104 -0.896,2 -2,2l-22.866,0c-1.104,0 -2,-0.896 -2,-2l0,-22.865c0,-1.104 0.896,-2 2,-2l22.866,-0c1.104,-0 2,0.896 2,2Z" style="fill:#222;"/>
        <path d="M1098.81,591.254l-0,22.865c-0,1.104 -0.896,2 -2,2l-22.866,0c-1.104,0 -2,-0.896 -2,-2l0,-22.865c0,-1.104 0.896,-2 2,-2l22.866,-0c1.104,-0 2,0.896 2,2Z" style="fill:#222;"/>
        <path d="M1161.49,591.254l-0,22.865c-0,1.104 -0.897,2 -2,2l-22.866,0c-1.104,0 -2,-0.896 -2,-2l-0,-22.865c-0,-1.104 0.896,-2 2,-2l22.866,-0c1.103,-0 2,0.896 2,2Z" style="fill:#222;"/>
        <path d="M1192.84,591.254l-0,22.865c-0,1.104 -0.896,2 -2,2l-22.866,0c-1.104,0 -2,-0.896 -2,-2l0,-22.865c0,-1.104 0.896,-2 2,-2l22.866,-0c1.104,-0 2,0.896 2,2Z" style="fill:#222;"/>
        <path d="M1224.18,591.254l0,22.865c0,1.104 -0.896,2 -2,2l-22.866,0c-1.103,0 -2,-0.896 -2,-2l0,-22.865c0,-1.104 0.897,-2 2,-2l22.866,-0c1.104,-0 2,0.896 2,2Z" style="fill:#222;"/>
        <path d="M1286.87,591.254l-0,22.865c-0,1.104 -0.896,2 -2,2l-22.866,0c-1.104,0 -2,-0.896 -2,-2l0,-22.865c0,-1.104 0.896,-2 2,-2l22.866,-0c1.104,-0 2,0.896 2,2Z" style="fill:#222;"/>
        <path d="M1318.21,591.254l-0,22.865c-0,1.104 -0.896,2 -2,2l-22.866,0c-1.104,0 -2,-0.896 -2,-2l0,-22.865c0,-1.104 0.896,-2 2,-2l22.866,-0c1.104,-0 2,0.896 2,2Z" style="fill:#222;"/>
        <path d="M1349.55,591.254l0,22.865c0,1.104 -0.896,2 -2,2l-22.865,0c-1.104,0 -2,-0.896 -2,-2l-0,-22.865c-0,-1.104 0.896,-2 2,-2l22.865,-0c1.104,-0 2,0.896 2,2Z" style="fill:#222;"/>
        <path d="M1380.9,591.254l-0,22.865c-0,1.104 -0.897,2 -2,2l-22.866,0c-1.104,0 -2,-0.896 -2,-2l-0,-22.865c-0,-1.104 0.896,-2 2,-2l22.866,-0c1.103,-0 2,0.896 2,2Z" style="fill:#222;"/>
        <path d="M1412.24,591.254l-0,22.865c-0,1.104 -0.896,2 -2,2l-22.866,0c-1.104,0 -2,-0.896 -2,-2l0,-22.865c0,-1.104 0.896,-2 2,-2l22.866,-0c1.104,-0 2,0.896 2,2Z" style="fill:#222;"/>
        <path d="M1443.58,591.254l0,22.865c0,1.104 -0.896,2 -2,2l-22.866,0c-1.103,0 -2,-0.896 -2,-2l0,-22.865c0,-1.104 0.897,-2 2,-2l22.866,-0c1.104,-0 2,0.896 2,2Z" style="fill:#222;"/>
        <path d="M1474.92,591.254l0,22.865c0,1.104 -0.896,2 -2,2l-22.865,0c-1.104,0 -2,-0.896 -2,-2l-0,-22.865c-0,-1.104 0.896,-2 2,-2l22.865,-0c1.104,-0 2,0.896 2,2Z" style="fill:#222;"/>
        <path d="M1537.61,591.254l-0,22.865c-0,1.104 -0.896,2 -2,2l-22.866,0c-1.104,0 -2,-0.896 -2,-2l0,-22.865c0,-1.104 0.896,-2 2,-2l22.866,-0c1.104,-0 2,0.896 2,2Z" style="fill:#222;"/>
        <path d="M1568.95,591.254l0,22.865c0,1.104 -0.896,2 -2,2l-22.865,0c-1.104,0 -2,-0.896 -2,-2l-0,-22.865c-0,-1.104 0.896,-2 2,-2l22.865,-0c1.104,-0 2,0.896 2,2Z" style="fill:#222;"/>
        <path d="M1600.3,591.254l-0,22.865c-0,1.104 -0.897,2 -2,2l-22.866,0c-1.104,0 -2,-0.896 -2,-2l-0,-22.865c-0,-1.104 0.896,-2 2,-2l22.866,-0c1.103,-0 2,0.896 2,2Z" style="fill:#222;"/>
        <path d="M346.567,622.597l0,22.866c0,1.104 -0.896,2 -2,2l-22.866,-0c-1.103,-0 -2,-0.896 -2,-2l0,-22.866c0,-1.104 0.897,-2 2,-2l22.866,0c1.104,0 2,0.896 2,2Z" style="fill:#222;"/>
        <path d="M534.627,622.597l-0,22.866c-0,1.104 -0.896,2 -2,2l-22.866,-0c-1.104,-0 -2,-0.896 -2,-2l0,-22.866c0,-1.104 0.896,-2 2,-2l22.866,0c1.104,0 2,0.896 2,2Z" style="fill:#222;"/>
        <path d="M691.343,622.597l0,22.866c0,1.104 -0.896,2 -2,2l-22.865,-0c-1.104,-0 -2,-0.896 -2,-2l-0,-22.866c-0,-1.104 0.896,-2 2,-2l22.865,0c1.104,0 2,0.896 2,2Z" style="fill:#222;"/>
        <path d="M722.687,622.597l-0,22.866c-0,1.104 -0.897,2 -2,2l-22.866,-0c-1.104,-0 -2,-0.896 -2,-2l-0,-22.866c-0,-1.104 0.896,-2 2,-2l22.866,0c1.103,0 2,0.896 2,2Z" style="fill:#222;"/>
        <path d="M754.03,622.597l-0,22.866c-0,1.104 -0.896,2 -2,2l-22.866,-0c-1.104,-0 -2,-0.896 -2,-2l0,-22.866c0,-1.104 0.896,-2 2,-2l22.866,0c1.104,0 2,0.896 2,2Z" style="fill:#222;"/>
        <path d="M785.373,622.597l0,22.866c0,1.104 -0.896,2 -2,2l-22.866,-0c-1.103,-0 -2,-0.896 -2,-2l0,-22.866c0,-1.104 0.897,-2 2,-2l22.866,0c1.104,0 2,0.896 2,2Z" style="fill:#222;"/>
        <path d="M816.716,622.597l0,22.866c0,1.104 -0.896,2 -2,2l-22.865,-0c-1.104,-0 -2,-0.896 -2,-2l-0,-22.866c-0,-1.104 0.896,-2 2,-2l22.865,0c1.104,0 2,0.896 2,2Z" style="fill:#222;"/>
        <path d="M848.06,622.597l-0,22.866c-0,1.104 -0.896,2 -2,2l-22.866,-0c-1.104,-0 -2,-0.896 -2,-2l0,-22.866c0,-1.104 0.896,-2 2,-2l22.866,0c1.104,0 2,0.896 2,2Z" style="fill:#222;"/>
        <path d="M879.403,622.597l-0,22.866c-0,1.104 -0.896,2 -2,2l-22.866,-0c-1.104,-0 -2,-0.896 -2,-2l0,-22.866c0,-1.104 0.896,-2 2,-2l22.866,0c1.104,0 2,0.896 2,2Z" style="fill:#222;"/>
        <path d="M942.09,622.597l-0,22.866c-0,1.104 -0.897,2 -2,2l-22.866,-0c-1.104,-0 -2,-0.896 -2,-2l-0,-22.866c-0,-1.104 0.896,-2 2,-2l22.866,0c1.103,0 2,0.896 2,2Z" style="fill:#222;"/>
        <path d="M973.433,622.597l-0,22.866c-0,1.104 -0.896,2 -2,2l-22.866,-0c-1.104,-0 -2,-0.896 -2,-2l0,-22.866c0,-1.104 0.896,-2 2,-2l22.866,0c1.104,0 2,0.896 2,2Z" style="fill:#222;"/>
        <path d="M1004.78,622.597l0,22.866c0,1.104 -0.896,2 -2,2l-22.866,-0c-1.103,-0 -2,-0.896 -2,-2l0,-22.866c0,-1.104 0.897,-2 2,-2l22.866,0c1.104,0 2,0.896 2,2Z" style="fill:#222;"/>
        <path d="M1130.15,622.597l0,22.866c0,1.104 -0.896,2 -2,2l-22.865,-0c-1.104,-0 -2,-0.896 -2,-2l-0,-22.866c-0,-1.104 0.896,-2 2,-2l22.865,0c1.104,0 2,0.896 2,2Z" style="fill:#222;"/>
        <path d="M1161.49,622.597l-0,22.866c-0,1.104 -0.897,2 -2,2l-22.866,-0c-1.104,-0 -2,-0.896 -2,-2l-0,-22.866c-0,-1.104 0.896,-2 2,-2l22.866,0c1.103,0 2,0.896 2,2Z" style="fill:#222;"/>
        <path d="M1192.84,622.597l-0,22.866c-0,1.104 -0.896,2 -2,2l-22.866,-0c-1.104,-0 -2,-0.896 -2,-2l0,-22.866c0,-1.104 0.896,-2 2,-2l22.866,0c1.104,0 2,0.896 2,2Z" style="fill:#222;"/>
        <path d="M1224.18,622.597l0,22.866c0,1.104 -0.896,2 -2,2l-22.866,-0c-1.103,-0 -2,-0.896 -2,-2l0,-22.866c0,-1.104 0.897,-2 2,-2l22.866,0c1.104,0 2,0.896 2,2Z" style="fill:#222;"/>
        <path d="M1412.24,622.597l-0,22.866c-0,1.104 -0.896,2 -2,2l-22.866,-0c-1.104,-0 -2,-0.896 -2,-2l0,-22.866c0,-1.104 0.896,-2 2,-2l22.866,0c1.104,0 2,0.896 2,2Z" style="fill:#222;"/>
        <path d="M1443.58,622.597l0,22.866c0,1.104 -0.896,2 -2,2l-22.866,-0c-1.103,-0 -2,-0.896 -2,-2l0,-22.866c0,-1.104 0.897,-2 2,-2l22.866,0c1.104,0 2,0.896 2,2Z" style="fill:#222;"/>
        <path d="M1474.92,622.597l0,22.866c0,1.104 -0.896,2 -2,2l-22.865,-0c-1.104,-0 -2,-0.896 -2,-2l-0,-22.866c-0,-1.104 0.896,-2 2,-2l22.865,0c1.104,0 2,0.896 2,2Z" style="fill:#222;"/>
        <path d="M1537.61,622.597l-0,22.866c-0,1.104 -0.896,2 -2,2l-22.866,-0c-1.104,-0 -2,-0.896 -2,-2l0,-22.866c0,-1.104 0.896,-2 2,-2l22.866,0c1.104,0 2,0.896 2,2Z" style="fill:#222;"/>
        <path d="M1568.95,622.597l0,22.866c0,1.104 -0.896,2 -2,2l-22.865,-0c-1.104,-0 -2,-0.896 -2,-2l-0,-22.866c-0,-1.104 0.896,-2 2,-2l22.865,0c1.104,0 2,0.896 2,2Z" style="fill:#222;"/>
        <path d="M1600.3,622.597l-0,22.866c-0,1.104 -0.897,2 -2,2l-22.866,-0c-1.104,-0 -2,-0.896 -2,-2l-0,-22.866c-0,-1.104 0.896,-2 2,-2l22.866,0c1.103,0 2,0.896 2,2Z" style="fill:#222;"/>
        <path d="M346.567,653.94l0,22.866c0,1.104 -0.896,2 -2,2l-22.866,-0c-1.103,-0 -2,-0.896 -2,-2l0,-22.866c0,-1.104 0.897,-2 2,-2l22.866,0c1.104,0 2,0.896 2,2Z" style="fill:#222;"/>
        <path d="M377.91,653.94l0,22.866c0,1.104 -0.896,2 -2,2l-22.865,-0c-1.104,-0 -2,-0.896 -2,-2l-0,-22.866c-0,-1.104 0.896,-2 2,-2l22.865,0c1.104,0 2,0.896 2,2Z" style="fill:#222;"/>
        <path d="M409.254,653.94l-0,22.866c-0,1.104 -0.896,2 -2,2l-22.866,-0c-1.104,-0 -2,-0.896 -2,-2l0,-22.866c0,-1.104 0.896,-2 2,-2l22.866,0c1.104,0 2,0.896 2,2Z" style="fill:#222;"/>
        <path d="M440.597,653.94l0,22.866c0,1.104 -0.896,2 -2,2l-22.866,-0c-1.103,-0 -2,-0.896 -2,-2l0,-22.866c0,-1.104 0.897,-2 2,-2l22.866,0c1.104,0 2,0.896 2,2Z" style="fill:#222;"/>
        <path d="M471.94,653.94l0,22.866c0,1.104 -0.896,2 -2,2l-22.865,-0c-1.104,-0 -2,-0.896 -2,-2l-0,-22.866c-0,-1.104 0.896,-2 2,-2l22.865,0c1.104,0 2,0.896 2,2Z" style="fill:#222;"/>
        <path d="M503.284,653.94l-0,22.866c-0,1.104 -0.897,2 -2,2l-22.866,-0c-1.104,-0 -2,-0.896 -2,-2l-0,-22.866c-0,-1.104 0.896,-2 2,-2l22.866,0c1.103,0 2,0.896 2,2Z" style="fill:#222;"/>
        <path d="M534.627,653.94l-0,22.866c-0,1.104 -0.896,2 -2,2l-22.866,-0c-1.104,-0 -2,-0.896 -2,-2l0,-22.866c0,-1.104 0.896,-2 2,-2l22.866,0c1.104,0 2,0.896 2,2Z" style="fill:#222;"/>
        <path d="M565.97,653.94l0,22.866c0,1.104 -0.896,2 -2,2l-22.866,-0c-1.103,-0 -2,-0.896 -2,-2l0,-22.866c0,-1.104 0.897,-2 2,-2l22.866,0c1.104,0 2,0.896 2,2Z" style="fill:#222;"/>
        <path d="M597.313,653.94l0,22.866c0,1.104 -0.896,2 -2,2l-22.865,-0c-1.104,-0 -2,-0.896 -2,-2l-0,-22.866c-0,-1.104 0.896,-2 2,-2l22.865,0c1.104,0 2,0.896 2,2Z" style="fill:#222;"/>
        <path d="M628.657,653.94l-0,22.866c-0,1.104 -0.896,2 -2,2l-22.866,-0c-1.104,-0 -2,-0.896 -2,-2l0,-22.866c0,-1.104 0.896,-2 2,-2l22.866,0c1.104,0 2,0.896 2,2Z" style="fill:#222;"/>
        <path d="M660,653.94l0,22.866c0,1.104 -0.896,2 -2,2l-22.866,-0c-1.104,-0 -2,-0.896 -2,-2l0,-22.866c0,-1.104 0.896,-2 2,-2l22.866,0c1.104,0 2,0.896 2,2Z" style="fill:#222;"/>
        <path d="M691.343,653.94l0,22.866c0,1.104 -0.896,2 -2,2l-22.865,-0c-1.104,-0 -2,-0.896 -2,-2l-0,-22.866c-0,-1.104 0.896,-2 2,-2l22.865,0c1.104,0 2,0.896 2,2Z" style="fill:#222;"/>
        <path d="M722.687,653.94l-0,22.866c-0,1.104 -0.897,2 -2,2l-22.866,-0c-1.104,-0 -2,-0.896 -2,-2l-0,-22.866c-0,-1.104 0.896,-2 2,-2l22.866,0c1.103,0 2,0.896 2,2Z" style="fill:#222;"/>
        <path d="M754.03,653.94l-0,22.866c-0,1.104 -0.896,2 -2,2l-22.866,-0c-1.104,-0 -2,-0.896 -2,-2l0,-22.866c0,-1.104 0.896,-2 2,-2l22.866,0c1.104,0 2,0.896 2,2Z" style="fill:#222;"/>
        <path d="M785.373,653.94l0,22.866c0,1.104 -0.896,2 -2,2l-22.866,-0c-1.103,-0 -2,-0.896 -2,-2l0,-22.866c0,-1.104 0.897,-2 2,-2l22.866,0c1.104,0 2,0.896 2,2Z" style="fill:#222;"/>
        <path d="M816.716,653.94l0,22.866c0,1.104 -0.896,2 -2,2l-22.865,-0c-1.104,-0 -2,-0.896 -2,-2l-0,-22.866c-0,-1.104 0.896,-2 2,-2l22.865,0c1.104,0 2,0.896 2,2Z" style="fill:#222;"/>
        <path d="M848.06,653.94l-0,22.866c-0,1.104 -0.896,2 -2,2l-22.866,-0c-1.104,-0 -2,-0.896 -2,-2l0,-22.866c0,-1.104 0.896,-2 2,-2l22.866,0c1.104,0 2,0.896 2,2Z" style="fill:#222;"/>
        <path d="M879.403,653.94l-0,22.866c-0,1.104 -0.896,2 -2,2l-22.866,-0c-1.104,-0 -2,-0.896 -2,-2l0,-22.866c0,-1.104 0.896,-2 2,-2l22.866,0c1.104,0 2,0.896 2,2Z" style="fill:#222;"/>
        <path d="M910.746,653.94l0,22.866c0,1.104 -0.896,2 -2,2l-22.865,-0c-1.104,-0 -2,-0.896 -2,-2l-0,-22.866c-0,-1.104 0.896,-2 2,-2l22.865,0c1.104,0 2,0.896 2,2Z" style="fill:#222;"/>
        <path d="M942.09,653.94l-0,22.866c-0,1.104 -0.897,2 -2,2l-22.866,-0c-1.104,-0 -2,-0.896 -2,-2l-0,-22.866c-0,-1.104 0.896,-2 2,-2l22.866,0c1.103,0 2,0.896 2,2Z" style="fill:#222;"/>
        <path d="M973.433,653.94l-0,22.866c-0,1.104 -0.896,2 -2,2l-22.866,-0c-1.104,-0 -2,-0.896 -2,-2l0,-22.866c0,-1.104 0.896,-2 2,-2l22.866,0c1.104,0 2,0.896 2,2Z" style="fill:#222;"/>
        <path d="M1004.78,653.94l0,22.866c0,1.104 -0.896,2 -2,2l-22.866,-0c-1.103,-0 -2,-0.896 -2,-2l0,-22.866c0,-1.104 0.897,-2 2,-2l22.866,0c1.104,0 2,0.896 2,2Z" style="fill:#222;"/>
        <path d="M1036.12,653.94l0,22.866c0,1.104 -0.896,2 -2,2l-22.865,-0c-1.104,-0 -2,-0.896 -2,-2l-0,-22.866c-0,-1.104 0.896,-2 2,-2l22.865,0c1.104,0 2,0.896 2,2Z" style="fill:#222;"/>
        <path d="M1067.46,653.94l-0,22.866c-0,1.104 -0.896,2 -2,2l-22.866,-0c-1.104,-0 -2,-0.896 -2,-2l0,-22.866c0,-1.104 0.896,-2 2,-2l22.866,0c1.104,0 2,0.896 2,2Z" style="fill:#222;"/>
        <path d="M1098.81,653.94l-0,22.866c-0,1.104 -0.896,2 -2,2l-22.866,-0c-1.104,-0 -2,-0.896 -2,-2l0,-22.866c0,-1.104 0.896,-2 2,-2l22.866,0c1.104,0 2,0.896 2,2Z" style="fill:#222;"/>
        <path d="M1130.15,653.94l0,22.866c0,1.104 -0.896,2 -2,2l-22.865,-0c-1.104,-0 -2,-0.896 -2,-2l-0,-22.866c-0,-1.104 0.896,-2 2,-2l22.865,0c1.104,0 2,0.896 2,2Z" style="fill:#222;"/>
        <path d="M1161.49,653.94l-0,22.866c-0,1.104 -0.897,2 -2,2l-22.866,-0c-1.104,-0 -2,-0.896 -2,-2l-0,-22.866c-0,-1.104 0.896,-2 2,-2l22.866,0c1.103,0 2,0.896 2,2Z" style="fill:#222;"/>
        <path d="M1192.84,653.94l-0,22.866c-0,1.104 -0.896,2 -2,2l-22.866,-0c-1.104,-0 -2,-0.896 -2,-2l0,-22.866c0,-1.104 0.896,-2 2,-2l22.866,0c1.104,0 2,0.896 2,2Z" style="fill:#222;"/>
        <path d="M1224.18,653.94l0,22.866c0,1.104 -0.896,2 -2,2l-22.866,-0c-1.103,-0 -2,-0.896 -2,-2l0,-22.866c0,-1.104 0.897,-2 2,-2l22.866,0c1.104,0 2,0.896 2,2Z" style="fill:#222;"/>
        <path d="M1255.52,653.94l0,22.866c0,1.104 -0.896,2 -2,2l-22.865,-0c-1.104,-0 -2,-0.896 -2,-2l-0,-22.866c-0,-1.104 0.896,-2 2,-2l22.865,0c1.104,0 2,0.896 2,2Z" style="fill:#222;"/>
        <path d="M1286.87,653.94l-0,22.866c-0,1.104 -0.896,2 -2,2l-22.866,-0c-1.104,-0 -2,-0.896 -2,-2l0,-22.866c0,-1.104 0.896,-2 2,-2l22.866,0c1.104,0 2,0.896 2,2Z" style="fill:#222;"/>
        <path d="M1318.21,653.94l-0,22.866c-0,1.104 -0.896,2 -2,2l-22.866,-0c-1.104,-0 -2,-0.896 -2,-2l0,-22.866c0,-1.104 0.896,-2 2,-2l22.866,0c1.104,0 2,0.896 2,2Z" style="fill:#222;"/>
        <path d="M1349.55,653.94l0,22.866c0,1.104 -0.896,2 -2,2l-22.865,-0c-1.104,-0 -2,-0.896 -2,-2l-0,-22.866c-0,-1.104 0.896,-2 2,-2l22.865,0c1.104,0 2,0.896 2,2Z" style="fill:#222;"/>
        <path d="M1380.9,653.94l-0,22.866c-0,1.104 -0.897,2 -2,2l-22.866,-0c-1.104,-0 -2,-0.896 -2,-2l-0,-22.866c-0,-1.104 0.896,-2 2,-2l22.866,0c1.103,0 2,0.896 2,2Z" style="fill:#222;"/>
        <path d="M1412.24,653.94l-0,22.866c-0,1.104 -0.896,2 -2,2l-22.866,-0c-1.104,-0 -2,-0.896 -2,-2l0,-22.866c0,-1.104 0.896,-2 2,-2l22.866,0c1.104,0 2,0.896 2,2Z" style="fill:#222;"/>
        <path d="M1443.58,653.94l0,22.866c0,1.104 -0.896,2 -2,2l-22.866,-0c-1.103,-0 -2,-0.896 -2,-2l0,-22.866c0,-1.104 0.897,-2 2,-2l22.866,0c1.104,0 2,0.896 2,2Z" style="fill:#222;"/>
        <path d="M1474.92,653.94l0,22.866c0,1.104 -0.896,2 -2,2l-22.865,-0c-1.104,-0 -2,-0.896 -2,-2l-0,-22.866c-0,-1.104 0.896,-2 2,-2l22.865,0c1.104,0 2,0.896 2,2Z" style="fill:#222;"/>
        <path d="M1506.27,653.94l-0,22.866c-0,1.104 -0.897,2 -2,2l-22.866,-0c-1.104,-0 -2,-0.896 -2,-2l-0,-22.866c-0,-1.104 0.896,-2 2,-2l22.866,0c1.103,0 2,0.896 2,2Z" style="fill:#222;"/>
        <path d="M1537.61,653.94l-0,22.866c-0,1.104 -0.896,2 -2,2l-22.866,-0c-1.104,-0 -2,-0.896 -2,-2l0,-22.866c0,-1.104 0.896,-2 2,-2l22.866,0c1.104,0 2,0.896 2,2Z" style="fill:#222;"/>
        <path d="M1568.95,653.94l0,22.866c0,1.104 -0.896,2 -2,2l-22.865,-0c-1.104,-0 -2,-0.896 -2,-2l-0,-22.866c-0,-1.104 0.896,-2 2,-2l22.865,0c1.104,0 2,0.896 2,2Z" style="fill:#222;"/>
        <path d="M1600.3,653.94l-0,22.866c-0,1.104 -0.897,2 -2,2l-22.866,-0c-1.104,-0 -2,-0.896 -2,-2l-0,-22.866c-0,-1.104 0.896,-2 2,-2l22.866,0c1.103,0 2,0.896 2,2Z" style="fill:#222;"/>
    </g>
    <g>
        <path d="M754.03,497.224l-0,22.866c-0,1.103 -0.896,2 -2,2l-22.866,-0c-1.104,-0 -2,-0.897 -2,-2l0,-22.866c0,-1.104 0.896,-2 2,-2l22.866,-0c1.104,-0 2,0.896 2,2Z" style="fill:#f44;"/>
        <path d="M1192.84,497.224l-0,22.866c-0,1.103 -0.896,2 -2,2l-22.866,-0c-1.104,-0 -2,-0.897 -2,-2l0,-22.866c0,-1.104 0.896,-2 2,-2l22.866,-0c1.104,-0 2,0.896 2,2Z" style="fill:#f44;"/>
        <path d="M754.03,559.91l-0,22.866c-0,1.104 -0.896,2 -2,2l-22.866,0c-1.104,0 -2,-0.896 -2,-2l0,-22.866c0,-1.103 0.896,-2 2,-2l22.866,0c1.104,0 2,0.897 2,2Z" style="fill:#f44;"/>
        <path d="M1192.84,559.91l-0,22.866c-0,1.104 -0.896,2 -2,2l-22.866,0c-1.104,0 -2,-0.896 -2,-2l0,-22.866c0,-1.103 0.896,-2 2,-2l22.866,0c1.104,0 2,0.897 2,2Z" style="fill:#f44;"/>
    </g>
    <g>
        <path d="M377.91,434.537l0,22.866c0,1.104 -0.896,2 -2,2l-22.865,-0c-1.104,-0 -2,-0.896 -2,-2l-0,-22.866c-0,-1.104 0.896,-2 2,-2l22.865,0c1.104,0 2,0.896 2,2Z" style="fill:#fff;"/>
        <path d="M409.254,434.537l-0,22.866c-0,1.104 -0.896,2 -2,2l-22.866,-0c-1.104,-0 -2,-0.896 -2,-2l0,-22.866c0,-1.104 0.896,-2 2,-2l22.866,0c1.104,0 2,0.896 2,2Z" style="fill:#fff;"/>
        <path d="M440.597,434.537l0,22.866c0,1.104 -0.896,2 -2,2l-22.866,-0c-1.103,-0 -2,-0.896 -2,-2l0,-22.866c0,-1.104 0.897,-2 2,-2l22.866,0c1.104,0 2,0.896 2,2Z" style="fill:#fff;"/>
        <path d="M565.97,434.537l0,22.866c0,1.104 -0.896,2 -2,2l-22.866,-0c-1.103,-0 -2,-0.896 -2,-2l0,-22.866c0,-1.104 0.897,-2 2,-2l22.866,0c1.104,0 2,0.896 2,2Z" style="fill:#fff;"/>
        <path d="M597.313,434.537l0,22.866c0,1.104 -0.896,2 -2,2l-22.865,-0c-1.104,-0 -2,-0.896 -2,-2l-0,-22.866c-0,-1.104 0.896,-2 2,-2l22.865,0c1.104,0 2,0.896 2,2Z" style="fill:#fff;"/>
        <path d="M628.657,434.537l-0,22.866c-0,1.104 -0.896,2 -2,2l-22.866,-0c-1.104,-0 -2,-0.896 -2,-2l0,-22.866c0,-1.104 0.896,-2 2,-2l22.866,0c1.104,0 2,0.896 2,2Z" style="fill:#fff;"/>
        <path d="M660,434.537l0,22.866c0,1.104 -0.896,2 -2,2l-22.866,-0c-1.104,-0 -2,-0.896 -2,-2l0,-22.866c0,-1.104 0.896,-2 2,-2l22.866,0c1.104,0 2,0.896 2,2Z" style="fill:#fff;"/>
        <path d="M910.746,434.537l0,22.866c0,1.104 -0.896,2 -2,2l-22.865,-0c-1.104,-0 -2,-0.896 -2,-2l-0,-22.866c-0,-1.104 0.896,-2 2,-2l22.865,0c1.104,0 2,0.896 2,2Z" style="fill:#fff;"/>
        <path d="M1036.12,434.537l0,22.866c0,1.104 -0.896,2 -2,2l-22.865,-0c-1.104,-0 -2,-0.896 -2,-2l-0,-22.866c-0,-1.104 0.896,-2 2,-2l22.865,0c1.104,0 2,0.896 2,2Z" style="fill:#fff;"/>
        <path d="M1067.46,434.537l-0,22.866c-0,1.104 -0.896,2 -2,2l-22.866,-0c-1.104,-0 -2,-0.896 -2,-2l0,-22.866c0,-1.104 0.896,-2 2,-2l22.866,0c1.104,0 2,0.896 2,2Z" style="fill:#fff;"/>
        <path d="M1098.81,434.537l-0,22.866c-0,1.104 -0.896,2 -2,2l-22.866,-0c-1.104,-0 -2,-0.896 -2,-2l0,-22.866c0,-1.104 0.896,-2 2,-2l22.866,0c1.104,0 2,0.896 2,2Z" style="fill:#fff;"/>
        <path d="M1255.52,434.537l0,22.866c0,1.104 -0.896,2 -2,2l-22.865,-0c-1.104,-0 -2,-0.896 -2,-2l-0,-22.866c-0,-1.104 0.896,-2 2,-2l22.865,0c1.104,0 2,0.896 2,2Z" style="fill:#fff;"/>
        <path d="M1286.87,434.537l-0,22.866c-0,1.104 -0.896,2 -2,2l-22.866,-0c-1.104,-0 -2,-0.896 -2,-2l0,-22.866c0,-1.104 0.896,-2 2,-2l22.866,0c1.104,0 2,0.896 2,2Z" style="fill:#fff;"/>
        <path d="M1318.21,434.537l-0,22.866c-0,1.104 -0.896,2 -2,2l-22.866,-0c-1.104,-0 -2,-0.896 -2,-2l0,-22.866c0,-1.104 0.896,-2 2,-2l22.866,0c1.104,0 2,0.896 2,2Z" style="fill:#fff;"/>
        <path d="M1349.55,434.537l0,22.866c0,1.104 -0.896,2 -2,2l-22.865,-0c-1.104,-0 -2,-0.896 -2,-2l-0,-22.866c-0,-1.104 0.896,-2 2,-2l22.865,0c1.104,0 2,0.896 2,2Z" style="fill:#fff;"/>
        <path d="M1443.58,434.537l0,22.866c0,1.104 -0.896,2 -2,2l-22.866,-0c-1.103,-0 -2,-0.896 -2,-2l0,-22.866c0,-1.104 0.897,-2 2,-2l22.866,0c1.104,0 2,0.896 2,2Z" style="fill:#fff;"/>
        <path d="M1474.92,434.537l0,22.866c0,1.104 -0.896,2 -2,2l-22.865,-0c-1.104,-0 -2,-0.896 -2,-2l-0,-22.866c-0,-1.104 0.896,-2 2,-2l22.865,0c1.104,0 2,0.896 2,2Z" style="fill:#fff;"/>
        <path d="M1506.27,434.537l-0,22.866c-0,1.104 -0.897,2 -2,2l-22.866,-0c-1.104,-0 -2,-0.896 -2,-2l-0,-22.866c-0,-1.104 0.896,-2 2,-2l22.866,0c1.103,0 2,0.896 2,2Z" style="fill:#fff;"/>
        <path d="M1537.61,434.537l-0,22.866c-0,1.104 -0.896,2 -2,2l-22.866,-0c-1.104,-0 -2,-0.896 -2,-2l0,-22.866c0,-1.104 0.896,-2 2,-2l22.866,0c1.104,0 2,0.896 2,2Z" style="fill:#fff;"/>
        <path d="M1568.95,434.537l0,22.866c0,1.104 -0.896,2 -2,2l-22.865,-0c-1.104,-0 -2,-0.896 -2,-2l-0,-22.866c-0,-1.104 0.896,-2 2,-2l22.865,0c1.104,0 2,0.896 2,2Z" style="fill:#fff;"/>
        <path d="M440.597,465.881l0,22.865c0,1.104 -0.896,2 -2,2l-22.866,0c-1.103,0 -2,-0.896 -2,-2l0,-22.865c0,-1.104 0.897,-2 2,-2l22.866,-0c1.104,-0 2,0.896 2,2Z" style="fill:#fff;"/>
        <path d="M691.343,465.881l0,22.865c0,1.104 -0.896,2 -2,2l-22.865,0c-1.104,0 -2,-0.896 -2,-2l-0,-22.865c-0,-1.104 0.896,-2 2,-2l22.865,-0c1.104,-0 2,0.896 2,2Z" style="fill:#fff;"/>
        <path d="M816.716,465.881l0,22.865c0,1.104 -0.896,2 -2,2l-22.865,0c-1.104,0 -2,-0.896 -2,-2l-0,-22.865c-0,-1.104 0.896,-2 2,-2l22.865,-0c1.104,-0 2,0.896 2,2Z" style="fill:#fff;"/>
        <path d="M910.746,465.881l0,22.865c0,1.104 -0.896,2 -2,2l-22.865,0c-1.104,0 -2,-0.896 -2,-2l-0,-22.865c-0,-1.104 0.896,-2 2,-2l22.865,-0c1.104,-0 2,0.896 2,2Z" style="fill:#fff;"/>
        <path d="M1004.78,465.881l0,22.865c0,1.104 -0.896,2 -2,2l-22.866,0c-1.103,0 -2,-0.896 -2,-2l0,-22.865c0,-1.104 0.897,-2 2,-2l22.866,-0c1.104,-0 2,0.896 2,2Z" style="fill:#fff;"/>
        <path d="M1130.15,465.881l0,22.865c0,1.104 -0.896,2 -2,2l-22.865,0c-1.104,0 -2,-0.896 -2,-2l-0,-22.865c-0,-1.104 0.896,-2 2,-2l22.865,-0c1.104,-0 2,0.896 2,2Z" style="fill:#fff;"/>
        <path d="M1380.9,465.881l-0,22.865c-0,1.104 -0.897,2 -2,2l-22.866,0c-1.104,0 -2,-0.896 -2,-2l-0,-22.865c-0,-1.104 0.896,-2 2,-2l22.866,-0c1.103,-0 2,0.896 2,2Z" style="fill:#fff;"/>
        <path d="M1568.95,465.881l0,22.865c0,1.104 -0.896,2 -2,2l-22.865,0c-1.104,0 -2,-0.896 -2,-2l-0,-22.865c-0,-1.104 0.896,-2 2,-2l22.865,-0c1.104,-0 2,0.896 2,2Z" style="fill:#fff;"/>
        <path d="M440.597,497.224l0,22.866c0,1.103 -0.896,2 -2,2l-22.866,-0c-1.103,-0 -2,-0.897 -2,-2l0,-22.866c0,-1.104 0.897,-2 2,-2l22.866,-0c1.104,-0 2,0.896 2,2Z" style="fill:#fff;"/>
        <path d="M691.343,497.224l0,22.866c0,1.103 -0.896,2 -2,2l-22.865,-0c-1.104,-0 -2,-0.897 -2,-2l-0,-22.866c-0,-1.104 0.896,-2 2,-2l22.865,-0c1.104,-0 2,0.896 2,2Z" style="fill:#fff;"/>
        <path d="M816.716,497.224l0,22.866c0,1.103 -0.896,2 -2,2l-22.865,-0c-1.104,-0 -2,-0.897 -2,-2l-0,-22.866c-0,-1.104 0.896,-2 2,-2l22.865,-0c1.104,-0 2,0.896 2,2Z" style="fill:#fff;"/>
        <path d="M910.746,497.224l0,22.866c0,1.103 -0.896,2 -2,2l-22.865,-0c-1.104,-0 -2,-0.897 -2,-2l-0,-22.866c-0,-1.104 0.896,-2 2,-2l22.865,-0c1.104,-0 2,0.896 2,2Z" style="fill:#fff;"/>
        <path d="M1004.78,497.224l0,22.866c0,1.103 -0.896,2 -2,2l-22.866,-0c-1.103,-0 -2,-0.897 -2,-2l0,-22.866c0,-1.104 0.897,-2 2,-2l22.866,-0c1.104,-0 2,0.896 2,2Z" style="fill:#fff;"/>
        <path d="M1130.15,497.224l0,22.866c0,1.103 -0.896,2 -2,2l-22.865,-0c-1.104,-0 -2,-0.897 -2,-2l-0,-22.866c-0,-1.104 0.896,-2 2,-2l22.865,-0c1.104,-0 2,0.896 2,2Z" style="fill:#fff;"/>
        <path d="M1380.9,497.224l-0,22.866c-0,1.103 -0.897,2 -2,2l-22.866,-0c-1.104,-0 -2,-0.897 -2,-2l-0,-22.866c-0,-1.104 0.896,-2 2,-2l22.866,-0c1.103,-0 2,0.896 2,2Z" style="fill:#fff;"/>
        <path d="M1537.61,497.224l-0,22.866c-0,1.103 -0.896,2 -2,2l-22.866,-0c-1.104,-0 -2,-0.897 -2,-2l0,-22.866c0,-1.104 0.896,-2 2,-2l22.866,-0c1.104,-0 2,0.896 2,2Z" style="fill:#fff;"/>
        <path d="M440.597,528.567l0,22.866c0,1.104 -0.896,2 -2,2l-22.866,-0c-1.103,-0 -2,-0.896 -2,-2l0,-22.866c0,-1.104 0.897,-2 2,-2l22.866,0c1.104,0 2,0.896 2,2Z" style="fill:#fff;"/>
        <path d="M597.313,528.567l0,22.866c0,1.104 -0.896,2 -2,2l-22.865,-0c-1.104,-0 -2,-0.896 -2,-2l-0,-22.866c-0,-1.104 0.896,-2 2,-2l22.865,0c1.104,0 2,0.896 2,2Z" style="fill:#fff;"/>
        <path d="M628.657,528.567l-0,22.866c-0,1.104 -0.896,2 -2,2l-22.866,-0c-1.104,-0 -2,-0.896 -2,-2l0,-22.866c0,-1.104 0.896,-2 2,-2l22.866,0c1.104,0 2,0.896 2,2Z" style="fill:#fff;"/>
        <path d="M660,528.567l0,22.866c0,1.104 -0.896,2 -2,2l-22.866,-0c-1.104,-0 -2,-0.896 -2,-2l0,-22.866c0,-1.104 0.896,-2 2,-2l22.866,0c1.104,0 2,0.896 2,2Z" style="fill:#fff;"/>
        <path d="M816.716,528.567l0,22.866c0,1.104 -0.896,2 -2,2l-22.865,-0c-1.104,-0 -2,-0.896 -2,-2l-0,-22.866c-0,-1.104 0.896,-2 2,-2l22.865,0c1.104,0 2,0.896 2,2Z" style="fill:#fff;"/>
        <path d="M848.06,528.567l-0,22.866c-0,1.104 -0.896,2 -2,2l-22.866,-0c-1.104,-0 -2,-0.896 -2,-2l0,-22.866c0,-1.104 0.896,-2 2,-2l22.866,0c1.104,0 2,0.896 2,2Z" style="fill:#fff;"/>
        <path d="M879.403,528.567l-0,22.866c-0,1.104 -0.896,2 -2,2l-22.866,-0c-1.104,-0 -2,-0.896 -2,-2l0,-22.866c0,-1.104 0.896,-2 2,-2l22.866,0c1.104,0 2,0.896 2,2Z" style="fill:#fff;"/>
        <path d="M910.746,528.567l0,22.866c0,1.104 -0.896,2 -2,2l-22.865,-0c-1.104,-0 -2,-0.896 -2,-2l-0,-22.866c-0,-1.104 0.896,-2 2,-2l22.865,0c1.104,0 2,0.896 2,2Z" style="fill:#fff;"/>
        <path d="M942.09,528.567l-0,22.866c-0,1.104 -0.897,2 -2,2l-22.866,-0c-1.104,-0 -2,-0.896 -2,-2l-0,-22.866c-0,-1.104 0.896,-2 2,-2l22.866,0c1.103,0 2,0.896 2,2Z" style="fill:#fff;"/>
        <path d="M1036.12,528.567l0,22.866c0,1.104 -0.896,2 -2,2l-22.865,-0c-1.104,-0 -2,-0.896 -2,-2l-0,-22.866c-0,-1.104 0.896,-2 2,-2l22.865,0c1.104,0 2,0.896 2,2Z" style="fill:#fff;"/>
        <path d="M1067.46,528.567l-0,22.866c-0,1.104 -0.896,2 -2,2l-22.866,-0c-1.104,-0 -2,-0.896 -2,-2l0,-22.866c0,-1.104 0.896,-2 2,-2l22.866,0c1.104,0 2,0.896 2,2Z" style="fill:#fff;"/>
        <path d="M1098.81,528.567l-0,22.866c-0,1.104 -0.896,2 -2,2l-22.866,-0c-1.104,-0 -2,-0.896 -2,-2l0,-22.866c0,-1.104 0.896,-2 2,-2l22.866,0c1.104,0 2,0.896 2,2Z" style="fill:#fff;"/>
        <path d="M1286.87,528.567l-0,22.866c-0,1.104 -0.896,2 -2,2l-22.866,-0c-1.104,-0 -2,-0.896 -2,-2l0,-22.866c0,-1.104 0.896,-2 2,-2l22.866,0c1.104,0 2,0.896 2,2Z" style="fill:#fff;"/>
        <path d="M1318.21,528.567l-0,22.866c-0,1.104 -0.896,2 -2,2l-22.866,-0c-1.104,-0 -2,-0.896 -2,-2l0,-22.866c0,-1.104 0.896,-2 2,-2l22.866,0c1.104,0 2,0.896 2,2Z" style="fill:#fff;"/>
        <path d="M1349.55,528.567l0,22.866c0,1.104 -0.896,2 -2,2l-22.865,-0c-1.104,-0 -2,-0.896 -2,-2l-0,-22.866c-0,-1.104 0.896,-2 2,-2l22.865,0c1.104,0 2,0.896 2,2Z" style="fill:#fff;"/>
        <path d="M1506.27,528.567l-0,22.866c-0,1.104 -0.897,2 -2,2l-22.866,-0c-1.104,-0 -2,-0.896 -2,-2l-0,-22.866c-0,-1.104 0.896,-2 2,-2l22.866,0c1.103,0 2,0.896 2,2Z" style="fill:#fff;"/>
        <path d="M440.597,559.91l0,22.866c0,1.104 -0.896,2 -2,2l-22.866,0c-1.103,0 -2,-0.896 -2,-2l0,-22.866c0,-1.103 0.897,-2 2,-2l22.866,0c1.104,0 2,0.897 2,2Z" style="fill:#fff;"/>
        <path d="M691.343,559.91l0,22.866c0,1.104 -0.896,2 -2,2l-22.865,0c-1.104,0 -2,-0.896 -2,-2l-0,-22.866c-0,-1.103 0.896,-2 2,-2l22.865,0c1.104,0 2,0.897 2,2Z" style="fill:#fff;"/>
        <path d="M910.746,559.91l0,22.866c0,1.104 -0.896,2 -2,2l-22.865,0c-1.104,0 -2,-0.896 -2,-2l-0,-22.866c-0,-1.103 0.896,-2 2,-2l22.865,0c1.104,0 2,0.897 2,2Z" style="fill:#fff;"/>
        <path d="M1004.78,559.91l0,22.866c0,1.104 -0.896,2 -2,2l-22.866,0c-1.103,0 -2,-0.896 -2,-2l0,-22.866c0,-1.103 0.897,-2 2,-2l22.866,0c1.104,0 2,0.897 2,2Z" style="fill:#fff;"/>
        <path d="M1130.15,559.91l0,22.866c0,1.104 -0.896,2 -2,2l-22.865,0c-1.104,0 -2,-0.896 -2,-2l-0,-22.866c-0,-1.103 0.896,-2 2,-2l22.865,0c1.104,0 2,0.897 2,2Z" style="fill:#fff;"/>
        <path d="M1255.52,559.91l0,22.866c0,1.104 -0.896,2 -2,2l-22.865,0c-1.104,0 -2,-0.896 -2,-2l-0,-22.866c-0,-1.103 0.896,-2 2,-2l22.865,0c1.104,0 2,0.897 2,2Z" style="fill:#fff;"/>
        <path d="M1506.27,559.91l-0,22.866c-0,1.104 -0.897,2 -2,2l-22.866,0c-1.104,0 -2,-0.896 -2,-2l-0,-22.866c-0,-1.103 0.896,-2 2,-2l22.866,0c1.103,0 2,0.897 2,2Z" style="fill:#fff;"/>
        <path d="M440.597,591.254l0,22.865c0,1.104 -0.896,2 -2,2l-22.866,0c-1.103,0 -2,-0.896 -2,-2l0,-22.865c0,-1.104 0.897,-2 2,-2l22.866,-0c1.104,-0 2,0.896 2,2Z" style="fill:#fff;"/>
        <path d="M691.343,591.254l0,22.865c0,1.104 -0.896,2 -2,2l-22.865,0c-1.104,0 -2,-0.896 -2,-2l-0,-22.865c-0,-1.104 0.896,-2 2,-2l22.865,-0c1.104,-0 2,0.896 2,2Z" style="fill:#fff;"/>
        <path d="M910.746,591.254l0,22.865c0,1.104 -0.896,2 -2,2l-22.865,0c-1.104,0 -2,-0.896 -2,-2l-0,-22.865c-0,-1.104 0.896,-2 2,-2l22.865,-0c1.104,-0 2,0.896 2,2Z" style="fill:#fff;"/>
        <path d="M1004.78,591.254l0,22.865c0,1.104 -0.896,2 -2,2l-22.866,0c-1.103,0 -2,-0.896 -2,-2l0,-22.865c0,-1.104 0.897,-2 2,-2l22.866,-0c1.104,-0 2,0.896 2,2Z" style="fill:#fff;"/>
        <path d="M1130.15,591.254l0,22.865c0,1.104 -0.896,2 -2,2l-22.865,0c-1.104,0 -2,-0.896 -2,-2l-0,-22.865c-0,-1.104 0.896,-2 2,-2l22.865,-0c1.104,-0 2,0.896 2,2Z" style="fill:#fff;"/>
        <path d="M1255.52,591.254l0,22.865c0,1.104 -0.896,2 -2,2l-22.865,0c-1.104,0 -2,-0.896 -2,-2l-0,-22.865c-0,-1.104 0.896,-2 2,-2l22.865,-0c1.104,-0 2,0.896 2,2Z" style="fill:#fff;"/>
        <path d="M1506.27,591.254l-0,22.865c-0,1.104 -0.897,2 -2,2l-22.866,0c-1.104,0 -2,-0.896 -2,-2l-0,-22.865c-0,-1.104 0.896,-2 2,-2l22.866,-0c1.103,-0 2,0.896 2,2Z" style="fill:#fff;"/>
        <path d="M377.91,622.597l0,22.866c0,1.104 -0.896,2 -2,2l-22.865,-0c-1.104,-0 -2,-0.896 -2,-2l-0,-22.866c-0,-1.104 0.896,-2 2,-2l22.865,0c1.104,0 2,0.896 2,2Z" style="fill:#fff;"/>
        <path d="M409.254,622.597l-0,22.866c-0,1.104 -0.896,2 -2,2l-22.866,-0c-1.104,-0 -2,-0.896 -2,-2l0,-22.866c0,-1.104 0.896,-2 2,-2l22.866,0c1.104,0 2,0.896 2,2Z" style="fill:#fff;"/>
        <path d="M440.597,622.597l0,22.866c0,1.104 -0.896,2 -2,2l-22.866,-0c-1.103,-0 -2,-0.896 -2,-2l0,-22.866c0,-1.104 0.897,-2 2,-2l22.866,0c1.104,0 2,0.896 2,2Z" style="fill:#fff;"/>
        <path d="M471.94,622.597l0,22.866c0,1.104 -0.896,2 -2,2l-22.865,-0c-1.104,-0 -2,-0.896 -2,-2l-0,-22.866c-0,-1.104 0.896,-2 2,-2l22.865,0c1.104,0 2,0.896 2,2Z" style="fill:#fff;"/>
        <path d="M503.284,622.597l-0,22.866c-0,1.104 -0.897,2 -2,2l-22.866,-0c-1.104,-0 -2,-0.896 -2,-2l-0,-22.866c-0,-1.104 0.896,-2 2,-2l22.866,0c1.103,0 2,0.896 2,2Z" style="fill:#fff;"/>
        <path d="M565.97,622.597l0,22.866c0,1.104 -0.896,2 -2,2l-22.866,-0c-1.103,-0 -2,-0.896 -2,-2l0,-22.866c0,-1.104 0.897,-2 2,-2l22.866,0c1.104,0 2,0.896 2,2Z" style="fill:#fff;"/>
        <path d="M597.313,622.597l0,22.866c0,1.104 -0.896,2 -2,2l-22.865,-0c-1.104,-0 -2,-0.896 -2,-2l-0,-22.866c-0,-1.104 0.896,-2 2,-2l22.865,0c1.104,0 2,0.896 2,2Z" style="fill:#fff;"/>
        <path d="M628.657,622.597l-0,22.866c-0,1.104 -0.896,2 -2,2l-22.866,-0c-1.104,-0 -2,-0.896 -2,-2l0,-22.866c0,-1.104 0.896,-2 2,-2l22.866,0c1.104,0 2,0.896 2,2Z" style="fill:#fff;"/>
        <path d="M660,622.597l0,22.866c0,1.104 -0.896,2 -2,2l-22.866,-0c-1.104,-0 -2,-0.896 -2,-2l0,-22.866c0,-1.104 0.896,-2 2,-2l22.866,0c1.104,0 2,0.896 2,2Z" style="fill:#fff;"/>
        <path d="M910.746,622.597l0,22.866c0,1.104 -0.896,2 -2,2l-22.865,-0c-1.104,-0 -2,-0.896 -2,-2l-0,-22.866c-0,-1.104 0.896,-2 2,-2l22.865,0c1.104,0 2,0.896 2,2Z" style="fill:#fff;"/>
        <path d="M1036.12,622.597l0,22.866c0,1.104 -0.896,2 -2,2l-22.865,-0c-1.104,-0 -2,-0.896 -2,-2l-0,-22.866c-0,-1.104 0.896,-2 2,-2l22.865,0c1.104,0 2,0.896 2,2Z" style="fill:#fff;"/>
        <path d="M1067.46,622.597l-0,22.866c-0,1.104 -0.896,2 -2,2l-22.866,-0c-1.104,-0 -2,-0.896 -2,-2l0,-22.866c0,-1.104 0.896,-2 2,-2l22.866,0c1.104,0 2,0.896 2,2Z" style="fill:#fff;"/>
        <path d="M1098.81,622.597l-0,22.866c-0,1.104 -0.896,2 -2,2l-22.866,-0c-1.104,-0 -2,-0.896 -2,-2l0,-22.866c0,-1.104 0.896,-2 2,-2l22.866,0c1.104,0 2,0.896 2,2Z" style="fill:#fff;"/>
        <path d="M1255.52,622.597l0,22.866c0,1.104 -0.896,2 -2,2l-22.865,-0c-1.104,-0 -2,-0.896 -2,-2l-0,-22.866c-0,-1.104 0.896,-2 2,-2l22.865,0c1.104,0 2,0.896 2,2Z" style="fill:#fff;"/>
        <path d="M1286.87,622.597l-0,22.866c-0,1.104 -0.896,2 -2,2l-22.866,-0c-1.104,-0 -2,-0.896 -2,-2l0,-22.866c0,-1.104 0.896,-2 2,-2l22.866,0c1.104,0 2,0.896 2,2Z" style="fill:#fff;"/>
        <path d="M1318.21,622.597l-0,22.866c-0,1.104 -0.896,2 -2,2l-22.866,-0c-1.104,-0 -2,-0.896 -2,-2l0,-22.866c0,-1.104 0.896,-2 2,-2l22.866,0c1.104,0 2,0.896 2,2Z" style="fill:#fff;"/>
        <path d="M1349.55,622.597l0,22.866c0,1.104 -0.896,2 -2,2l-22.865,-0c-1.104,-0 -2,-0.896 -2,-2l-0,-22.866c-0,-1.104 0.896,-2 2,-2l22.865,0c1.104,0 2,0.896 2,2Z" style="fill:#fff;"/>
        <path d="M1380.9,622.597l-0,22.866c-0,1.104 -0.897,2 -2,2l-22.866,-0c-1.104,-0 -2,-0.896 -2,-2l-0,-22.866c-0,-1.104 0.896,-2 2,-2l22.866,0c1.103,0 2,0.896 2,2Z" style="fill:#fff;"/>
        <path d="M1506.27,622.597l-0,22.866c-0,1.104 -0.897,2 -2,2l-22.866,-0c-1.104,-0 -2,-0.896 -2,-2l-0,-22.866c-0,-1.104 0.896,-2 2,-2l22.866,0c1.103,0 2,0.896 2,2Z" style="fill:#fff;"/>
    </g>
    <path d="M1611.49,402l-0,276c-0,6.623 -5.377,12 -12,12l-1278.99,-0c-6.623,-0 -12,-5.377 -12,-12l0,-276c0,-6.623 5.377,-12 12,-12l1278.99,-0c6.623,-0 12,5.377 12,12Zm-5,-0c-0,-3.863 -3.137,-7 -7,-7l-1278.99,-0c-3.863,-0 -7,3.137 -7,7l0,276c0,3.863 3.137,7 7,7l1278.99,-0c3.863,-0 7,-3.137 7,-7l-0,-276Z" style="fill:#222;"/>
</svg>
