<?xml version="1.0" encoding="UTF-8" standalone="no"?>
<svg
   width="100%"
   height="100%"
   viewBox="0 0 1920 1080"
   version="1.1"
   xml:space="preserve"
   style="fill-rule:evenodd;clip-rule:evenodd;stroke-linejoin:round;stroke-miterlimit:2;"
   id="svg370"
   sodipodi:docname="Matrix.svg"
   inkscape:version="1.3.2 (091e20ef0f, 2023-11-25, custom)"
   xmlns:inkscape="http://www.inkscape.org/namespaces/inkscape"
   xmlns:sodipodi="http://sodipodi.sourceforge.net/DTD/sodipodi-0.dtd"
   xmlns="http://www.w3.org/2000/svg"
   xmlns:svg="http://www.w3.org/2000/svg"><defs
   id="defs370" /><sodipodi:namedview
   id="namedview370"
   pagecolor="#505050"
   bordercolor="#eeeeee"
   borderopacity="1"
   inkscape:showpageshadow="0"
   inkscape:pageopacity="0"
   inkscape:pagecheckerboard="0"
   inkscape:deskcolor="#505050"
   inkscape:zoom="2.162963"
   inkscape:cx="854.1524"
   inkscape:cy="573.28767"
   inkscape:window-width="3440"
   inkscape:window-height="1368"
   inkscape:window-x="0"
   inkscape:window-y="0"
   inkscape:window-maximized="1"
   inkscape:current-layer="g369" />
    <rect
   id="Matrix"
   x="0"
   y="0"
   width="1920"
   height="1080"
   style="fill:none;" />
    <g
   id="g280">
        <path
   d="M346.567,403.194l0,22.866c0,1.104 -0.896,2 -2,2l-22.866,-0c-1.103,-0 -2,-0.896 -2,-2l0,-22.866c0,-1.104 0.897,-2 2,-2l22.866,0c1.104,0 2,0.896 2,2Z"
   style="fill:#222;"
   id="path1" />
        <path
   d="M377.91,403.194l0,22.866c0,1.104 -0.896,2 -2,2l-22.865,-0c-1.104,-0 -2,-0.896 -2,-2l-0,-22.866c-0,-1.104 0.896,-2 2,-2l22.865,0c1.104,0 2,0.896 2,2Z"
   style="fill:#222;"
   id="path2" />
        <path
   d="M409.254,403.194l-0,22.866c-0,1.104 -0.896,2 -2,2l-22.866,-0c-1.104,-0 -2,-0.896 -2,-2l0,-22.866c0,-1.104 0.896,-2 2,-2l22.866,0c1.104,0 2,0.896 2,2Z"
   style="fill:#222;"
   id="path3" />
        <path
   d="M440.597,403.194l0,22.866c0,1.104 -0.896,2 -2,2l-22.866,-0c-1.103,-0 -2,-0.896 -2,-2l0,-22.866c0,-1.104 0.897,-2 2,-2l22.866,0c1.104,0 2,0.896 2,2Z"
   style="fill:#222;"
   id="path4" />
        <path
   d="M471.94,403.194l0,22.866c0,1.104 -0.896,2 -2,2l-22.865,-0c-1.104,-0 -2,-0.896 -2,-2l-0,-22.866c-0,-1.104 0.896,-2 2,-2l22.865,0c1.104,0 2,0.896 2,2Z"
   style="fill:#222;"
   id="path5" />
        <path
   d="M503.284,403.194l-0,22.866c-0,1.104 -0.897,2 -2,2l-22.866,-0c-1.104,-0 -2,-0.896 -2,-2l-0,-22.866c-0,-1.104 0.896,-2 2,-2l22.866,0c1.103,0 2,0.896 2,2Z"
   style="fill:#222;"
   id="path6" />
        <path
   d="M534.627,403.194l-0,22.866c-0,1.104 -0.896,2 -2,2l-22.866,-0c-1.104,-0 -2,-0.896 -2,-2l0,-22.866c0,-1.104 0.896,-2 2,-2l22.866,0c1.104,0 2,0.896 2,2Z"
   style="fill:#222;"
   id="path7" />
        <path
   d="M565.97,403.194l0,22.866c0,1.104 -0.896,2 -2,2l-22.866,-0c-1.103,-0 -2,-0.896 -2,-2l0,-22.866c0,-1.104 0.897,-2 2,-2l22.866,0c1.104,0 2,0.896 2,2Z"
   style="fill:#222;"
   id="path8" />
        <path
   d="M597.313,403.194l0,22.866c0,1.104 -0.896,2 -2,2l-22.865,-0c-1.104,-0 -2,-0.896 -2,-2l-0,-22.866c-0,-1.104 0.896,-2 2,-2l22.865,0c1.104,0 2,0.896 2,2Z"
   style="fill:#222;"
   id="path9" />
        <path
   d="M628.657,403.194l-0,22.866c-0,1.104 -0.896,2 -2,2l-22.866,-0c-1.104,-0 -2,-0.896 -2,-2l0,-22.866c0,-1.104 0.896,-2 2,-2l22.866,0c1.104,0 2,0.896 2,2Z"
   style="fill:#222;"
   id="path10" />
        <path
   d="M660,403.194l0,22.866c0,1.104 -0.896,2 -2,2l-22.866,-0c-1.104,-0 -2,-0.896 -2,-2l0,-22.866c0,-1.104 0.896,-2 2,-2l22.866,0c1.104,0 2,0.896 2,2Z"
   style="fill:#222;"
   id="path11" />
        <path
   d="M691.343,403.194l0,22.866c0,1.104 -0.896,2 -2,2l-22.865,-0c-1.104,-0 -2,-0.896 -2,-2l-0,-22.866c-0,-1.104 0.896,-2 2,-2l22.865,0c1.104,0 2,0.896 2,2Z"
   style="fill:#222;"
   id="path12" />
        <path
   d="M722.687,403.194l-0,22.866c-0,1.104 -0.897,2 -2,2l-22.866,-0c-1.104,-0 -2,-0.896 -2,-2l-0,-22.866c-0,-1.104 0.896,-2 2,-2l22.866,0c1.103,0 2,0.896 2,2Z"
   style="fill:#222;"
   id="path13" />
        <path
   d="M754.03,403.194l-0,22.866c-0,1.104 -0.896,2 -2,2l-22.866,-0c-1.104,-0 -2,-0.896 -2,-2l0,-22.866c0,-1.104 0.896,-2 2,-2l22.866,0c1.104,0 2,0.896 2,2Z"
   style="fill:#222;"
   id="path14" />
        <path
   d="M785.373,403.194l0,22.866c0,1.104 -0.896,2 -2,2l-22.866,-0c-1.103,-0 -2,-0.896 -2,-2l0,-22.866c0,-1.104 0.897,-2 2,-2l22.866,0c1.104,0 2,0.896 2,2Z"
   style="fill:#222;"
   id="path15" />
        <path
   d="M816.716,403.194l0,22.866c0,1.104 -0.896,2 -2,2l-22.865,-0c-1.104,-0 -2,-0.896 -2,-2l-0,-22.866c-0,-1.104 0.896,-2 2,-2l22.865,0c1.104,0 2,0.896 2,2Z"
   style="fill:#222;"
   id="path16" />
        <path
   d="M848.06,403.194l-0,22.866c-0,1.104 -0.896,2 -2,2l-22.866,-0c-1.104,-0 -2,-0.896 -2,-2l0,-22.866c0,-1.104 0.896,-2 2,-2l22.866,0c1.104,0 2,0.896 2,2Z"
   style="fill:#222;"
   id="path17" />
        <path
   d="M879.403,403.194l-0,22.866c-0,1.104 -0.896,2 -2,2l-22.866,-0c-1.104,-0 -2,-0.896 -2,-2l0,-22.866c0,-1.104 0.896,-2 2,-2l22.866,0c1.104,0 2,0.896 2,2Z"
   style="fill:#222;"
   id="path18" />
        <path
   d="M910.746,403.194l0,22.866c0,1.104 -0.896,2 -2,2l-22.865,-0c-1.104,-0 -2,-0.896 -2,-2l-0,-22.866c-0,-1.104 0.896,-2 2,-2l22.865,0c1.104,0 2,0.896 2,2Z"
   style="fill:#222;"
   id="path19" />
        <path
   d="M942.09,403.194l-0,22.866c-0,1.104 -0.897,2 -2,2l-22.866,-0c-1.104,-0 -2,-0.896 -2,-2l-0,-22.866c-0,-1.104 0.896,-2 2,-2l22.866,0c1.103,0 2,0.896 2,2Z"
   style="fill:#222;"
   id="path20" />
        <path
   d="M973.433,403.194l-0,22.866c-0,1.104 -0.896,2 -2,2l-22.866,-0c-1.104,-0 -2,-0.896 -2,-2l0,-22.866c0,-1.104 0.896,-2 2,-2l22.866,0c1.104,0 2,0.896 2,2Z"
   style="fill:#222;"
   id="path21" />
        <path
   d="M1004.78,403.194l0,22.866c0,1.104 -0.896,2 -2,2l-22.866,-0c-1.103,-0 -2,-0.896 -2,-2l0,-22.866c0,-1.104 0.897,-2 2,-2l22.866,0c1.104,0 2,0.896 2,2Z"
   style="fill:#222;"
   id="path22" />
        <path
   d="M1036.12,403.194l0,22.866c0,1.104 -0.896,2 -2,2l-22.865,-0c-1.104,-0 -2,-0.896 -2,-2l-0,-22.866c-0,-1.104 0.896,-2 2,-2l22.865,0c1.104,0 2,0.896 2,2Z"
   style="fill:#222;"
   id="path23" />
        <path
   d="M1067.46,403.194l-0,22.866c-0,1.104 -0.896,2 -2,2l-22.866,-0c-1.104,-0 -2,-0.896 -2,-2l0,-22.866c0,-1.104 0.896,-2 2,-2l22.866,0c1.104,0 2,0.896 2,2Z"
   style="fill:#222;"
   id="path24" />
        <path
   d="M1098.81,403.194l-0,22.866c-0,1.104 -0.896,2 -2,2l-22.866,-0c-1.104,-0 -2,-0.896 -2,-2l0,-22.866c0,-1.104 0.896,-2 2,-2l22.866,0c1.104,0 2,0.896 2,2Z"
   style="fill:#222;"
   id="path25" />
        <path
   d="M1130.15,403.194l0,22.866c0,1.104 -0.896,2 -2,2l-22.865,-0c-1.104,-0 -2,-0.896 -2,-2l-0,-22.866c-0,-1.104 0.896,-2 2,-2l22.865,0c1.104,0 2,0.896 2,2Z"
   style="fill:#222;"
   id="path26" />
        <path
   d="M1161.49,403.194l-0,22.866c-0,1.104 -0.897,2 -2,2l-22.866,-0c-1.104,-0 -2,-0.896 -2,-2l-0,-22.866c-0,-1.104 0.896,-2 2,-2l22.866,0c1.103,0 2,0.896 2,2Z"
   style="fill:#222;"
   id="path27" />
        <path
   d="M1192.84,403.194l-0,22.866c-0,1.104 -0.896,2 -2,2l-22.866,-0c-1.104,-0 -2,-0.896 -2,-2l0,-22.866c0,-1.104 0.896,-2 2,-2l22.866,0c1.104,0 2,0.896 2,2Z"
   style="fill:#222;"
   id="path28" />
        <path
   d="M1224.18,403.194l0,22.866c0,1.104 -0.896,2 -2,2l-22.866,-0c-1.103,-0 -2,-0.896 -2,-2l0,-22.866c0,-1.104 0.897,-2 2,-2l22.866,0c1.104,0 2,0.896 2,2Z"
   style="fill:#222;"
   id="path29" />
        <path
   d="M1255.52,403.194l0,22.866c0,1.104 -0.896,2 -2,2l-22.865,-0c-1.104,-0 -2,-0.896 -2,-2l-0,-22.866c-0,-1.104 0.896,-2 2,-2l22.865,0c1.104,0 2,0.896 2,2Z"
   style="fill:#222;"
   id="path30" />
        <path
   d="M1286.87,403.194l-0,22.866c-0,1.104 -0.896,2 -2,2l-22.866,-0c-1.104,-0 -2,-0.896 -2,-2l0,-22.866c0,-1.104 0.896,-2 2,-2l22.866,0c1.104,0 2,0.896 2,2Z"
   style="fill:#222;"
   id="path31" />
        <path
   d="M1318.21,403.194l-0,22.866c-0,1.104 -0.896,2 -2,2l-22.866,-0c-1.104,-0 -2,-0.896 -2,-2l0,-22.866c0,-1.104 0.896,-2 2,-2l22.866,0c1.104,0 2,0.896 2,2Z"
   style="fill:#222;"
   id="path32" />
        <path
   d="M1349.55,403.194l0,22.866c0,1.104 -0.896,2 -2,2l-22.865,-0c-1.104,-0 -2,-0.896 -2,-2l-0,-22.866c-0,-1.104 0.896,-2 2,-2l22.865,0c1.104,0 2,0.896 2,2Z"
   style="fill:#222;"
   id="path33" />
        <path
   d="M1380.9,403.194l-0,22.866c-0,1.104 -0.897,2 -2,2l-22.866,-0c-1.104,-0 -2,-0.896 -2,-2l-0,-22.866c-0,-1.104 0.896,-2 2,-2l22.866,0c1.103,0 2,0.896 2,2Z"
   style="fill:#222;"
   id="path34" />
        <path
   d="M1412.24,403.194l-0,22.866c-0,1.104 -0.896,2 -2,2l-22.866,-0c-1.104,-0 -2,-0.896 -2,-2l0,-22.866c0,-1.104 0.896,-2 2,-2l22.866,0c1.104,0 2,0.896 2,2Z"
   style="fill:#222;"
   id="path35" />
        <path
   d="M1443.58,403.194l0,22.866c0,1.104 -0.896,2 -2,2l-22.866,-0c-1.103,-0 -2,-0.896 -2,-2l0,-22.866c0,-1.104 0.897,-2 2,-2l22.866,0c1.104,0 2,0.896 2,2Z"
   style="fill:#222;"
   id="path36" />
        <path
   d="M1474.92,403.194l0,22.866c0,1.104 -0.896,2 -2,2l-22.865,-0c-1.104,-0 -2,-0.896 -2,-2l-0,-22.866c-0,-1.104 0.896,-2 2,-2l22.865,0c1.104,0 2,0.896 2,2Z"
   style="fill:#222;"
   id="path37" />
        <path
   d="M1506.27,403.194l-0,22.866c-0,1.104 -0.897,2 -2,2l-22.866,-0c-1.104,-0 -2,-0.896 -2,-2l-0,-22.866c-0,-1.104 0.896,-2 2,-2l22.866,0c1.103,0 2,0.896 2,2Z"
   style="fill:#222;"
   id="path38" />
        <path
   d="M1537.61,403.194l-0,22.866c-0,1.104 -0.896,2 -2,2l-22.866,-0c-1.104,-0 -2,-0.896 -2,-2l0,-22.866c0,-1.104 0.896,-2 2,-2l22.866,0c1.104,0 2,0.896 2,2Z"
   style="fill:#222;"
   id="path39" />
        <path
   d="M1568.95,403.194l0,22.866c0,1.104 -0.896,2 -2,2l-22.865,-0c-1.104,-0 -2,-0.896 -2,-2l-0,-22.866c-0,-1.104 0.896,-2 2,-2l22.865,0c1.104,0 2,0.896 2,2Z"
   style="fill:#222;"
   id="path40" />
        <path
   d="M1600.3,403.194l-0,22.866c-0,1.104 -0.897,2 -2,2l-22.866,-0c-1.104,-0 -2,-0.896 -2,-2l-0,-22.866c-0,-1.104 0.896,-2 2,-2l22.866,0c1.103,0 2,0.896 2,2Z"
   style="fill:#222;"
   id="path41" />
        <path
   d="M346.567,434.537l0,22.866c0,1.104 -0.896,2 -2,2l-22.866,-0c-1.103,-0 -2,-0.896 -2,-2l0,-22.866c0,-1.104 0.897,-2 2,-2l22.866,0c1.104,0 2,0.896 2,2Z"
   style="fill:#222;"
   id="path42" />
        <path
   d="M471.94,434.537l0,22.866c0,1.104 -0.896,2 -2,2l-22.865,-0c-1.104,-0 -2,-0.896 -2,-2l-0,-22.866c-0,-1.104 0.896,-2 2,-2l22.865,0c1.104,0 2,0.896 2,2Z"
   style="fill:#222;"
   id="path43" />
        <path
   d="M503.284,434.537l-0,22.866c-0,1.104 -0.897,2 -2,2l-22.866,-0c-1.104,-0 -2,-0.896 -2,-2l-0,-22.866c-0,-1.104 0.896,-2 2,-2l22.866,0c1.103,0 2,0.896 2,2Z"
   style="fill:#222;"
   id="path44" />
        <path
   d="M534.627,434.537l-0,22.866c-0,1.104 -0.896,2 -2,2l-22.866,-0c-1.104,-0 -2,-0.896 -2,-2l0,-22.866c0,-1.104 0.896,-2 2,-2l22.866,0c1.104,0 2,0.896 2,2Z"
   style="fill:#222;"
   id="path45" />
        <path
   d="M691.343,434.537l0,22.866c0,1.104 -0.896,2 -2,2l-22.865,-0c-1.104,-0 -2,-0.896 -2,-2l-0,-22.866c-0,-1.104 0.896,-2 2,-2l22.865,0c1.104,0 2,0.896 2,2Z"
   style="fill:#222;"
   id="path46" />
        <path
   d="M722.687,434.537l-0,22.866c-0,1.104 -0.897,2 -2,2l-22.866,-0c-1.104,-0 -2,-0.896 -2,-2l-0,-22.866c-0,-1.104 0.896,-2 2,-2l22.866,0c1.103,0 2,0.896 2,2Z"
   style="fill:#222;"
   id="path47" />
        <path
   d="M754.03,434.537l-0,22.866c-0,1.104 -0.896,2 -2,2l-22.866,-0c-1.104,-0 -2,-0.896 -2,-2l0,-22.866c0,-1.104 0.896,-2 2,-2l22.866,0c1.104,0 2,0.896 2,2Z"
   style="fill:#222;"
   id="path48" />
        <path
   d="M785.373,434.537l0,22.866c0,1.104 -0.896,2 -2,2l-22.866,-0c-1.103,-0 -2,-0.896 -2,-2l0,-22.866c0,-1.104 0.897,-2 2,-2l22.866,0c1.104,0 2,0.896 2,2Z"
   style="fill:#222;"
   id="path49" />
        <path
   d="M816.716,434.537l0,22.866c0,1.104 -0.896,2 -2,2l-22.865,-0c-1.104,-0 -2,-0.896 -2,-2l-0,-22.866c-0,-1.104 0.896,-2 2,-2l22.865,0c1.104,0 2,0.896 2,2Z"
   style="fill:#222;"
   id="path50" />
        <path
   d="M848.06,434.537l-0,22.866c-0,1.104 -0.896,2 -2,2l-22.866,-0c-1.104,-0 -2,-0.896 -2,-2l0,-22.866c0,-1.104 0.896,-2 2,-2l22.866,0c1.104,0 2,0.896 2,2Z"
   style="fill:#222;"
   id="path51" />
        <path
   d="M879.403,434.537l-0,22.866c-0,1.104 -0.896,2 -2,2l-22.866,-0c-1.104,-0 -2,-0.896 -2,-2l0,-22.866c0,-1.104 0.896,-2 2,-2l22.866,0c1.104,0 2,0.896 2,2Z"
   style="fill:#222;"
   id="path52" />
        <path
   d="M942.09,434.537l-0,22.866c-0,1.104 -0.897,2 -2,2l-22.866,-0c-1.104,-0 -2,-0.896 -2,-2l-0,-22.866c-0,-1.104 0.896,-2 2,-2l22.866,0c1.103,0 2,0.896 2,2Z"
   style="fill:#222;"
   id="path53" />
        <path
   d="M973.433,434.537l-0,22.866c-0,1.104 -0.896,2 -2,2l-22.866,-0c-1.104,-0 -2,-0.896 -2,-2l0,-22.866c0,-1.104 0.896,-2 2,-2l22.866,0c1.104,0 2,0.896 2,2Z"
   style="fill:#222;"
   id="path54" />
        <path
   d="M1004.78,434.537l0,22.866c0,1.104 -0.896,2 -2,2l-22.866,-0c-1.103,-0 -2,-0.896 -2,-2l0,-22.866c0,-1.104 0.897,-2 2,-2l22.866,0c1.104,0 2,0.896 2,2Z"
   style="fill:#222;"
   id="path55" />
        <path
   d="M1130.15,434.537l0,22.866c0,1.104 -0.896,2 -2,2l-22.865,-0c-1.104,-0 -2,-0.896 -2,-2l-0,-22.866c-0,-1.104 0.896,-2 2,-2l22.865,0c1.104,0 2,0.896 2,2Z"
   style="fill:#222;"
   id="path56" />
        <path
   d="M1161.49,434.537l-0,22.866c-0,1.104 -0.897,2 -2,2l-22.866,-0c-1.104,-0 -2,-0.896 -2,-2l-0,-22.866c-0,-1.104 0.896,-2 2,-2l22.866,0c1.103,0 2,0.896 2,2Z"
   style="fill:#222;"
   id="path57" />
        <path
   d="M1192.84,434.537l-0,22.866c-0,1.104 -0.896,2 -2,2l-22.866,-0c-1.104,-0 -2,-0.896 -2,-2l0,-22.866c0,-1.104 0.896,-2 2,-2l22.866,0c1.104,0 2,0.896 2,2Z"
   style="fill:#222;"
   id="path58" />
        <path
   d="M1224.18,434.537l0,22.866c0,1.104 -0.896,2 -2,2l-22.866,-0c-1.103,-0 -2,-0.896 -2,-2l0,-22.866c0,-1.104 0.897,-2 2,-2l22.866,0c1.104,0 2,0.896 2,2Z"
   style="fill:#222;"
   id="path59" />
        <path
   d="M1380.9,434.537l-0,22.866c-0,1.104 -0.897,2 -2,2l-22.866,-0c-1.104,-0 -2,-0.896 -2,-2l-0,-22.866c-0,-1.104 0.896,-2 2,-2l22.866,0c1.103,0 2,0.896 2,2Z"
   style="fill:#222;"
   id="path60" />
        <path
   d="M1412.24,434.537l-0,22.866c-0,1.104 -0.896,2 -2,2l-22.866,-0c-1.104,-0 -2,-0.896 -2,-2l0,-22.866c0,-1.104 0.896,-2 2,-2l22.866,0c1.104,0 2,0.896 2,2Z"
   style="fill:#222;"
   id="path61" />
        <path
   d="M1600.3,434.537l-0,22.866c-0,1.104 -0.897,2 -2,2l-22.866,-0c-1.104,-0 -2,-0.896 -2,-2l-0,-22.866c-0,-1.104 0.896,-2 2,-2l22.866,0c1.103,0 2,0.896 2,2Z"
   style="fill:#222;"
   id="path62" />
        <path
   d="M346.567,465.881l0,22.865c0,1.104 -0.896,2 -2,2l-22.866,0c-1.103,0 -2,-0.896 -2,-2l0,-22.865c0,-1.104 0.897,-2 2,-2l22.866,-0c1.104,-0 2,0.896 2,2Z"
   style="fill:#222;"
   id="path63" />
        <path
   d="M377.91,465.881l0,22.865c0,1.104 -0.896,2 -2,2l-22.865,0c-1.104,0 -2,-0.896 -2,-2l-0,-22.865c-0,-1.104 0.896,-2 2,-2l22.865,-0c1.104,-0 2,0.896 2,2Z"
   style="fill:#222;"
   id="path64" />
        <path
   d="M409.254,465.881l-0,22.865c-0,1.104 -0.896,2 -2,2l-22.866,0c-1.104,0 -2,-0.896 -2,-2l0,-22.865c0,-1.104 0.896,-2 2,-2l22.866,-0c1.104,-0 2,0.896 2,2Z"
   style="fill:#222;"
   id="path65" />
        <path
   d="M471.94,465.881l0,22.865c0,1.104 -0.896,2 -2,2l-22.865,0c-1.104,0 -2,-0.896 -2,-2l-0,-22.865c-0,-1.104 0.896,-2 2,-2l22.865,-0c1.104,-0 2,0.896 2,2Z"
   style="fill:#222;"
   id="path66" />
        <path
   d="M503.284,465.881l-0,22.865c-0,1.104 -0.897,2 -2,2l-22.866,0c-1.104,0 -2,-0.896 -2,-2l-0,-22.865c-0,-1.104 0.896,-2 2,-2l22.866,-0c1.103,-0 2,0.896 2,2Z"
   style="fill:#222;"
   id="path67" />
        <path
   d="M534.627,465.881l-0,22.865c-0,1.104 -0.896,2 -2,2l-22.866,0c-1.104,0 -2,-0.896 -2,-2l0,-22.865c0,-1.104 0.896,-2 2,-2l22.866,-0c1.104,-0 2,0.896 2,2Z"
   style="fill:#222;"
   id="path68" />
        <path
   d="M565.97,465.881l0,22.865c0,1.104 -0.896,2 -2,2l-22.866,0c-1.103,0 -2,-0.896 -2,-2l0,-22.865c0,-1.104 0.897,-2 2,-2l22.866,-0c1.104,-0 2,0.896 2,2Z"
   style="fill:#222;"
   id="path69" />
        <path
   d="M597.313,465.881l0,22.865c0,1.104 -0.896,2 -2,2l-22.865,0c-1.104,0 -2,-0.896 -2,-2l-0,-22.865c-0,-1.104 0.896,-2 2,-2l22.865,-0c1.104,-0 2,0.896 2,2Z"
   style="fill:#222;"
   id="path70" />
        <path
   d="M628.657,465.881l-0,22.865c-0,1.104 -0.896,2 -2,2l-22.866,0c-1.104,0 -2,-0.896 -2,-2l0,-22.865c0,-1.104 0.896,-2 2,-2l22.866,-0c1.104,-0 2,0.896 2,2Z"
   style="fill:#222;"
   id="path71" />
        <path
   d="M660,465.881l0,22.865c0,1.104 -0.896,2 -2,2l-22.866,0c-1.104,0 -2,-0.896 -2,-2l0,-22.865c0,-1.104 0.896,-2 2,-2l22.866,-0c1.104,-0 2,0.896 2,2Z"
   style="fill:#222;"
   id="path72" />
        <path
   d="M722.687,465.881l-0,22.865c-0,1.104 -0.897,2 -2,2l-22.866,0c-1.104,0 -2,-0.896 -2,-2l-0,-22.865c-0,-1.104 0.896,-2 2,-2l22.866,-0c1.103,-0 2,0.896 2,2Z"
   style="fill:#222;"
   id="path73" />
        <path
   d="M754.03,465.881l-0,22.865c-0,1.104 -0.896,2 -2,2l-22.866,0c-1.104,0 -2,-0.896 -2,-2l0,-22.865c0,-1.104 0.896,-2 2,-2l22.866,-0c1.104,-0 2,0.896 2,2Z"
   style="fill:#222;"
   id="path74" />
        <path
   d="M785.373,465.881l0,22.865c0,1.104 -0.896,2 -2,2l-22.866,0c-1.103,0 -2,-0.896 -2,-2l0,-22.865c0,-1.104 0.897,-2 2,-2l22.866,-0c1.104,-0 2,0.896 2,2Z"
   style="fill:#222;"
   id="path75" />
        <path
   d="M848.06,465.881l-0,22.865c-0,1.104 -0.896,2 -2,2l-22.866,0c-1.104,0 -2,-0.896 -2,-2l0,-22.865c0,-1.104 0.896,-2 2,-2l22.866,-0c1.104,-0 2,0.896 2,2Z"
   style="fill:#222;"
   id="path76" />
        <path
   d="M879.403,465.881l-0,22.865c-0,1.104 -0.896,2 -2,2l-22.866,0c-1.104,0 -2,-0.896 -2,-2l0,-22.865c0,-1.104 0.896,-2 2,-2l22.866,-0c1.104,-0 2,0.896 2,2Z"
   style="fill:#222;"
   id="path77" />
        <path
   d="M942.09,465.881l-0,22.865c-0,1.104 -0.897,2 -2,2l-22.866,0c-1.104,0 -2,-0.896 -2,-2l-0,-22.865c-0,-1.104 0.896,-2 2,-2l22.866,-0c1.103,-0 2,0.896 2,2Z"
   style="fill:#222;"
   id="path78" />
        <path
   d="M973.433,465.881l-0,22.865c-0,1.104 -0.896,2 -2,2l-22.866,0c-1.104,0 -2,-0.896 -2,-2l0,-22.865c0,-1.104 0.896,-2 2,-2l22.866,-0c1.104,-0 2,0.896 2,2Z"
   style="fill:#222;"
   id="path79" />
        <path
   d="M1036.12,465.881l0,22.865c0,1.104 -0.896,2 -2,2l-22.865,0c-1.104,0 -2,-0.896 -2,-2l-0,-22.865c-0,-1.104 0.896,-2 2,-2l22.865,-0c1.104,-0 2,0.896 2,2Z"
   style="fill:#222;"
   id="path80" />
        <path
   d="M1067.46,465.881l-0,22.865c-0,1.104 -0.896,2 -2,2l-22.866,0c-1.104,0 -2,-0.896 -2,-2l0,-22.865c0,-1.104 0.896,-2 2,-2l22.866,-0c1.104,-0 2,0.896 2,2Z"
   style="fill:#222;"
   id="path81" />
        <path
   d="M1098.81,465.881l-0,22.865c-0,1.104 -0.896,2 -2,2l-22.866,0c-1.104,0 -2,-0.896 -2,-2l0,-22.865c0,-1.104 0.896,-2 2,-2l22.866,-0c1.104,-0 2,0.896 2,2Z"
   style="fill:#222;"
   id="path82" />
        <path
   d="M1161.49,465.881l-0,22.865c-0,1.104 -0.897,2 -2,2l-22.866,0c-1.104,0 -2,-0.896 -2,-2l-0,-22.865c-0,-1.104 0.896,-2 2,-2l22.866,-0c1.103,-0 2,0.896 2,2Z"
   style="fill:#222;"
   id="path83" />
        <path
   d="M1192.84,465.881l-0,22.865c-0,1.104 -0.896,2 -2,2l-22.866,0c-1.104,0 -2,-0.896 -2,-2l0,-22.865c0,-1.104 0.896,-2 2,-2l22.866,-0c1.104,-0 2,0.896 2,2Z"
   style="fill:#222;"
   id="path84" />
        <path
   d="M1224.18,465.881l0,22.865c0,1.104 -0.896,2 -2,2l-22.866,0c-1.103,0 -2,-0.896 -2,-2l0,-22.865c0,-1.104 0.897,-2 2,-2l22.866,-0c1.104,-0 2,0.896 2,2Z"
   style="fill:#222;"
   id="path85" />
        <path
   d="M1255.52,465.881l0,22.865c0,1.104 -0.896,2 -2,2l-22.865,0c-1.104,0 -2,-0.896 -2,-2l-0,-22.865c-0,-1.104 0.896,-2 2,-2l22.865,-0c1.104,-0 2,0.896 2,2Z"
   style="fill:#222;"
   id="path86" />
        <path
   d="M1286.87,465.881l-0,22.865c-0,1.104 -0.896,2 -2,2l-22.866,0c-1.104,0 -2,-0.896 -2,-2l0,-22.865c0,-1.104 0.896,-2 2,-2l22.866,-0c1.104,-0 2,0.896 2,2Z"
   style="fill:#222;"
   id="path87" />
        <path
   d="M1318.21,465.881l-0,22.865c-0,1.104 -0.896,2 -2,2l-22.866,0c-1.104,0 -2,-0.896 -2,-2l0,-22.865c0,-1.104 0.896,-2 2,-2l22.866,-0c1.104,-0 2,0.896 2,2Z"
   style="fill:#222;"
   id="path88" />
        <path
   d="M1349.55,465.881l0,22.865c0,1.104 -0.896,2 -2,2l-22.865,0c-1.104,0 -2,-0.896 -2,-2l-0,-22.865c-0,-1.104 0.896,-2 2,-2l22.865,-0c1.104,-0 2,0.896 2,2Z"
   style="fill:#222;"
   id="path89" />
        <path
   d="M1412.24,465.881l-0,22.865c-0,1.104 -0.896,2 -2,2l-22.866,0c-1.104,0 -2,-0.896 -2,-2l0,-22.865c0,-1.104 0.896,-2 2,-2l22.866,-0c1.104,-0 2,0.896 2,2Z"
   style="fill:#222;"
   id="path90" />
        <path
   d="M1443.58,465.881l0,22.865c0,1.104 -0.896,2 -2,2l-22.866,0c-1.103,0 -2,-0.896 -2,-2l0,-22.865c0,-1.104 0.897,-2 2,-2l22.866,-0c1.104,-0 2,0.896 2,2Z"
   style="fill:#222;"
   id="path91" />
        <path
   d="M1474.92,465.881l0,22.865c0,1.104 -0.896,2 -2,2l-22.865,0c-1.104,0 -2,-0.896 -2,-2l-0,-22.865c-0,-1.104 0.896,-2 2,-2l22.865,-0c1.104,-0 2,0.896 2,2Z"
   style="fill:#222;"
   id="path92" />
        <path
   d="M1506.27,465.881l-0,22.865c-0,1.104 -0.897,2 -2,2l-22.866,0c-1.104,0 -2,-0.896 -2,-2l-0,-22.865c-0,-1.104 0.896,-2 2,-2l22.866,-0c1.103,-0 2,0.896 2,2Z"
   style="fill:#222;"
   id="path93" />
        <path
   d="M1537.61,465.881l-0,22.865c-0,1.104 -0.896,2 -2,2l-22.866,0c-1.104,0 -2,-0.896 -2,-2l0,-22.865c0,-1.104 0.896,-2 2,-2l22.866,-0c1.104,-0 2,0.896 2,2Z"
   style="fill:#222;"
   id="path94" />
        <path
   d="M1600.3,465.881l-0,22.865c-0,1.104 -0.897,2 -2,2l-22.866,0c-1.104,0 -2,-0.896 -2,-2l-0,-22.865c-0,-1.104 0.896,-2 2,-2l22.866,-0c1.103,-0 2,0.896 2,2Z"
   style="fill:#222;"
   id="path95" />
        <path
   d="M346.567,497.224l0,22.866c0,1.103 -0.896,2 -2,2l-22.866,-0c-1.103,-0 -2,-0.897 -2,-2l0,-22.866c0,-1.104 0.897,-2 2,-2l22.866,-0c1.104,-0 2,0.896 2,2Z"
   style="fill:#222;"
   id="path96" />
        <path
   d="M377.91,497.224l0,22.866c0,1.103 -0.896,2 -2,2l-22.865,-0c-1.104,-0 -2,-0.897 -2,-2l-0,-22.866c-0,-1.104 0.896,-2 2,-2l22.865,-0c1.104,-0 2,0.896 2,2Z"
   style="fill:#222;"
   id="path97" />
        <path
   d="M409.254,497.224l-0,22.866c-0,1.103 -0.896,2 -2,2l-22.866,-0c-1.104,-0 -2,-0.897 -2,-2l0,-22.866c0,-1.104 0.896,-2 2,-2l22.866,-0c1.104,-0 2,0.896 2,2Z"
   style="fill:#222;"
   id="path98" />
        <path
   d="M471.94,497.224l0,22.866c0,1.103 -0.896,2 -2,2l-22.865,-0c-1.104,-0 -2,-0.897 -2,-2l-0,-22.866c-0,-1.104 0.896,-2 2,-2l22.865,-0c1.104,-0 2,0.896 2,2Z"
   style="fill:#222;"
   id="path99" />
        <path
   d="M503.284,497.224l-0,22.866c-0,1.103 -0.897,2 -2,2l-22.866,-0c-1.104,-0 -2,-0.897 -2,-2l-0,-22.866c-0,-1.104 0.896,-2 2,-2l22.866,-0c1.103,-0 2,0.896 2,2Z"
   style="fill:#222;"
   id="path100" />
        <path
   d="M534.627,497.224l-0,22.866c-0,1.103 -0.896,2 -2,2l-22.866,-0c-1.104,-0 -2,-0.897 -2,-2l0,-22.866c0,-1.104 0.896,-2 2,-2l22.866,-0c1.104,-0 2,0.896 2,2Z"
   style="fill:#222;"
   id="path101" />
        <path
   d="M565.97,497.224l0,22.866c0,1.103 -0.896,2 -2,2l-22.866,-0c-1.103,-0 -2,-0.897 -2,-2l0,-22.866c0,-1.104 0.897,-2 2,-2l22.866,-0c1.104,-0 2,0.896 2,2Z"
   style="fill:#222;"
   id="path102" />
        <path
   d="M597.313,497.224l0,22.866c0,1.103 -0.896,2 -2,2l-22.865,-0c-1.104,-0 -2,-0.897 -2,-2l-0,-22.866c-0,-1.104 0.896,-2 2,-2l22.865,-0c1.104,-0 2,0.896 2,2Z"
   style="fill:#222;"
   id="path103" />
        <path
   d="M628.657,497.224l-0,22.866c-0,1.103 -0.896,2 -2,2l-22.866,-0c-1.104,-0 -2,-0.897 -2,-2l0,-22.866c0,-1.104 0.896,-2 2,-2l22.866,-0c1.104,-0 2,0.896 2,2Z"
   style="fill:#222;"
   id="path104" />
        <path
   d="M660,497.224l0,22.866c0,1.103 -0.896,2 -2,2l-22.866,-0c-1.104,-0 -2,-0.897 -2,-2l0,-22.866c0,-1.104 0.896,-2 2,-2l22.866,-0c1.104,-0 2,0.896 2,2Z"
   style="fill:#222;"
   id="path105" />
        <path
   d="M722.687,497.224l-0,22.866c-0,1.103 -0.897,2 -2,2l-22.866,-0c-1.104,-0 -2,-0.897 -2,-2l-0,-22.866c-0,-1.104 0.896,-2 2,-2l22.866,-0c1.103,-0 2,0.896 2,2Z"
   style="fill:#222;"
   id="path106" />
        <path
   d="M785.373,497.224l0,22.866c0,1.103 -0.896,2 -2,2l-22.866,-0c-1.103,-0 -2,-0.897 -2,-2l0,-22.866c0,-1.104 0.897,-2 2,-2l22.866,-0c1.104,-0 2,0.896 2,2Z"
   style="fill:#222;"
   id="path107" />
        <path
   d="M848.06,497.224l-0,22.866c-0,1.103 -0.896,2 -2,2l-22.866,-0c-1.104,-0 -2,-0.897 -2,-2l0,-22.866c0,-1.104 0.896,-2 2,-2l22.866,-0c1.104,-0 2,0.896 2,2Z"
   style="fill:#222;"
   id="path108" />
        <path
   d="M879.403,497.224l-0,22.866c-0,1.103 -0.896,2 -2,2l-22.866,-0c-1.104,-0 -2,-0.897 -2,-2l0,-22.866c0,-1.104 0.896,-2 2,-2l22.866,-0c1.104,-0 2,0.896 2,2Z"
   style="fill:#222;"
   id="path109" />
        <path
   d="M942.09,497.224l-0,22.866c-0,1.103 -0.897,2 -2,2l-22.866,-0c-1.104,-0 -2,-0.897 -2,-2l-0,-22.866c-0,-1.104 0.896,-2 2,-2l22.866,-0c1.103,-0 2,0.896 2,2Z"
   style="fill:#222;"
   id="path110" />
        <path
   d="M973.433,497.224l-0,22.866c-0,1.103 -0.896,2 -2,2l-22.866,-0c-1.104,-0 -2,-0.897 -2,-2l0,-22.866c0,-1.104 0.896,-2 2,-2l22.866,-0c1.104,-0 2,0.896 2,2Z"
   style="fill:#222;"
   id="path111" />
        <path
   d="M1036.12,497.224l0,22.866c0,1.103 -0.896,2 -2,2l-22.865,-0c-1.104,-0 -2,-0.897 -2,-2l-0,-22.866c-0,-1.104 0.896,-2 2,-2l22.865,-0c1.104,-0 2,0.896 2,2Z"
   style="fill:#222;"
   id="path112" />
        <path
   d="M1067.46,497.224l-0,22.866c-0,1.103 -0.896,2 -2,2l-22.866,-0c-1.104,-0 -2,-0.897 -2,-2l0,-22.866c0,-1.104 0.896,-2 2,-2l22.866,-0c1.104,-0 2,0.896 2,2Z"
   style="fill:#222;"
   id="path113" />
        <path
   d="M1098.81,497.224l-0,22.866c-0,1.103 -0.896,2 -2,2l-22.866,-0c-1.104,-0 -2,-0.897 -2,-2l0,-22.866c0,-1.104 0.896,-2 2,-2l22.866,-0c1.104,-0 2,0.896 2,2Z"
   style="fill:#222;"
   id="path114" />
        <path
   d="M1161.49,497.224l-0,22.866c-0,1.103 -0.897,2 -2,2l-22.866,-0c-1.104,-0 -2,-0.897 -2,-2l-0,-22.866c-0,-1.104 0.896,-2 2,-2l22.866,-0c1.103,-0 2,0.896 2,2Z"
   style="fill:#222;"
   id="path115" />
        <path
   d="M1224.18,497.224l0,22.866c0,1.103 -0.896,2 -2,2l-22.866,-0c-1.103,-0 -2,-0.897 -2,-2l0,-22.866c0,-1.104 0.897,-2 2,-2l22.866,-0c1.104,-0 2,0.896 2,2Z"
   style="fill:#222;"
   id="path116" />
        <path
   d="M1255.52,497.224l0,22.866c0,1.103 -0.896,2 -2,2l-22.865,-0c-1.104,-0 -2,-0.897 -2,-2l-0,-22.866c-0,-1.104 0.896,-2 2,-2l22.865,-0c1.104,-0 2,0.896 2,2Z"
   style="fill:#222;"
   id="path117" />
        <path
   d="M1286.87,497.224l-0,22.866c-0,1.103 -0.896,2 -2,2l-22.866,-0c-1.104,-0 -2,-0.897 -2,-2l0,-22.866c0,-1.104 0.896,-2 2,-2l22.866,-0c1.104,-0 2,0.896 2,2Z"
   style="fill:#222;"
   id="path118" />
        <path
   d="M1318.21,497.224l-0,22.866c-0,1.103 -0.896,2 -2,2l-22.866,-0c-1.104,-0 -2,-0.897 -2,-2l0,-22.866c0,-1.104 0.896,-2 2,-2l22.866,-0c1.104,-0 2,0.896 2,2Z"
   style="fill:#222;"
   id="path119" />
        <path
   d="M1349.55,497.224l0,22.866c0,1.103 -0.896,2 -2,2l-22.865,-0c-1.104,-0 -2,-0.897 -2,-2l-0,-22.866c-0,-1.104 0.896,-2 2,-2l22.865,-0c1.104,-0 2,0.896 2,2Z"
   style="fill:#222;"
   id="path120" />
        <path
   d="M1412.24,497.224l-0,22.866c-0,1.103 -0.896,2 -2,2l-22.866,-0c-1.104,-0 -2,-0.897 -2,-2l0,-22.866c0,-1.104 0.896,-2 2,-2l22.866,-0c1.104,-0 2,0.896 2,2Z"
   style="fill:#222;"
   id="path121" />
        <path
   d="M1443.58,497.224l0,22.866c0,1.103 -0.896,2 -2,2l-22.866,-0c-1.103,-0 -2,-0.897 -2,-2l0,-22.866c0,-1.104 0.897,-2 2,-2l22.866,-0c1.104,-0 2,0.896 2,2Z"
   style="fill:#222;"
   id="path122" />
        <path
   d="M1474.92,497.224l0,22.866c0,1.103 -0.896,2 -2,2l-22.865,-0c-1.104,-0 -2,-0.897 -2,-2l-0,-22.866c-0,-1.104 0.896,-2 2,-2l22.865,-0c1.104,-0 2,0.896 2,2Z"
   style="fill:#222;"
   id="path123" />
        <path
   d="M1506.27,497.224l-0,22.866c-0,1.103 -0.897,2 -2,2l-22.866,-0c-1.104,-0 -2,-0.897 -2,-2l-0,-22.866c-0,-1.104 0.896,-2 2,-2l22.866,-0c1.103,-0 2,0.896 2,2Z"
   style="fill:#222;"
   id="path124" />
        <path
   d="M1568.95,497.224l0,22.866c0,1.103 -0.896,2 -2,2l-22.865,-0c-1.104,-0 -2,-0.897 -2,-2l-0,-22.866c-0,-1.104 0.896,-2 2,-2l22.865,-0c1.104,-0 2,0.896 2,2Z"
   style="fill:#222;"
   id="path125" />
        <path
   d="M1600.3,497.224l-0,22.866c-0,1.103 -0.897,2 -2,2l-22.866,-0c-1.104,-0 -2,-0.897 -2,-2l-0,-22.866c-0,-1.104 0.896,-2 2,-2l22.866,-0c1.103,-0 2,0.896 2,2Z"
   style="fill:#222;"
   id="path126" />
        <path
   d="M346.567,528.567l0,22.866c0,1.104 -0.896,2 -2,2l-22.866,-0c-1.103,-0 -2,-0.896 -2,-2l0,-22.866c0,-1.104 0.897,-2 2,-2l22.866,0c1.104,0 2,0.896 2,2Z"
   style="fill:#222;"
   id="path127" />
        <path
   d="M377.91,528.567l0,22.866c0,1.104 -0.896,2 -2,2l-22.865,-0c-1.104,-0 -2,-0.896 -2,-2l-0,-22.866c-0,-1.104 0.896,-2 2,-2l22.865,0c1.104,0 2,0.896 2,2Z"
   style="fill:#222;"
   id="path128" />
        <path
   d="M409.254,528.567l-0,22.866c-0,1.104 -0.896,2 -2,2l-22.866,-0c-1.104,-0 -2,-0.896 -2,-2l0,-22.866c0,-1.104 0.896,-2 2,-2l22.866,0c1.104,0 2,0.896 2,2Z"
   style="fill:#222;"
   id="path129" />
        <path
   d="M471.94,528.567l0,22.866c0,1.104 -0.896,2 -2,2l-22.865,-0c-1.104,-0 -2,-0.896 -2,-2l-0,-22.866c-0,-1.104 0.896,-2 2,-2l22.865,0c1.104,0 2,0.896 2,2Z"
   style="fill:#222;"
   id="path130" />
        <path
   d="M503.284,528.567l-0,22.866c-0,1.104 -0.897,2 -2,2l-22.866,-0c-1.104,-0 -2,-0.896 -2,-2l-0,-22.866c-0,-1.104 0.896,-2 2,-2l22.866,0c1.103,0 2,0.896 2,2Z"
   style="fill:#222;"
   id="path131" />
        <path
   d="M534.627,528.567l-0,22.866c-0,1.104 -0.896,2 -2,2l-22.866,-0c-1.104,-0 -2,-0.896 -2,-2l0,-22.866c0,-1.104 0.896,-2 2,-2l22.866,0c1.104,0 2,0.896 2,2Z"
   style="fill:#222;"
   id="path132" />
        <path
   d="M565.97,528.567l0,22.866c0,1.104 -0.896,2 -2,2l-22.866,-0c-1.103,-0 -2,-0.896 -2,-2l0,-22.866c0,-1.104 0.897,-2 2,-2l22.866,0c1.104,0 2,0.896 2,2Z"
   style="fill:#222;"
   id="path133" />
        <path
   d="M691.343,528.567l0,22.866c0,1.104 -0.896,2 -2,2l-22.865,-0c-1.104,-0 -2,-0.896 -2,-2l-0,-22.866c-0,-1.104 0.896,-2 2,-2l22.865,0c1.104,0 2,0.896 2,2Z"
   style="fill:#222;"
   id="path134" />
        <path
   d="M722.687,528.567l-0,22.866c-0,1.104 -0.897,2 -2,2l-22.866,-0c-1.104,-0 -2,-0.896 -2,-2l-0,-22.866c-0,-1.104 0.896,-2 2,-2l22.866,0c1.103,0 2,0.896 2,2Z"
   style="fill:#222;"
   id="path135" />
        <path
   d="M754.03,528.567l-0,22.866c-0,1.104 -0.896,2 -2,2l-22.866,-0c-1.104,-0 -2,-0.896 -2,-2l0,-22.866c0,-1.104 0.896,-2 2,-2l22.866,0c1.104,0 2,0.896 2,2Z"
   style="fill:#222;"
   id="path136" />
        <path
   d="M785.373,528.567l0,22.866c0,1.104 -0.896,2 -2,2l-22.866,-0c-1.103,-0 -2,-0.896 -2,-2l0,-22.866c0,-1.104 0.897,-2 2,-2l22.866,0c1.104,0 2,0.896 2,2Z"
   style="fill:#222;"
   id="path137" />
        <path
   d="M973.433,528.567l-0,22.866c-0,1.104 -0.896,2 -2,2l-22.866,-0c-1.104,-0 -2,-0.896 -2,-2l0,-22.866c0,-1.104 0.896,-2 2,-2l22.866,0c1.104,0 2,0.896 2,2Z"
   style="fill:#222;"
   id="path138" />
        <path
   d="M1004.78,528.567l0,22.866c0,1.104 -0.896,2 -2,2l-22.866,-0c-1.103,-0 -2,-0.896 -2,-2l0,-22.866c0,-1.104 0.897,-2 2,-2l22.866,0c1.104,0 2,0.896 2,2Z"
   style="fill:#222;"
   id="path139" />
        <path
   d="M1130.15,528.567l0,22.866c0,1.104 -0.896,2 -2,2l-22.865,-0c-1.104,-0 -2,-0.896 -2,-2l-0,-22.866c-0,-1.104 0.896,-2 2,-2l22.865,0c1.104,0 2,0.896 2,2Z"
   style="fill:#222;"
   id="path140" />
        <path
   d="M1161.49,528.567l-0,22.866c-0,1.104 -0.897,2 -2,2l-22.866,-0c-1.104,-0 -2,-0.896 -2,-2l-0,-22.866c-0,-1.104 0.896,-2 2,-2l22.866,0c1.103,0 2,0.896 2,2Z"
   style="fill:#222;"
   id="path141" />
        <path
   d="M1192.84,528.567l-0,22.866c-0,1.104 -0.896,2 -2,2l-22.866,-0c-1.104,-0 -2,-0.896 -2,-2l0,-22.866c0,-1.104 0.896,-2 2,-2l22.866,0c1.104,0 2,0.896 2,2Z"
   style="fill:#222;"
   id="path142" />
        <path
   d="M1224.18,528.567l0,22.866c0,1.104 -0.896,2 -2,2l-22.866,-0c-1.103,-0 -2,-0.896 -2,-2l0,-22.866c0,-1.104 0.897,-2 2,-2l22.866,0c1.104,0 2,0.896 2,2Z"
   style="fill:#222;"
   id="path143" />
        <path
   d="M1255.52,528.567l0,22.866c0,1.104 -0.896,2 -2,2l-22.865,-0c-1.104,-0 -2,-0.896 -2,-2l-0,-22.866c-0,-1.104 0.896,-2 2,-2l22.865,0c1.104,0 2,0.896 2,2Z"
   style="fill:#222;"
   id="path144" />
        <path
   d="M1380.9,528.567l-0,22.866c-0,1.104 -0.897,2 -2,2l-22.866,-0c-1.104,-0 -2,-0.896 -2,-2l-0,-22.866c-0,-1.104 0.896,-2 2,-2l22.866,0c1.103,0 2,0.896 2,2Z"
   style="fill:#222;"
   id="path145" />
        <path
   d="M1412.24,528.567l-0,22.866c-0,1.104 -0.896,2 -2,2l-22.866,-0c-1.104,-0 -2,-0.896 -2,-2l0,-22.866c0,-1.104 0.896,-2 2,-2l22.866,0c1.104,0 2,0.896 2,2Z"
   style="fill:#222;"
   id="path146" />
        <path
   d="M1443.58,528.567l0,22.866c0,1.104 -0.896,2 -2,2l-22.866,-0c-1.103,-0 -2,-0.896 -2,-2l0,-22.866c0,-1.104 0.897,-2 2,-2l22.866,0c1.104,0 2,0.896 2,2Z"
   style="fill:#222;"
   id="path147" />
        <path
   d="M1474.92,528.567l0,22.866c0,1.104 -0.896,2 -2,2l-22.865,-0c-1.104,-0 -2,-0.896 -2,-2l-0,-22.866c-0,-1.104 0.896,-2 2,-2l22.865,0c1.104,0 2,0.896 2,2Z"
   style="fill:#222;"
   id="path148" />
        <path
   d="M1537.61,528.567l-0,22.866c-0,1.104 -0.896,2 -2,2l-22.866,-0c-1.104,-0 -2,-0.896 -2,-2l0,-22.866c0,-1.104 0.896,-2 2,-2l22.866,0c1.104,0 2,0.896 2,2Z"
   style="fill:#222;"
   id="path149" />
        <path
   d="M1568.95,528.567l0,22.866c0,1.104 -0.896,2 -2,2l-22.865,-0c-1.104,-0 -2,-0.896 -2,-2l-0,-22.866c-0,-1.104 0.896,-2 2,-2l22.865,0c1.104,0 2,0.896 2,2Z"
   style="fill:#222;"
   id="path150" />
        <path
   d="M1600.3,528.567l-0,22.866c-0,1.104 -0.897,2 -2,2l-22.866,-0c-1.104,-0 -2,-0.896 -2,-2l-0,-22.866c-0,-1.104 0.896,-2 2,-2l22.866,0c1.103,0 2,0.896 2,2Z"
   style="fill:#222;"
   id="path151" />
        <path
   d="M346.567,559.91l0,22.866c0,1.104 -0.896,2 -2,2l-22.866,0c-1.103,0 -2,-0.896 -2,-2l0,-22.866c0,-1.103 0.897,-2 2,-2l22.866,0c1.104,0 2,0.897 2,2Z"
   style="fill:#222;"
   id="path152" />
        <path
   d="M377.91,559.91l0,22.866c0,1.104 -0.896,2 -2,2l-22.865,0c-1.104,0 -2,-0.896 -2,-2l-0,-22.866c-0,-1.103 0.896,-2 2,-2l22.865,0c1.104,0 2,0.897 2,2Z"
   style="fill:#222;"
   id="path153" />
        <path
   d="M409.254,559.91l-0,22.866c-0,1.104 -0.896,2 -2,2l-22.866,0c-1.104,0 -2,-0.896 -2,-2l0,-22.866c0,-1.103 0.896,-2 2,-2l22.866,0c1.104,0 2,0.897 2,2Z"
   style="fill:#222;"
   id="path154" />
        <path
   d="M471.94,559.91l0,22.866c0,1.104 -0.896,2 -2,2l-22.865,0c-1.104,0 -2,-0.896 -2,-2l-0,-22.866c-0,-1.103 0.896,-2 2,-2l22.865,0c1.104,0 2,0.897 2,2Z"
   style="fill:#222;"
   id="path155" />
        <path
   d="M503.284,559.91l-0,22.866c-0,1.104 -0.897,2 -2,2l-22.866,0c-1.104,0 -2,-0.896 -2,-2l-0,-22.866c-0,-1.103 0.896,-2 2,-2l22.866,0c1.103,0 2,0.897 2,2Z"
   style="fill:#222;"
   id="path156" />
        <path
   d="M534.627,559.91l-0,22.866c-0,1.104 -0.896,2 -2,2l-22.866,0c-1.104,0 -2,-0.896 -2,-2l0,-22.866c0,-1.103 0.896,-2 2,-2l22.866,0c1.104,0 2,0.897 2,2Z"
   style="fill:#222;"
   id="path157" />
        <path
   d="M565.97,559.91l0,22.866c0,1.104 -0.896,2 -2,2l-22.866,0c-1.103,0 -2,-0.896 -2,-2l0,-22.866c0,-1.103 0.897,-2 2,-2l22.866,0c1.104,0 2,0.897 2,2Z"
   style="fill:#222;"
   id="path158" />
        <path
   d="M597.313,559.91l0,22.866c0,1.104 -0.896,2 -2,2l-22.865,0c-1.104,0 -2,-0.896 -2,-2l-0,-22.866c-0,-1.103 0.896,-2 2,-2l22.865,0c1.104,0 2,0.897 2,2Z"
   style="fill:#222;"
   id="path159" />
        <path
   d="M628.657,559.91l-0,22.866c-0,1.104 -0.896,2 -2,2l-22.866,0c-1.104,0 -2,-0.896 -2,-2l0,-22.866c0,-1.103 0.896,-2 2,-2l22.866,0c1.104,0 2,0.897 2,2Z"
   style="fill:#222;"
   id="path160" />
        <path
   d="M660,559.91l0,22.866c0,1.104 -0.896,2 -2,2l-22.866,0c-1.104,0 -2,-0.896 -2,-2l0,-22.866c0,-1.103 0.896,-2 2,-2l22.866,0c1.104,0 2,0.897 2,2Z"
   style="fill:#222;"
   id="path161" />
        <path
   d="M722.687,559.91l-0,22.866c-0,1.104 -0.897,2 -2,2l-22.866,0c-1.104,0 -2,-0.896 -2,-2l-0,-22.866c-0,-1.103 0.896,-2 2,-2l22.866,0c1.103,0 2,0.897 2,2Z"
   style="fill:#222;"
   id="path162" />
        <path
   d="M785.373,559.91l0,22.866c0,1.104 -0.896,2 -2,2l-22.866,0c-1.103,0 -2,-0.896 -2,-2l0,-22.866c0,-1.103 0.897,-2 2,-2l22.866,0c1.104,0 2,0.897 2,2Z"
   style="fill:#222;"
   id="path163" />
        <path
   d="M816.716,559.91l0,22.866c0,1.104 -0.896,2 -2,2l-22.865,0c-1.104,0 -2,-0.896 -2,-2l-0,-22.866c-0,-1.103 0.896,-2 2,-2l22.865,0c1.104,0 2,0.897 2,2Z"
   style="fill:#ffffff"
   id="path164" />
        <path
   d="M848.06,559.91l-0,22.866c-0,1.104 -0.896,2 -2,2l-22.866,0c-1.104,0 -2,-0.896 -2,-2l0,-22.866c0,-1.103 0.896,-2 2,-2l22.866,0c1.104,0 2,0.897 2,2Z"
   style="fill:#ffffff"
   id="path165" />
        <path
   d="M879.403,559.91l-0,22.866c-0,1.104 -0.896,2 -2,2l-22.866,0c-1.104,0 -2,-0.896 -2,-2l0,-22.866c0,-1.103 0.896,-2 2,-2l22.866,0c1.104,0 2,0.897 2,2Z"
   style="fill:#ffffff"
   id="path166" />
        <path
   d="M942.09,559.91l-0,22.866c-0,1.104 -0.897,2 -2,2l-22.866,0c-1.104,0 -2,-0.896 -2,-2l-0,-22.866c-0,-1.103 0.896,-2 2,-2l22.866,0c1.103,0 2,0.897 2,2Z"
   style="fill:#ffffff"
   id="path167" />
        <path
   d="M973.433,559.91l-0,22.866c-0,1.104 -0.896,2 -2,2l-22.866,0c-1.104,0 -2,-0.896 -2,-2l0,-22.866c0,-1.103 0.896,-2 2,-2l22.866,0c1.104,0 2,0.897 2,2Z"
   style="fill:#222;"
   id="path168" />
        <path
   d="M1036.12,559.91l0,22.866c0,1.104 -0.896,2 -2,2l-22.865,0c-1.104,0 -2,-0.896 -2,-2l-0,-22.866c-0,-1.103 0.896,-2 2,-2l22.865,0c1.104,0 2,0.897 2,2Z"
   style="fill:#222;"
   id="path169" />
        <path
   d="M1067.46,559.91l-0,22.866c-0,1.104 -0.896,2 -2,2l-22.866,0c-1.104,0 -2,-0.896 -2,-2l0,-22.866c0,-1.103 0.896,-2 2,-2l22.866,0c1.104,0 2,0.897 2,2Z"
   style="fill:#222;"
   id="path170" />
        <path
   d="M1098.81,559.91l-0,22.866c-0,1.104 -0.896,2 -2,2l-22.866,0c-1.104,0 -2,-0.896 -2,-2l0,-22.866c0,-1.103 0.896,-2 2,-2l22.866,0c1.104,0 2,0.897 2,2Z"
   style="fill:#222;"
   id="path171" />
        <path
   d="M1161.49,559.91l-0,22.866c-0,1.104 -0.897,2 -2,2l-22.866,0c-1.104,0 -2,-0.896 -2,-2l-0,-22.866c-0,-1.103 0.896,-2 2,-2l22.866,0c1.103,0 2,0.897 2,2Z"
   style="fill:#222;"
   id="path172" />
        <path
   d="M1224.18,559.91l0,22.866c0,1.104 -0.896,2 -2,2l-22.866,0c-1.103,0 -2,-0.896 -2,-2l0,-22.866c0,-1.103 0.897,-2 2,-2l22.866,0c1.104,0 2,0.897 2,2Z"
   style="fill:#222;"
   id="path173" />
        <path
   d="M1286.87,559.91l-0,22.866c-0,1.104 -0.896,2 -2,2l-22.866,0c-1.104,0 -2,-0.896 -2,-2l0,-22.866c0,-1.103 0.896,-2 2,-2l22.866,0c1.104,0 2,0.897 2,2Z"
   style="fill:#222;"
   id="path174" />
        <path
   d="M1318.21,559.91l-0,22.866c-0,1.104 -0.896,2 -2,2l-22.866,0c-1.104,0 -2,-0.896 -2,-2l0,-22.866c0,-1.103 0.896,-2 2,-2l22.866,0c1.104,0 2,0.897 2,2Z"
   style="fill:#222;"
   id="path175" />
        <path
   d="M1349.55,559.91l0,22.866c0,1.104 -0.896,2 -2,2l-22.865,0c-1.104,0 -2,-0.896 -2,-2l-0,-22.866c-0,-1.103 0.896,-2 2,-2l22.865,0c1.104,0 2,0.897 2,2Z"
   style="fill:#222;"
   id="path176" />
        <path
   d="M1380.9,559.91l-0,22.866c-0,1.104 -0.897,2 -2,2l-22.866,0c-1.104,0 -2,-0.896 -2,-2l-0,-22.866c-0,-1.103 0.896,-2 2,-2l22.866,0c1.103,0 2,0.897 2,2Z"
   style="fill:#222;"
   id="path177" />
        <path
   d="M1412.24,559.91l-0,22.866c-0,1.104 -0.896,2 -2,2l-22.866,0c-1.104,0 -2,-0.896 -2,-2l0,-22.866c0,-1.103 0.896,-2 2,-2l22.866,0c1.104,0 2,0.897 2,2Z"
   style="fill:#222;"
   id="path178" />
        <path
   d="M1443.58,559.91l0,22.866c0,1.104 -0.896,2 -2,2l-22.866,0c-1.103,0 -2,-0.896 -2,-2l0,-22.866c0,-1.103 0.897,-2 2,-2l22.866,0c1.104,0 2,0.897 2,2Z"
   style="fill:#222;"
   id="path179" />
        <path
   d="M1474.92,559.91l0,22.866c0,1.104 -0.896,2 -2,2l-22.865,0c-1.104,0 -2,-0.896 -2,-2l-0,-22.866c-0,-1.103 0.896,-2 2,-2l22.865,0c1.104,0 2,0.897 2,2Z"
   style="fill:#222;"
   id="path180" />
        <path
   d="M1537.61,559.91l-0,22.866c-0,1.104 -0.896,2 -2,2l-22.866,0c-1.104,0 -2,-0.896 -2,-2l0,-22.866c0,-1.103 0.896,-2 2,-2l22.866,0c1.104,0 2,0.897 2,2Z"
   style="fill:#222;"
   id="path181" />
        <path
   d="M1568.95,559.91l0,22.866c0,1.104 -0.896,2 -2,2l-22.865,0c-1.104,0 -2,-0.896 -2,-2l-0,-22.866c-0,-1.103 0.896,-2 2,-2l22.865,0c1.104,0 2,0.897 2,2Z"
   style="fill:#222;"
   id="path182" />
        <path
   d="M1600.3,559.91l-0,22.866c-0,1.104 -0.897,2 -2,2l-22.866,0c-1.104,0 -2,-0.896 -2,-2l-0,-22.866c-0,-1.103 0.896,-2 2,-2l22.866,0c1.103,0 2,0.897 2,2Z"
   style="fill:#222;"
   id="path183" />
        <path
   d="M346.567,591.254l0,22.865c0,1.104 -0.896,2 -2,2l-22.866,0c-1.103,0 -2,-0.896 -2,-2l0,-22.865c0,-1.104 0.897,-2 2,-2l22.866,-0c1.104,-0 2,0.896 2,2Z"
   style="fill:#222;"
   id="path184" />
        <path
   d="M377.91,591.254l0,22.865c0,1.104 -0.896,2 -2,2l-22.865,0c-1.104,0 -2,-0.896 -2,-2l-0,-22.865c-0,-1.104 0.896,-2 2,-2l22.865,-0c1.104,-0 2,0.896 2,2Z"
   style="fill:#222;"
   id="path185" />
        <path
   d="M409.254,591.254l-0,22.865c-0,1.104 -0.896,2 -2,2l-22.866,0c-1.104,0 -2,-0.896 -2,-2l0,-22.865c0,-1.104 0.896,-2 2,-2l22.866,-0c1.104,-0 2,0.896 2,2Z"
   style="fill:#222;"
   id="path186" />
        <path
   d="M471.94,591.254l0,22.865c0,1.104 -0.896,2 -2,2l-22.865,0c-1.104,0 -2,-0.896 -2,-2l-0,-22.865c-0,-1.104 0.896,-2 2,-2l22.865,-0c1.104,-0 2,0.896 2,2Z"
   style="fill:#222;"
   id="path187" />
        <path
   d="M503.284,591.254l-0,22.865c-0,1.104 -0.897,2 -2,2l-22.866,0c-1.104,0 -2,-0.896 -2,-2l-0,-22.865c-0,-1.104 0.896,-2 2,-2l22.866,-0c1.103,-0 2,0.896 2,2Z"
   style="fill:#222;"
   id="path188" />
        <path
   d="M534.627,591.254l-0,22.865c-0,1.104 -0.896,2 -2,2l-22.866,0c-1.104,0 -2,-0.896 -2,-2l0,-22.865c0,-1.104 0.896,-2 2,-2l22.866,-0c1.104,-0 2,0.896 2,2Z"
   style="fill:#222;"
   id="path189" />
        <path
   d="M565.97,591.254l0,22.865c0,1.104 -0.896,2 -2,2l-22.866,0c-1.103,0 -2,-0.896 -2,-2l0,-22.865c0,-1.104 0.897,-2 2,-2l22.866,-0c1.104,-0 2,0.896 2,2Z"
   style="fill:#222;"
   id="path190" />
        <path
   d="M597.313,591.254l0,22.865c0,1.104 -0.896,2 -2,2l-22.865,0c-1.104,0 -2,-0.896 -2,-2l-0,-22.865c-0,-1.104 0.896,-2 2,-2l22.865,-0c1.104,-0 2,0.896 2,2Z"
   style="fill:#222;"
   id="path191" />
        <path
   d="M628.657,591.254l-0,22.865c-0,1.104 -0.896,2 -2,2l-22.866,0c-1.104,0 -2,-0.896 -2,-2l0,-22.865c0,-1.104 0.896,-2 2,-2l22.866,-0c1.104,-0 2,0.896 2,2Z"
   style="fill:#222;"
   id="path192" />
        <path
   d="M660,591.254l0,22.865c0,1.104 -0.896,2 -2,2l-22.866,0c-1.104,0 -2,-0.896 -2,-2l0,-22.865c0,-1.104 0.896,-2 2,-2l22.866,-0c1.104,-0 2,0.896 2,2Z"
   style="fill:#222;"
   id="path193" />
        <path
   d="M722.687,591.254l-0,22.865c-0,1.104 -0.897,2 -2,2l-22.866,0c-1.104,0 -2,-0.896 -2,-2l-0,-22.865c-0,-1.104 0.896,-2 2,-2l22.866,-0c1.103,-0 2,0.896 2,2Z"
   style="fill:#222;"
   id="path194" />
        <path
   d="M754.03,591.254l-0,22.865c-0,1.104 -0.896,2 -2,2l-22.866,0c-1.104,0 -2,-0.896 -2,-2l0,-22.865c0,-1.104 0.896,-2 2,-2l22.866,-0c1.104,-0 2,0.896 2,2Z"
   style="fill:#222;"
   id="path195" />
        <path
   d="M785.373,591.254l0,22.865c0,1.104 -0.896,2 -2,2l-22.866,0c-1.103,0 -2,-0.896 -2,-2l0,-22.865c0,-1.104 0.897,-2 2,-2l22.866,-0c1.104,-0 2,0.896 2,2Z"
   style="fill:#222;"
   id="path196" />
        <path
   d="M816.716,591.254l0,22.865c0,1.104 -0.896,2 -2,2l-22.865,0c-1.104,0 -2,-0.896 -2,-2l-0,-22.865c-0,-1.104 0.896,-2 2,-2l22.865,-0c1.104,-0 2,0.896 2,2Z"
   style="fill:#222;"
   id="path197" />
        <path
   d="M848.06,591.254l-0,22.865c-0,1.104 -0.896,2 -2,2l-22.866,0c-1.104,0 -2,-0.896 -2,-2l0,-22.865c0,-1.104 0.896,-2 2,-2l22.866,-0c1.104,-0 2,0.896 2,2Z"
   style="fill:#222;"
   id="path198" />
        <path
   d="M879.403,591.254l-0,22.865c-0,1.104 -0.896,2 -2,2l-22.866,0c-1.104,0 -2,-0.896 -2,-2l0,-22.865c0,-1.104 0.896,-2 2,-2l22.866,-0c1.104,-0 2,0.896 2,2Z"
   style="fill:#222;"
   id="path199" />
        <path
   d="M942.09,591.254l-0,22.865c-0,1.104 -0.897,2 -2,2l-22.866,0c-1.104,0 -2,-0.896 -2,-2l-0,-22.865c-0,-1.104 0.896,-2 2,-2l22.866,-0c1.103,-0 2,0.896 2,2Z"
   style="fill:#222;"
   id="path200" />
        <path
   d="M973.433,591.254l-0,22.865c-0,1.104 -0.896,2 -2,2l-22.866,0c-1.104,0 -2,-0.896 -2,-2l0,-22.865c0,-1.104 0.896,-2 2,-2l22.866,-0c1.104,-0 2,0.896 2,2Z"
   style="fill:#222;"
   id="path201" />
        <path
   d="M1036.12,591.254l0,22.865c0,1.104 -0.896,2 -2,2l-22.865,0c-1.104,0 -2,-0.896 -2,-2l-0,-22.865c-0,-1.104 0.896,-2 2,-2l22.865,-0c1.104,-0 2,0.896 2,2Z"
   style="fill:#222;"
   id="path202" />
        <path
   d="M1067.46,591.254l-0,22.865c-0,1.104 -0.896,2 -2,2l-22.866,0c-1.104,0 -2,-0.896 -2,-2l0,-22.865c0,-1.104 0.896,-2 2,-2l22.866,-0c1.104,-0 2,0.896 2,2Z"
   style="fill:#222;"
   id="path203" />
        <path
   d="M1098.81,591.254l-0,22.865c-0,1.104 -0.896,2 -2,2l-22.866,0c-1.104,0 -2,-0.896 -2,-2l0,-22.865c0,-1.104 0.896,-2 2,-2l22.866,-0c1.104,-0 2,0.896 2,2Z"
   style="fill:#222;"
   id="path204" />
        <path
   d="M1161.49,591.254l-0,22.865c-0,1.104 -0.897,2 -2,2l-22.866,0c-1.104,0 -2,-0.896 -2,-2l-0,-22.865c-0,-1.104 0.896,-2 2,-2l22.866,-0c1.103,-0 2,0.896 2,2Z"
   style="fill:#222;"
   id="path205" />
        <path
   d="M1192.84,591.254l-0,22.865c-0,1.104 -0.896,2 -2,2l-22.866,0c-1.104,0 -2,-0.896 -2,-2l0,-22.865c0,-1.104 0.896,-2 2,-2l22.866,-0c1.104,-0 2,0.896 2,2Z"
   style="fill:#222;"
   id="path206" />
        <path
   d="M1224.18,591.254l0,22.865c0,1.104 -0.896,2 -2,2l-22.866,0c-1.103,0 -2,-0.896 -2,-2l0,-22.865c0,-1.104 0.897,-2 2,-2l22.866,-0c1.104,-0 2,0.896 2,2Z"
   style="fill:#222;"
   id="path207" />
        <path
   d="M1286.87,591.254l-0,22.865c-0,1.104 -0.896,2 -2,2l-22.866,0c-1.104,0 -2,-0.896 -2,-2l0,-22.865c0,-1.104 0.896,-2 2,-2l22.866,-0c1.104,-0 2,0.896 2,2Z"
   style="fill:#222;"
   id="path208" />
        <path
   d="M1318.21,591.254l-0,22.865c-0,1.104 -0.896,2 -2,2l-22.866,0c-1.104,0 -2,-0.896 -2,-2l0,-22.865c0,-1.104 0.896,-2 2,-2l22.866,-0c1.104,-0 2,0.896 2,2Z"
   style="fill:#222;"
   id="path209" />
        <path
   d="M1349.55,591.254l0,22.865c0,1.104 -0.896,2 -2,2l-22.865,0c-1.104,0 -2,-0.896 -2,-2l-0,-22.865c-0,-1.104 0.896,-2 2,-2l22.865,-0c1.104,-0 2,0.896 2,2Z"
   style="fill:#222;"
   id="path210" />
        <path
   d="M1380.9,591.254l-0,22.865c-0,1.104 -0.897,2 -2,2l-22.866,0c-1.104,0 -2,-0.896 -2,-2l-0,-22.865c-0,-1.104 0.896,-2 2,-2l22.866,-0c1.103,-0 2,0.896 2,2Z"
   style="fill:#222;"
   id="path211" />
        <path
   d="M1412.24,591.254l-0,22.865c-0,1.104 -0.896,2 -2,2l-22.866,0c-1.104,0 -2,-0.896 -2,-2l0,-22.865c0,-1.104 0.896,-2 2,-2l22.866,-0c1.104,-0 2,0.896 2,2Z"
   style="fill:#222;"
   id="path212" />
        <path
   d="M1443.58,591.254l0,22.865c0,1.104 -0.896,2 -2,2l-22.866,0c-1.103,0 -2,-0.896 -2,-2l0,-22.865c0,-1.104 0.897,-2 2,-2l22.866,-0c1.104,-0 2,0.896 2,2Z"
   style="fill:#222;"
   id="path213" />
        <path
   d="M1474.92,591.254l0,22.865c0,1.104 -0.896,2 -2,2l-22.865,0c-1.104,0 -2,-0.896 -2,-2l-0,-22.865c-0,-1.104 0.896,-2 2,-2l22.865,-0c1.104,-0 2,0.896 2,2Z"
   style="fill:#222;"
   id="path214" />
        <path
   d="M1537.61,591.254l-0,22.865c-0,1.104 -0.896,2 -2,2l-22.866,0c-1.104,0 -2,-0.896 -2,-2l0,-22.865c0,-1.104 0.896,-2 2,-2l22.866,-0c1.104,-0 2,0.896 2,2Z"
   style="fill:#222;"
   id="path215" />
        <path
   d="M1568.95,591.254l0,22.865c0,1.104 -0.896,2 -2,2l-22.865,0c-1.104,0 -2,-0.896 -2,-2l-0,-22.865c-0,-1.104 0.896,-2 2,-2l22.865,-0c1.104,-0 2,0.896 2,2Z"
   style="fill:#222;"
   id="path216" />
        <path
   d="M1600.3,591.254l-0,22.865c-0,1.104 -0.897,2 -2,2l-22.866,0c-1.104,0 -2,-0.896 -2,-2l-0,-22.865c-0,-1.104 0.896,-2 2,-2l22.866,-0c1.103,-0 2,0.896 2,2Z"
   style="fill:#222;"
   id="path217" />
        <path
   d="M346.567,622.597l0,22.866c0,1.104 -0.896,2 -2,2l-22.866,-0c-1.103,-0 -2,-0.896 -2,-2l0,-22.866c0,-1.104 0.897,-2 2,-2l22.866,0c1.104,0 2,0.896 2,2Z"
   style="fill:#222;"
   id="path218" />
        <path
   d="M534.627,622.597l-0,22.866c-0,1.104 -0.896,2 -2,2l-22.866,-0c-1.104,-0 -2,-0.896 -2,-2l0,-22.866c0,-1.104 0.896,-2 2,-2l22.866,0c1.104,0 2,0.896 2,2Z"
   style="fill:#222;"
   id="path219" />
        <path
   d="M691.343,622.597l0,22.866c0,1.104 -0.896,2 -2,2l-22.865,-0c-1.104,-0 -2,-0.896 -2,-2l-0,-22.866c-0,-1.104 0.896,-2 2,-2l22.865,0c1.104,0 2,0.896 2,2Z"
   style="fill:#222;"
   id="path220" />
        <path
   d="M722.687,622.597l-0,22.866c-0,1.104 -0.897,2 -2,2l-22.866,-0c-1.104,-0 -2,-0.896 -2,-2l-0,-22.866c-0,-1.104 0.896,-2 2,-2l22.866,0c1.103,0 2,0.896 2,2Z"
   style="fill:#222;"
   id="path221" />
        <path
   d="M754.03,622.597l-0,22.866c-0,1.104 -0.896,2 -2,2l-22.866,-0c-1.104,-0 -2,-0.896 -2,-2l0,-22.866c0,-1.104 0.896,-2 2,-2l22.866,0c1.104,0 2,0.896 2,2Z"
   style="fill:#222;"
   id="path222" />
        <path
   d="M785.373,622.597l0,22.866c0,1.104 -0.896,2 -2,2l-22.866,-0c-1.103,-0 -2,-0.896 -2,-2l0,-22.866c0,-1.104 0.897,-2 2,-2l22.866,0c1.104,0 2,0.896 2,2Z"
   style="fill:#222;"
   id="path223" />
        <path
   d="M816.716,622.597l0,22.866c0,1.104 -0.896,2 -2,2l-22.865,-0c-1.104,-0 -2,-0.896 -2,-2l-0,-22.866c-0,-1.104 0.896,-2 2,-2l22.865,0c1.104,0 2,0.896 2,2Z"
   style="fill:#222;"
   id="path224" />
        <path
   d="M848.06,622.597l-0,22.866c-0,1.104 -0.896,2 -2,2l-22.866,-0c-1.104,-0 -2,-0.896 -2,-2l0,-22.866c0,-1.104 0.896,-2 2,-2l22.866,0c1.104,0 2,0.896 2,2Z"
   style="fill:#222;"
   id="path225" />
        <path
   d="M879.403,622.597l-0,22.866c-0,1.104 -0.896,2 -2,2l-22.866,-0c-1.104,-0 -2,-0.896 -2,-2l0,-22.866c0,-1.104 0.896,-2 2,-2l22.866,0c1.104,0 2,0.896 2,2Z"
   style="fill:#222;"
   id="path226" />
        <path
   d="M942.09,622.597l-0,22.866c-0,1.104 -0.897,2 -2,2l-22.866,-0c-1.104,-0 -2,-0.896 -2,-2l-0,-22.866c-0,-1.104 0.896,-2 2,-2l22.866,0c1.103,0 2,0.896 2,2Z"
   style="fill:#222;"
   id="path227" />
        <path
   d="M973.433,622.597l-0,22.866c-0,1.104 -0.896,2 -2,2l-22.866,-0c-1.104,-0 -2,-0.896 -2,-2l0,-22.866c0,-1.104 0.896,-2 2,-2l22.866,0c1.104,0 2,0.896 2,2Z"
   style="fill:#222;"
   id="path228" />
        <path
   d="M1004.78,622.597l0,22.866c0,1.104 -0.896,2 -2,2l-22.866,-0c-1.103,-0 -2,-0.896 -2,-2l0,-22.866c0,-1.104 0.897,-2 2,-2l22.866,0c1.104,0 2,0.896 2,2Z"
   style="fill:#222;"
   id="path229" />
        <path
   d="M1130.15,622.597l0,22.866c0,1.104 -0.896,2 -2,2l-22.865,-0c-1.104,-0 -2,-0.896 -2,-2l-0,-22.866c-0,-1.104 0.896,-2 2,-2l22.865,0c1.104,0 2,0.896 2,2Z"
   style="fill:#222;"
   id="path230" />
        <path
   d="M1161.49,622.597l-0,22.866c-0,1.104 -0.897,2 -2,2l-22.866,-0c-1.104,-0 -2,-0.896 -2,-2l-0,-22.866c-0,-1.104 0.896,-2 2,-2l22.866,0c1.103,0 2,0.896 2,2Z"
   style="fill:#222;"
   id="path231" />
        <path
   d="M1192.84,622.597l-0,22.866c-0,1.104 -0.896,2 -2,2l-22.866,-0c-1.104,-0 -2,-0.896 -2,-2l0,-22.866c0,-1.104 0.896,-2 2,-2l22.866,0c1.104,0 2,0.896 2,2Z"
   style="fill:#222;"
   id="path232" />
        <path
   d="M1224.18,622.597l0,22.866c0,1.104 -0.896,2 -2,2l-22.866,-0c-1.103,-0 -2,-0.896 -2,-2l0,-22.866c0,-1.104 0.897,-2 2,-2l22.866,0c1.104,0 2,0.896 2,2Z"
   style="fill:#222;"
   id="path233" />
        <path
   d="M1412.24,622.597l-0,22.866c-0,1.104 -0.896,2 -2,2l-22.866,-0c-1.104,-0 -2,-0.896 -2,-2l0,-22.866c0,-1.104 0.896,-2 2,-2l22.866,0c1.104,0 2,0.896 2,2Z"
   style="fill:#222;"
   id="path234" />
        <path
   d="M1443.58,622.597l0,22.866c0,1.104 -0.896,2 -2,2l-22.866,-0c-1.103,-0 -2,-0.896 -2,-2l0,-22.866c0,-1.104 0.897,-2 2,-2l22.866,0c1.104,0 2,0.896 2,2Z"
   style="fill:#222;"
   id="path235" />
        <path
   d="M1474.92,622.597l0,22.866c0,1.104 -0.896,2 -2,2l-22.865,-0c-1.104,-0 -2,-0.896 -2,-2l-0,-22.866c-0,-1.104 0.896,-2 2,-2l22.865,0c1.104,0 2,0.896 2,2Z"
   style="fill:#222;"
   id="path236" />
        <path
   d="M1537.61,622.597l-0,22.866c-0,1.104 -0.896,2 -2,2l-22.866,-0c-1.104,-0 -2,-0.896 -2,-2l0,-22.866c0,-1.104 0.896,-2 2,-2l22.866,0c1.104,0 2,0.896 2,2Z"
   style="fill:#222;"
   id="path237" />
        <path
   d="M1568.95,622.597l0,22.866c0,1.104 -0.896,2 -2,2l-22.865,-0c-1.104,-0 -2,-0.896 -2,-2l-0,-22.866c-0,-1.104 0.896,-2 2,-2l22.865,0c1.104,0 2,0.896 2,2Z"
   style="fill:#222;"
   id="path238" />
        <path
   d="M1600.3,622.597l-0,22.866c-0,1.104 -0.897,2 -2,2l-22.866,-0c-1.104,-0 -2,-0.896 -2,-2l-0,-22.866c-0,-1.104 0.896,-2 2,-2l22.866,0c1.103,0 2,0.896 2,2Z"
   style="fill:#222;"
   id="path239" />
        <path
   d="M346.567,653.94l0,22.866c0,1.104 -0.896,2 -2,2l-22.866,-0c-1.103,-0 -2,-0.896 -2,-2l0,-22.866c0,-1.104 0.897,-2 2,-2l22.866,0c1.104,0 2,0.896 2,2Z"
   style="fill:#222;"
   id="path240" />
        <path
   d="M377.91,653.94l0,22.866c0,1.104 -0.896,2 -2,2l-22.865,-0c-1.104,-0 -2,-0.896 -2,-2l-0,-22.866c-0,-1.104 0.896,-2 2,-2l22.865,0c1.104,0 2,0.896 2,2Z"
   style="fill:#222;"
   id="path241" />
        <path
   d="M409.254,653.94l-0,22.866c-0,1.104 -0.896,2 -2,2l-22.866,-0c-1.104,-0 -2,-0.896 -2,-2l0,-22.866c0,-1.104 0.896,-2 2,-2l22.866,0c1.104,0 2,0.896 2,2Z"
   style="fill:#222;"
   id="path242" />
        <path
   d="M440.597,653.94l0,22.866c0,1.104 -0.896,2 -2,2l-22.866,-0c-1.103,-0 -2,-0.896 -2,-2l0,-22.866c0,-1.104 0.897,-2 2,-2l22.866,0c1.104,0 2,0.896 2,2Z"
   style="fill:#222;"
   id="path243" />
        <path
   d="M471.94,653.94l0,22.866c0,1.104 -0.896,2 -2,2l-22.865,-0c-1.104,-0 -2,-0.896 -2,-2l-0,-22.866c-0,-1.104 0.896,-2 2,-2l22.865,0c1.104,0 2,0.896 2,2Z"
   style="fill:#222;"
   id="path244" />
        <path
   d="M503.284,653.94l-0,22.866c-0,1.104 -0.897,2 -2,2l-22.866,-0c-1.104,-0 -2,-0.896 -2,-2l-0,-22.866c-0,-1.104 0.896,-2 2,-2l22.866,0c1.103,0 2,0.896 2,2Z"
   style="fill:#222;"
   id="path245" />
        <path
   d="M534.627,653.94l-0,22.866c-0,1.104 -0.896,2 -2,2l-22.866,-0c-1.104,-0 -2,-0.896 -2,-2l0,-22.866c0,-1.104 0.896,-2 2,-2l22.866,0c1.104,0 2,0.896 2,2Z"
   style="fill:#222;"
   id="path246" />
        <path
   d="M565.97,653.94l0,22.866c0,1.104 -0.896,2 -2,2l-22.866,-0c-1.103,-0 -2,-0.896 -2,-2l0,-22.866c0,-1.104 0.897,-2 2,-2l22.866,0c1.104,0 2,0.896 2,2Z"
   style="fill:#222;"
   id="path247" />
        <path
   d="M597.313,653.94l0,22.866c0,1.104 -0.896,2 -2,2l-22.865,-0c-1.104,-0 -2,-0.896 -2,-2l-0,-22.866c-0,-1.104 0.896,-2 2,-2l22.865,0c1.104,0 2,0.896 2,2Z"
   style="fill:#222;"
   id="path248" />
        <path
   d="M628.657,653.94l-0,22.866c-0,1.104 -0.896,2 -2,2l-22.866,-0c-1.104,-0 -2,-0.896 -2,-2l0,-22.866c0,-1.104 0.896,-2 2,-2l22.866,0c1.104,0 2,0.896 2,2Z"
   style="fill:#222;"
   id="path249" />
        <path
   d="M660,653.94l0,22.866c0,1.104 -0.896,2 -2,2l-22.866,-0c-1.104,-0 -2,-0.896 -2,-2l0,-22.866c0,-1.104 0.896,-2 2,-2l22.866,0c1.104,0 2,0.896 2,2Z"
   style="fill:#222;"
   id="path250" />
        <path
   d="M691.343,653.94l0,22.866c0,1.104 -0.896,2 -2,2l-22.865,-0c-1.104,-0 -2,-0.896 -2,-2l-0,-22.866c-0,-1.104 0.896,-2 2,-2l22.865,0c1.104,0 2,0.896 2,2Z"
   style="fill:#222;"
   id="path251" />
        <path
   d="M722.687,653.94l-0,22.866c-0,1.104 -0.897,2 -2,2l-22.866,-0c-1.104,-0 -2,-0.896 -2,-2l-0,-22.866c-0,-1.104 0.896,-2 2,-2l22.866,0c1.103,0 2,0.896 2,2Z"
   style="fill:#222;"
   id="path252" />
        <path
   d="M754.03,653.94l-0,22.866c-0,1.104 -0.896,2 -2,2l-22.866,-0c-1.104,-0 -2,-0.896 -2,-2l0,-22.866c0,-1.104 0.896,-2 2,-2l22.866,0c1.104,0 2,0.896 2,2Z"
   style="fill:#222;"
   id="path253" />
        <path
   d="M785.373,653.94l0,22.866c0,1.104 -0.896,2 -2,2l-22.866,-0c-1.103,-0 -2,-0.896 -2,-2l0,-22.866c0,-1.104 0.897,-2 2,-2l22.866,0c1.104,0 2,0.896 2,2Z"
   style="fill:#222;"
   id="path254" />
        <path
   d="M816.716,653.94l0,22.866c0,1.104 -0.896,2 -2,2l-22.865,-0c-1.104,-0 -2,-0.896 -2,-2l-0,-22.866c-0,-1.104 0.896,-2 2,-2l22.865,0c1.104,0 2,0.896 2,2Z"
   style="fill:#222;"
   id="path255" />
        <path
   d="M848.06,653.94l-0,22.866c-0,1.104 -0.896,2 -2,2l-22.866,-0c-1.104,-0 -2,-0.896 -2,-2l0,-22.866c0,-1.104 0.896,-2 2,-2l22.866,0c1.104,0 2,0.896 2,2Z"
   style="fill:#222;"
   id="path256" />
        <path
   d="M879.403,653.94l-0,22.866c-0,1.104 -0.896,2 -2,2l-22.866,-0c-1.104,-0 -2,-0.896 -2,-2l0,-22.866c0,-1.104 0.896,-2 2,-2l22.866,0c1.104,0 2,0.896 2,2Z"
   style="fill:#222;"
   id="path257" />
        <path
   d="M910.746,653.94l0,22.866c0,1.104 -0.896,2 -2,2l-22.865,-0c-1.104,-0 -2,-0.896 -2,-2l-0,-22.866c-0,-1.104 0.896,-2 2,-2l22.865,0c1.104,0 2,0.896 2,2Z"
   style="fill:#222;"
   id="path258" />
        <path
   d="M942.09,653.94l-0,22.866c-0,1.104 -0.897,2 -2,2l-22.866,-0c-1.104,-0 -2,-0.896 -2,-2l-0,-22.866c-0,-1.104 0.896,-2 2,-2l22.866,0c1.103,0 2,0.896 2,2Z"
   style="fill:#222;"
   id="path259" />
        <path
   d="M973.433,653.94l-0,22.866c-0,1.104 -0.896,2 -2,2l-22.866,-0c-1.104,-0 -2,-0.896 -2,-2l0,-22.866c0,-1.104 0.896,-2 2,-2l22.866,0c1.104,0 2,0.896 2,2Z"
   style="fill:#222;"
   id="path260" />
        <path
   d="M1004.78,653.94l0,22.866c0,1.104 -0.896,2 -2,2l-22.866,-0c-1.103,-0 -2,-0.896 -2,-2l0,-22.866c0,-1.104 0.897,-2 2,-2l22.866,0c1.104,0 2,0.896 2,2Z"
   style="fill:#222;"
   id="path261" />
        <path
   d="M1036.12,653.94l0,22.866c0,1.104 -0.896,2 -2,2l-22.865,-0c-1.104,-0 -2,-0.896 -2,-2l-0,-22.866c-0,-1.104 0.896,-2 2,-2l22.865,0c1.104,0 2,0.896 2,2Z"
   style="fill:#222;"
   id="path262" />
        <path
   d="M1067.46,653.94l-0,22.866c-0,1.104 -0.896,2 -2,2l-22.866,-0c-1.104,-0 -2,-0.896 -2,-2l0,-22.866c0,-1.104 0.896,-2 2,-2l22.866,0c1.104,0 2,0.896 2,2Z"
   style="fill:#222;"
   id="path263" />
        <path
   d="M1098.81,653.94l-0,22.866c-0,1.104 -0.896,2 -2,2l-22.866,-0c-1.104,-0 -2,-0.896 -2,-2l0,-22.866c0,-1.104 0.896,-2 2,-2l22.866,0c1.104,0 2,0.896 2,2Z"
   style="fill:#222;"
   id="path264" />
        <path
   d="M1130.15,653.94l0,22.866c0,1.104 -0.896,2 -2,2l-22.865,-0c-1.104,-0 -2,-0.896 -2,-2l-0,-22.866c-0,-1.104 0.896,-2 2,-2l22.865,0c1.104,0 2,0.896 2,2Z"
   style="fill:#222;"
   id="path265" />
        <path
   d="M1161.49,653.94l-0,22.866c-0,1.104 -0.897,2 -2,2l-22.866,-0c-1.104,-0 -2,-0.896 -2,-2l-0,-22.866c-0,-1.104 0.896,-2 2,-2l22.866,0c1.103,0 2,0.896 2,2Z"
   style="fill:#222;"
   id="path266" />
        <path
   d="M1192.84,653.94l-0,22.866c-0,1.104 -0.896,2 -2,2l-22.866,-0c-1.104,-0 -2,-0.896 -2,-2l0,-22.866c0,-1.104 0.896,-2 2,-2l22.866,0c1.104,0 2,0.896 2,2Z"
   style="fill:#222;"
   id="path267" />
        <path
   d="M1224.18,653.94l0,22.866c0,1.104 -0.896,2 -2,2l-22.866,-0c-1.103,-0 -2,-0.896 -2,-2l0,-22.866c0,-1.104 0.897,-2 2,-2l22.866,0c1.104,0 2,0.896 2,2Z"
   style="fill:#222;"
   id="path268" />
        <path
   d="M1255.52,653.94l0,22.866c0,1.104 -0.896,2 -2,2l-22.865,-0c-1.104,-0 -2,-0.896 -2,-2l-0,-22.866c-0,-1.104 0.896,-2 2,-2l22.865,0c1.104,0 2,0.896 2,2Z"
   style="fill:#222;"
   id="path269" />
        <path
   d="M1286.87,653.94l-0,22.866c-0,1.104 -0.896,2 -2,2l-22.866,-0c-1.104,-0 -2,-0.896 -2,-2l0,-22.866c0,-1.104 0.896,-2 2,-2l22.866,0c1.104,0 2,0.896 2,2Z"
   style="fill:#222;"
   id="path270" />
        <path
   d="M1318.21,653.94l-0,22.866c-0,1.104 -0.896,2 -2,2l-22.866,-0c-1.104,-0 -2,-0.896 -2,-2l0,-22.866c0,-1.104 0.896,-2 2,-2l22.866,0c1.104,0 2,0.896 2,2Z"
   style="fill:#222;"
   id="path271" />
        <path
   d="M1349.55,653.94l0,22.866c0,1.104 -0.896,2 -2,2l-22.865,-0c-1.104,-0 -2,-0.896 -2,-2l-0,-22.866c-0,-1.104 0.896,-2 2,-2l22.865,0c1.104,0 2,0.896 2,2Z"
   style="fill:#222;"
   id="path272" />
        <path
   d="M1380.9,653.94l-0,22.866c-0,1.104 -0.897,2 -2,2l-22.866,-0c-1.104,-0 -2,-0.896 -2,-2l-0,-22.866c-0,-1.104 0.896,-2 2,-2l22.866,0c1.103,0 2,0.896 2,2Z"
   style="fill:#222;"
   id="path273" />
        <path
   d="M1412.24,653.94l-0,22.866c-0,1.104 -0.896,2 -2,2l-22.866,-0c-1.104,-0 -2,-0.896 -2,-2l0,-22.866c0,-1.104 0.896,-2 2,-2l22.866,0c1.104,0 2,0.896 2,2Z"
   style="fill:#222;"
   id="path274" />
        <path
   d="M1443.58,653.94l0,22.866c0,1.104 -0.896,2 -2,2l-22.866,-0c-1.103,-0 -2,-0.896 -2,-2l0,-22.866c0,-1.104 0.897,-2 2,-2l22.866,0c1.104,0 2,0.896 2,2Z"
   style="fill:#222;"
   id="path275" />
        <path
   d="M1474.92,653.94l0,22.866c0,1.104 -0.896,2 -2,2l-22.865,-0c-1.104,-0 -2,-0.896 -2,-2l-0,-22.866c-0,-1.104 0.896,-2 2,-2l22.865,0c1.104,0 2,0.896 2,2Z"
   style="fill:#222;"
   id="path276" />
        <path
   d="M1506.27,653.94l-0,22.866c-0,1.104 -0.897,2 -2,2l-22.866,-0c-1.104,-0 -2,-0.896 -2,-2l-0,-22.866c-0,-1.104 0.896,-2 2,-2l22.866,0c1.103,0 2,0.896 2,2Z"
   style="fill:#222;"
   id="path277" />
        <path
   d="M1537.61,653.94l-0,22.866c-0,1.104 -0.896,2 -2,2l-22.866,-0c-1.104,-0 -2,-0.896 -2,-2l0,-22.866c0,-1.104 0.896,-2 2,-2l22.866,0c1.104,0 2,0.896 2,2Z"
   style="fill:#222;"
   id="path278" />
        <path
   d="M1568.95,653.94l0,22.866c0,1.104 -0.896,2 -2,2l-22.865,-0c-1.104,-0 -2,-0.896 -2,-2l-0,-22.866c-0,-1.104 0.896,-2 2,-2l22.865,0c1.104,0 2,0.896 2,2Z"
   style="fill:#222;"
   id="path279" />
        <path
   d="M1600.3,653.94l-0,22.866c-0,1.104 -0.897,2 -2,2l-22.866,-0c-1.104,-0 -2,-0.896 -2,-2l-0,-22.866c-0,-1.104 0.896,-2 2,-2l22.866,0c1.103,0 2,0.896 2,2Z"
   style="fill:#222;"
   id="path280" />
    </g>
    <g
   id="g284">
        <path
   d="M754.03,497.224l-0,22.866c-0,1.103 -0.896,2 -2,2l-22.866,-0c-1.104,-0 -2,-0.897 -2,-2l0,-22.866c0,-1.104 0.896,-2 2,-2l22.866,-0c1.104,-0 2,0.896 2,2Z"
   style="fill:#f44;"
   id="path281" />
        <path
   d="M1192.84,497.224l-0,22.866c-0,1.103 -0.896,2 -2,2l-22.866,-0c-1.104,-0 -2,-0.897 -2,-2l0,-22.866c0,-1.104 0.896,-2 2,-2l22.866,-0c1.104,-0 2,0.896 2,2Z"
   style="fill:#f44;"
   id="path282" />
        <path
   d="M754.03,559.91l-0,22.866c-0,1.104 -0.896,2 -2,2l-22.866,0c-1.104,0 -2,-0.896 -2,-2l0,-22.866c0,-1.103 0.896,-2 2,-2l22.866,0c1.104,0 2,0.897 2,2Z"
   style="fill:#f44;"
   id="path283" />
        <path
   d="M1192.84,559.91l-0,22.866c-0,1.104 -0.896,2 -2,2l-22.866,0c-1.104,0 -2,-0.896 -2,-2l0,-22.866c0,-1.103 0.896,-2 2,-2l22.866,0c1.104,0 2,0.897 2,2Z"
   style="fill:#f44;"
   id="path284" />
    </g>
    <g
   id="g369">
        <path
   d="M377.91,434.537l0,22.866c0,1.104 -0.896,2 -2,2l-22.865,-0c-1.104,-0 -2,-0.896 -2,-2l-0,-22.866c-0,-1.104 0.896,-2 2,-2l22.865,0c1.104,0 2,0.896 2,2Z"
   style="fill:#fff;"
   id="path285" />
        <path
   d="M409.254,434.537l-0,22.866c-0,1.104 -0.896,2 -2,2l-22.866,-0c-1.104,-0 -2,-0.896 -2,-2l0,-22.866c0,-1.104 0.896,-2 2,-2l22.866,0c1.104,0 2,0.896 2,2Z"
   style="fill:#fff;"
   id="path286" />
        <path
   d="M440.597,434.537l0,22.866c0,1.104 -0.896,2 -2,2l-22.866,-0c-1.103,-0 -2,-0.896 -2,-2l0,-22.866c0,-1.104 0.897,-2 2,-2l22.866,0c1.104,0 2,0.896 2,2Z"
   style="fill:#fff;"
   id="path287" />
        <path
   d="M565.97,434.537l0,22.866c0,1.104 -0.896,2 -2,2l-22.866,-0c-1.103,-0 -2,-0.896 -2,-2l0,-22.866c0,-1.104 0.897,-2 2,-2l22.866,0c1.104,0 2,0.896 2,2Z"
   style="fill:#fff;"
   id="path288" />
        <path
   d="M597.313,434.537l0,22.866c0,1.104 -0.896,2 -2,2l-22.865,-0c-1.104,-0 -2,-0.896 -2,-2l-0,-22.866c-0,-1.104 0.896,-2 2,-2l22.865,0c1.104,0 2,0.896 2,2Z"
   style="fill:#fff;"
   id="path289" />
        <path
   d="M628.657,434.537l-0,22.866c-0,1.104 -0.896,2 -2,2l-22.866,-0c-1.104,-0 -2,-0.896 -2,-2l0,-22.866c0,-1.104 0.896,-2 2,-2l22.866,0c1.104,0 2,0.896 2,2Z"
   style="fill:#fff;"
   id="path290" />
        <path
   d="M660,434.537l0,22.866c0,1.104 -0.896,2 -2,2l-22.866,-0c-1.104,-0 -2,-0.896 -2,-2l0,-22.866c0,-1.104 0.896,-2 2,-2l22.866,0c1.104,0 2,0.896 2,2Z"
   style="fill:#fff;"
   id="path291" />
        <path
   d="M910.746,434.537l0,22.866c0,1.104 -0.896,2 -2,2l-22.865,-0c-1.104,-0 -2,-0.896 -2,-2l-0,-22.866c-0,-1.104 0.896,-2 2,-2l22.865,0c1.104,0 2,0.896 2,2Z"
   style="fill:#fff;"
   id="path292" />
        <path
   d="M1036.12,434.537l0,22.866c0,1.104 -0.896,2 -2,2l-22.865,-0c-1.104,-0 -2,-0.896 -2,-2l-0,-22.866c-0,-1.104 0.896,-2 2,-2l22.865,0c1.104,0 2,0.896 2,2Z"
   style="fill:#fff;"
   id="path293" />
        <path
   d="M1067.46,434.537l-0,22.866c-0,1.104 -0.896,2 -2,2l-22.866,-0c-1.104,-0 -2,-0.896 -2,-2l0,-22.866c0,-1.104 0.896,-2 2,-2l22.866,0c1.104,0 2,0.896 2,2Z"
   style="fill:#fff;"
   id="path294" />
        <path
   d="M1098.81,434.537l-0,22.866c-0,1.104 -0.896,2 -2,2l-22.866,-0c-1.104,-0 -2,-0.896 -2,-2l0,-22.866c0,-1.104 0.896,-2 2,-2l22.866,0c1.104,0 2,0.896 2,2Z"
   style="fill:#fff;"
   id="path295" />
        <path
   d="M1255.52,434.537l0,22.866c0,1.104 -0.896,2 -2,2l-22.865,-0c-1.104,-0 -2,-0.896 -2,-2l-0,-22.866c-0,-1.104 0.896,-2 2,-2l22.865,0c1.104,0 2,0.896 2,2Z"
   style="fill:#fff;"
   id="path296" />
        <path
   d="M1286.87,434.537l-0,22.866c-0,1.104 -0.896,2 -2,2l-22.866,-0c-1.104,-0 -2,-0.896 -2,-2l0,-22.866c0,-1.104 0.896,-2 2,-2l22.866,0c1.104,0 2,0.896 2,2Z"
   style="fill:#fff;"
   id="path297" />
        <path
   d="M1318.21,434.537l-0,22.866c-0,1.104 -0.896,2 -2,2l-22.866,-0c-1.104,-0 -2,-0.896 -2,-2l0,-22.866c0,-1.104 0.896,-2 2,-2l22.866,0c1.104,0 2,0.896 2,2Z"
   style="fill:#fff;"
   id="path298" />
        <path
   d="M1349.55,434.537l0,22.866c0,1.104 -0.896,2 -2,2l-22.865,-0c-1.104,-0 -2,-0.896 -2,-2l-0,-22.866c-0,-1.104 0.896,-2 2,-2l22.865,0c1.104,0 2,0.896 2,2Z"
   style="fill:#fff;"
   id="path299" />
        <path
   d="M1443.58,434.537l0,22.866c0,1.104 -0.896,2 -2,2l-22.866,-0c-1.103,-0 -2,-0.896 -2,-2l0,-22.866c0,-1.104 0.897,-2 2,-2l22.866,0c1.104,0 2,0.896 2,2Z"
   style="fill:#fff;"
   id="path300" />
        <path
   d="M1474.92,434.537l0,22.866c0,1.104 -0.896,2 -2,2l-22.865,-0c-1.104,-0 -2,-0.896 -2,-2l-0,-22.866c-0,-1.104 0.896,-2 2,-2l22.865,0c1.104,0 2,0.896 2,2Z"
   style="fill:#fff;"
   id="path301" />
        <path
   d="M1506.27,434.537l-0,22.866c-0,1.104 -0.897,2 -2,2l-22.866,-0c-1.104,-0 -2,-0.896 -2,-2l-0,-22.866c-0,-1.104 0.896,-2 2,-2l22.866,0c1.103,0 2,0.896 2,2Z"
   style="fill:#fff;"
   id="path302" />
        <path
   d="M1537.61,434.537l-0,22.866c-0,1.104 -0.896,2 -2,2l-22.866,-0c-1.104,-0 -2,-0.896 -2,-2l0,-22.866c0,-1.104 0.896,-2 2,-2l22.866,0c1.104,0 2,0.896 2,2Z"
   style="fill:#fff;"
   id="path303" />
        <path
   d="M1568.95,434.537l0,22.866c0,1.104 -0.896,2 -2,2l-22.865,-0c-1.104,-0 -2,-0.896 -2,-2l-0,-22.866c-0,-1.104 0.896,-2 2,-2l22.865,0c1.104,0 2,0.896 2,2Z"
   style="fill:#fff;"
   id="path304" />
        <path
   d="M440.597,465.881l0,22.865c0,1.104 -0.896,2 -2,2l-22.866,0c-1.103,0 -2,-0.896 -2,-2l0,-22.865c0,-1.104 0.897,-2 2,-2l22.866,-0c1.104,-0 2,0.896 2,2Z"
   style="fill:#fff;"
   id="path305" />
        <path
   d="M691.343,465.881l0,22.865c0,1.104 -0.896,2 -2,2l-22.865,0c-1.104,0 -2,-0.896 -2,-2l-0,-22.865c-0,-1.104 0.896,-2 2,-2l22.865,-0c1.104,-0 2,0.896 2,2Z"
   style="fill:#fff;"
   id="path306" />
        <path
   d="M816.716,465.881l0,22.865c0,1.104 -0.896,2 -2,2l-22.865,0c-1.104,0 -2,-0.896 -2,-2l-0,-22.865c-0,-1.104 0.896,-2 2,-2l22.865,-0c1.104,-0 2,0.896 2,2Z"
   style="fill:#fff;"
   id="path307" />
        <path
   d="M910.746,465.881l0,22.865c0,1.104 -0.896,2 -2,2l-22.865,0c-1.104,0 -2,-0.896 -2,-2l-0,-22.865c-0,-1.104 0.896,-2 2,-2l22.865,-0c1.104,-0 2,0.896 2,2Z"
   style="fill:#fff;"
   id="path308" />
        <path
   d="M1004.78,465.881l0,22.865c0,1.104 -0.896,2 -2,2l-22.866,0c-1.103,0 -2,-0.896 -2,-2l0,-22.865c0,-1.104 0.897,-2 2,-2l22.866,-0c1.104,-0 2,0.896 2,2Z"
   style="fill:#fff;"
   id="path309" />
        <path
   d="M1130.15,465.881l0,22.865c0,1.104 -0.896,2 -2,2l-22.865,0c-1.104,0 -2,-0.896 -2,-2l-0,-22.865c-0,-1.104 0.896,-2 2,-2l22.865,-0c1.104,-0 2,0.896 2,2Z"
   style="fill:#fff;"
   id="path310" />
        <path
   d="M1380.9,465.881l-0,22.865c-0,1.104 -0.897,2 -2,2l-22.866,0c-1.104,0 -2,-0.896 -2,-2l-0,-22.865c-0,-1.104 0.896,-2 2,-2l22.866,-0c1.103,-0 2,0.896 2,2Z"
   style="fill:#fff;"
   id="path311" />
        <path
   d="M1568.95,465.881l0,22.865c0,1.104 -0.896,2 -2,2l-22.865,0c-1.104,0 -2,-0.896 -2,-2l-0,-22.865c-0,-1.104 0.896,-2 2,-2l22.865,-0c1.104,-0 2,0.896 2,2Z"
   style="fill:#fff;"
   id="path312" />
        <path
   d="M440.597,497.224l0,22.866c0,1.103 -0.896,2 -2,2l-22.866,-0c-1.103,-0 -2,-0.897 -2,-2l0,-22.866c0,-1.104 0.897,-2 2,-2l22.866,-0c1.104,-0 2,0.896 2,2Z"
   style="fill:#fff;"
   id="path313" />
        <path
   d="M691.343,497.224l0,22.866c0,1.103 -0.896,2 -2,2l-22.865,-0c-1.104,-0 -2,-0.897 -2,-2l-0,-22.866c-0,-1.104 0.896,-2 2,-2l22.865,-0c1.104,-0 2,0.896 2,2Z"
   style="fill:#fff;"
   id="path314" />
        <path
   d="M816.716,497.224l0,22.866c0,1.103 -0.896,2 -2,2l-22.865,-0c-1.104,-0 -2,-0.897 -2,-2l-0,-22.866c-0,-1.104 0.896,-2 2,-2l22.865,-0c1.104,-0 2,0.896 2,2Z"
   style="fill:#fff;"
   id="path315" />
        <path
   d="M910.746,497.224l0,22.866c0,1.103 -0.896,2 -2,2l-22.865,-0c-1.104,-0 -2,-0.897 -2,-2l-0,-22.866c-0,-1.104 0.896,-2 2,-2l22.865,-0c1.104,-0 2,0.896 2,2Z"
   style="fill:#fff;"
   id="path316" />
        <path
   d="M1004.78,497.224l0,22.866c0,1.103 -0.896,2 -2,2l-22.866,-0c-1.103,-0 -2,-0.897 -2,-2l0,-22.866c0,-1.104 0.897,-2 2,-2l22.866,-0c1.104,-0 2,0.896 2,2Z"
   style="fill:#fff;"
   id="path317" />
        <path
   d="M1130.15,497.224l0,22.866c0,1.103 -0.896,2 -2,2l-22.865,-0c-1.104,-0 -2,-0.897 -2,-2l-0,-22.866c-0,-1.104 0.896,-2 2,-2l22.865,-0c1.104,-0 2,0.896 2,2Z"
   style="fill:#fff;"
   id="path318" />
        <path
   d="M1380.9,497.224l-0,22.866c-0,1.103 -0.897,2 -2,2l-22.866,-0c-1.104,-0 -2,-0.897 -2,-2l-0,-22.866c-0,-1.104 0.896,-2 2,-2l22.866,-0c1.103,-0 2,0.896 2,2Z"
   style="fill:#fff;"
   id="path319" />
        <path
   d="M1537.61,497.224l-0,22.866c-0,1.103 -0.896,2 -2,2l-22.866,-0c-1.104,-0 -2,-0.897 -2,-2l0,-22.866c0,-1.104 0.896,-2 2,-2l22.866,-0c1.104,-0 2,0.896 2,2Z"
   style="fill:#fff;"
   id="path320" />
        <path
   d="M440.597,528.567l0,22.866c0,1.104 -0.896,2 -2,2l-22.866,-0c-1.103,-0 -2,-0.896 -2,-2l0,-22.866c0,-1.104 0.897,-2 2,-2l22.866,0c1.104,0 2,0.896 2,2Z"
   style="fill:#fff;"
   id="path321" />
        <path
   d="M597.313,528.567l0,22.866c0,1.104 -0.896,2 -2,2l-22.865,-0c-1.104,-0 -2,-0.896 -2,-2l-0,-22.866c-0,-1.104 0.896,-2 2,-2l22.865,0c1.104,0 2,0.896 2,2Z"
   style="fill:#fff;"
   id="path322" />
        <path
   d="M628.657,528.567l-0,22.866c-0,1.104 -0.896,2 -2,2l-22.866,-0c-1.104,-0 -2,-0.896 -2,-2l0,-22.866c0,-1.104 0.896,-2 2,-2l22.866,0c1.104,0 2,0.896 2,2Z"
   style="fill:#fff;"
   id="path323" />
        <path
   d="M660,528.567l0,22.866c0,1.104 -0.896,2 -2,2l-22.866,-0c-1.104,-0 -2,-0.896 -2,-2l0,-22.866c0,-1.104 0.896,-2 2,-2l22.866,0c1.104,0 2,0.896 2,2Z"
   style="fill:#fff;"
   id="path324" />
        <path
   d="M816.716,528.567l0,22.866c0,1.104 -0.896,2 -2,2l-22.865,-0c-1.104,-0 -2,-0.896 -2,-2l-0,-22.866c-0,-1.104 0.896,-2 2,-2l22.865,0c1.104,0 2,0.896 2,2Z"
   style="fill:#fff;"
   id="path325" />
        <path
   d="M848.06,528.567l-0,22.866c-0,1.104 -0.896,2 -2,2l-22.866,-0c-1.104,-0 -2,-0.896 -2,-2l0,-22.866c0,-1.104 0.896,-2 2,-2l22.866,0c1.104,0 2,0.896 2,2Z"
   style="fill:#1a1a1a"
   id="path326" />
        <path
   d="M879.403,528.567l-0,22.866c-0,1.104 -0.896,2 -2,2l-22.866,-0c-1.104,-0 -2,-0.896 -2,-2l0,-22.866c0,-1.104 0.896,-2 2,-2l22.866,0c1.104,0 2,0.896 2,2Z"
   style="fill:#1a1a1a"
   id="path327" />
        <path
   d="M910.746,528.567l0,22.866c0,1.104 -0.896,2 -2,2l-22.865,-0c-1.104,-0 -2,-0.896 -2,-2l-0,-22.866c-0,-1.104 0.896,-2 2,-2l22.865,0c1.104,0 2,0.896 2,2Z"
   style="fill:#fff;"
   id="path328" />
        <path
   d="M942.09,528.567l-0,22.866c-0,1.104 -0.897,2 -2,2l-22.866,-0c-1.104,-0 -2,-0.896 -2,-2l-0,-22.866c-0,-1.104 0.896,-2 2,-2l22.866,0c1.103,0 2,0.896 2,2Z"
   style="fill:#1a1a1a"
   id="path329" />
        <path
   d="M1036.12,528.567l0,22.866c0,1.104 -0.896,2 -2,2l-22.865,-0c-1.104,-0 -2,-0.896 -2,-2l-0,-22.866c-0,-1.104 0.896,-2 2,-2l22.865,0c1.104,0 2,0.896 2,2Z"
   style="fill:#fff;"
   id="path330" />
        <path
   d="M1067.46,528.567l-0,22.866c-0,1.104 -0.896,2 -2,2l-22.866,-0c-1.104,-0 -2,-0.896 -2,-2l0,-22.866c0,-1.104 0.896,-2 2,-2l22.866,0c1.104,0 2,0.896 2,2Z"
   style="fill:#fff;"
   id="path331" />
        <path
   d="M1098.81,528.567l-0,22.866c-0,1.104 -0.896,2 -2,2l-22.866,-0c-1.104,-0 -2,-0.896 -2,-2l0,-22.866c0,-1.104 0.896,-2 2,-2l22.866,0c1.104,0 2,0.896 2,2Z"
   style="fill:#fff;"
   id="path332" />
        <path
   d="M1286.87,528.567l-0,22.866c-0,1.104 -0.896,2 -2,2l-22.866,-0c-1.104,-0 -2,-0.896 -2,-2l0,-22.866c0,-1.104 0.896,-2 2,-2l22.866,0c1.104,0 2,0.896 2,2Z"
   style="fill:#fff;"
   id="path333" />
        <path
   d="M1318.21,528.567l-0,22.866c-0,1.104 -0.896,2 -2,2l-22.866,-0c-1.104,-0 -2,-0.896 -2,-2l0,-22.866c0,-1.104 0.896,-2 2,-2l22.866,0c1.104,0 2,0.896 2,2Z"
   style="fill:#fff;"
   id="path334" />
        <path
   d="M1349.55,528.567l0,22.866c0,1.104 -0.896,2 -2,2l-22.865,-0c-1.104,-0 -2,-0.896 -2,-2l-0,-22.866c-0,-1.104 0.896,-2 2,-2l22.865,0c1.104,0 2,0.896 2,2Z"
   style="fill:#fff;"
   id="path335" />
        <path
   d="M1506.27,528.567l-0,22.866c-0,1.104 -0.897,2 -2,2l-22.866,-0c-1.104,-0 -2,-0.896 -2,-2l-0,-22.866c-0,-1.104 0.896,-2 2,-2l22.866,0c1.103,0 2,0.896 2,2Z"
   style="fill:#fff;"
   id="path336" />
        <path
   d="M440.597,559.91l0,22.866c0,1.104 -0.896,2 -2,2l-22.866,0c-1.103,0 -2,-0.896 -2,-2l0,-22.866c0,-1.103 0.897,-2 2,-2l22.866,0c1.104,0 2,0.897 2,2Z"
   style="fill:#fff;"
   id="path337" />
        <path
   d="M691.343,559.91l0,22.866c0,1.104 -0.896,2 -2,2l-22.865,0c-1.104,0 -2,-0.896 -2,-2l-0,-22.866c-0,-1.103 0.896,-2 2,-2l22.865,0c1.104,0 2,0.897 2,2Z"
   style="fill:#fff;"
   id="path338" />
        <path
   d="M910.746,559.91l0,22.866c0,1.104 -0.896,2 -2,2l-22.865,0c-1.104,0 -2,-0.896 -2,-2l-0,-22.866c-0,-1.103 0.896,-2 2,-2l22.865,0c1.104,0 2,0.897 2,2Z"
   style="fill:#fff;"
   id="path339" />
        <path
   d="M1004.78,559.91l0,22.866c0,1.104 -0.896,2 -2,2l-22.866,0c-1.103,0 -2,-0.896 -2,-2l0,-22.866c0,-1.103 0.897,-2 2,-2l22.866,0c1.104,0 2,0.897 2,2Z"
   style="fill:#fff;"
   id="path340" />
        <path
   d="M1130.15,559.91l0,22.866c0,1.104 -0.896,2 -2,2l-22.865,0c-1.104,0 -2,-0.896 -2,-2l-0,-22.866c-0,-1.103 0.896,-2 2,-2l22.865,0c1.104,0 2,0.897 2,2Z"
   style="fill:#fff;"
   id="path341" />
        <path
   d="M1255.52,559.91l0,22.866c0,1.104 -0.896,2 -2,2l-22.865,0c-1.104,0 -2,-0.896 -2,-2l-0,-22.866c-0,-1.103 0.896,-2 2,-2l22.865,0c1.104,0 2,0.897 2,2Z"
   style="fill:#fff;"
   id="path342" />
        <path
   d="M1506.27,559.91l-0,22.866c-0,1.104 -0.897,2 -2,2l-22.866,0c-1.104,0 -2,-0.896 -2,-2l-0,-22.866c-0,-1.103 0.896,-2 2,-2l22.866,0c1.103,0 2,0.897 2,2Z"
   style="fill:#fff;"
   id="path343" />
        <path
   d="M440.597,591.254l0,22.865c0,1.104 -0.896,2 -2,2l-22.866,0c-1.103,0 -2,-0.896 -2,-2l0,-22.865c0,-1.104 0.897,-2 2,-2l22.866,-0c1.104,-0 2,0.896 2,2Z"
   style="fill:#fff;"
   id="path344" />
        <path
   d="M691.343,591.254l0,22.865c0,1.104 -0.896,2 -2,2l-22.865,0c-1.104,0 -2,-0.896 -2,-2l-0,-22.865c-0,-1.104 0.896,-2 2,-2l22.865,-0c1.104,-0 2,0.896 2,2Z"
   style="fill:#fff;"
   id="path345" />
        <path
   d="M910.746,591.254l0,22.865c0,1.104 -0.896,2 -2,2l-22.865,0c-1.104,0 -2,-0.896 -2,-2l-0,-22.865c-0,-1.104 0.896,-2 2,-2l22.865,-0c1.104,-0 2,0.896 2,2Z"
   style="fill:#fff;"
   id="path346" />
        <path
   d="M1004.78,591.254l0,22.865c0,1.104 -0.896,2 -2,2l-22.866,0c-1.103,0 -2,-0.896 -2,-2l0,-22.865c0,-1.104 0.897,-2 2,-2l22.866,-0c1.104,-0 2,0.896 2,2Z"
   style="fill:#fff;"
   id="path347" />
        <path
   d="M1130.15,591.254l0,22.865c0,1.104 -0.896,2 -2,2l-22.865,0c-1.104,0 -2,-0.896 -2,-2l-0,-22.865c-0,-1.104 0.896,-2 2,-2l22.865,-0c1.104,-0 2,0.896 2,2Z"
   style="fill:#fff;"
   id="path348" />
        <path
   d="M1255.52,591.254l0,22.865c0,1.104 -0.896,2 -2,2l-22.865,0c-1.104,0 -2,-0.896 -2,-2l-0,-22.865c-0,-1.104 0.896,-2 2,-2l22.865,-0c1.104,-0 2,0.896 2,2Z"
   style="fill:#fff;"
   id="path349" />
        <path
   d="M1506.27,591.254l-0,22.865c-0,1.104 -0.897,2 -2,2l-22.866,0c-1.104,0 -2,-0.896 -2,-2l-0,-22.865c-0,-1.104 0.896,-2 2,-2l22.866,-0c1.103,-0 2,0.896 2,2Z"
   style="fill:#fff;"
   id="path350" />
        <path
   d="M377.91,622.597l0,22.866c0,1.104 -0.896,2 -2,2l-22.865,-0c-1.104,-0 -2,-0.896 -2,-2l-0,-22.866c-0,-1.104 0.896,-2 2,-2l22.865,0c1.104,0 2,0.896 2,2Z"
   style="fill:#fff;"
   id="path351" />
        <path
   d="M409.254,622.597l-0,22.866c-0,1.104 -0.896,2 -2,2l-22.866,-0c-1.104,-0 -2,-0.896 -2,-2l0,-22.866c0,-1.104 0.896,-2 2,-2l22.866,0c1.104,0 2,0.896 2,2Z"
   style="fill:#fff;"
   id="path352" />
        <path
   d="M440.597,622.597l0,22.866c0,1.104 -0.896,2 -2,2l-22.866,-0c-1.103,-0 -2,-0.896 -2,-2l0,-22.866c0,-1.104 0.897,-2 2,-2l22.866,0c1.104,0 2,0.896 2,2Z"
   style="fill:#fff;"
   id="path353" />
        <path
   d="M471.94,622.597l0,22.866c0,1.104 -0.896,2 -2,2l-22.865,-0c-1.104,-0 -2,-0.896 -2,-2l-0,-22.866c-0,-1.104 0.896,-2 2,-2l22.865,0c1.104,0 2,0.896 2,2Z"
   style="fill:#fff;"
   id="path354" />
        <path
   d="M503.284,622.597l-0,22.866c-0,1.104 -0.897,2 -2,2l-22.866,-0c-1.104,-0 -2,-0.896 -2,-2l-0,-22.866c-0,-1.104 0.896,-2 2,-2l22.866,0c1.103,0 2,0.896 2,2Z"
   style="fill:#fff;"
   id="path355" />
        <path
   d="M565.97,622.597l0,22.866c0,1.104 -0.896,2 -2,2l-22.866,-0c-1.103,-0 -2,-0.896 -2,-2l0,-22.866c0,-1.104 0.897,-2 2,-2l22.866,0c1.104,0 2,0.896 2,2Z"
   style="fill:#fff;"
   id="path356" />
        <path
   d="M597.313,622.597l0,22.866c0,1.104 -0.896,2 -2,2l-22.865,-0c-1.104,-0 -2,-0.896 -2,-2l-0,-22.866c-0,-1.104 0.896,-2 2,-2l22.865,0c1.104,0 2,0.896 2,2Z"
   style="fill:#fff;"
   id="path357" />
        <path
   d="M628.657,622.597l-0,22.866c-0,1.104 -0.896,2 -2,2l-22.866,-0c-1.104,-0 -2,-0.896 -2,-2l0,-22.866c0,-1.104 0.896,-2 2,-2l22.866,0c1.104,0 2,0.896 2,2Z"
   style="fill:#fff;"
   id="path358" />
        <path
   d="M660,622.597l0,22.866c0,1.104 -0.896,2 -2,2l-22.866,-0c-1.104,-0 -2,-0.896 -2,-2l0,-22.866c0,-1.104 0.896,-2 2,-2l22.866,0c1.104,0 2,0.896 2,2Z"
   style="fill:#fff;"
   id="path359" />
        <path
   d="M910.746,622.597l0,22.866c0,1.104 -0.896,2 -2,2l-22.865,-0c-1.104,-0 -2,-0.896 -2,-2l-0,-22.866c-0,-1.104 0.896,-2 2,-2l22.865,0c1.104,0 2,0.896 2,2Z"
   style="fill:#fff;"
   id="path360" />
        <path
   d="M1036.12,622.597l0,22.866c0,1.104 -0.896,2 -2,2l-22.865,-0c-1.104,-0 -2,-0.896 -2,-2l-0,-22.866c-0,-1.104 0.896,-2 2,-2l22.865,0c1.104,0 2,0.896 2,2Z"
   style="fill:#fff;"
   id="path361" />
        <path
   d="M1067.46,622.597l-0,22.866c-0,1.104 -0.896,2 -2,2l-22.866,-0c-1.104,-0 -2,-0.896 -2,-2l0,-22.866c0,-1.104 0.896,-2 2,-2l22.866,0c1.104,0 2,0.896 2,2Z"
   style="fill:#fff;"
   id="path362" />
        <path
   d="M1098.81,622.597l-0,22.866c-0,1.104 -0.896,2 -2,2l-22.866,-0c-1.104,-0 -2,-0.896 -2,-2l0,-22.866c0,-1.104 0.896,-2 2,-2l22.866,0c1.104,0 2,0.896 2,2Z"
   style="fill:#fff;"
   id="path363" />
        <path
   d="M1255.52,622.597l0,22.866c0,1.104 -0.896,2 -2,2l-22.865,-0c-1.104,-0 -2,-0.896 -2,-2l-0,-22.866c-0,-1.104 0.896,-2 2,-2l22.865,0c1.104,0 2,0.896 2,2Z"
   style="fill:#fff;"
   id="path364" />
        <path
   d="M1286.87,622.597l-0,22.866c-0,1.104 -0.896,2 -2,2l-22.866,-0c-1.104,-0 -2,-0.896 -2,-2l0,-22.866c0,-1.104 0.896,-2 2,-2l22.866,0c1.104,0 2,0.896 2,2Z"
   style="fill:#fff;"
   id="path365" />
        <path
   d="M1318.21,622.597l-0,22.866c-0,1.104 -0.896,2 -2,2l-22.866,-0c-1.104,-0 -2,-0.896 -2,-2l0,-22.866c0,-1.104 0.896,-2 2,-2l22.866,0c1.104,0 2,0.896 2,2Z"
   style="fill:#fff;"
   id="path366" />
        <path
   d="M1349.55,622.597l0,22.866c0,1.104 -0.896,2 -2,2l-22.865,-0c-1.104,-0 -2,-0.896 -2,-2l-0,-22.866c-0,-1.104 0.896,-2 2,-2l22.865,0c1.104,0 2,0.896 2,2Z"
   style="fill:#fff;"
   id="path367" />
        <path
   d="M1380.9,622.597l-0,22.866c-0,1.104 -0.897,2 -2,2l-22.866,-0c-1.104,-0 -2,-0.896 -2,-2l-0,-22.866c-0,-1.104 0.896,-2 2,-2l22.866,0c1.103,0 2,0.896 2,2Z"
   style="fill:#fff;"
   id="path368" />
        <path
   d="M1506.27,622.597l-0,22.866c-0,1.104 -0.897,2 -2,2l-22.866,-0c-1.104,-0 -2,-0.896 -2,-2l-0,-22.866c-0,-1.104 0.896,-2 2,-2l22.866,0c1.103,0 2,0.896 2,2Z"
   style="fill:#fff;"
   id="path369" />
    </g>
    <path
   d="M1611.49,402l-0,276c-0,6.623 -5.377,12 -12,12l-1278.99,-0c-6.623,-0 -12,-5.377 -12,-12l0,-276c0,-6.623 5.377,-12 12,-12l1278.99,-0c6.623,-0 12,5.377 12,12Zm-5,-0c-0,-3.863 -3.137,-7 -7,-7l-1278.99,-0c-3.863,-0 -7,3.137 -7,7l0,276c0,3.863 3.137,7 7,7l1278.99,-0c3.863,-0 7,-3.137 7,-7l-0,-276Z"
   style="fill:#222;"
   id="path370" />
</svg>
