<svg xmlns="http://www.w3.org/2000/svg" viewBox="0 0 1920 1080"><path d="M354.718 640.908q-9.634-.83-14.311-6.39-4.678-5.56-3.899-14.591.804-9.333 6.337-13.709 5.534-4.376 15.168-3.546l30.408 2.621 11.702-135.782 21.978 1.894-46.265 23.007q-7.288 3.618-13.232 2.196-5.642-1.397-9.494-5.975t-4.864-10.428q-.685-6.125 2.216-11.638 2.928-5.813 9.914-9.458l44.028-21.683q6.66-3.369 13.19-5.233 6.831-1.837 13.154-1.293 9.032.778 13.735 6.037 5.03 4.983 4.2 14.617l-13.596 157.76 27.397 2.362q9.333.804 14.036 6.062 4.704 5.259 3.899 14.591-.805 9.333-6.364 14.011-5.533 4.376-14.866 3.571zm242.964 8.083q-15.968 1.233-32.819-1.103-16.572-2.661-29.158-8.661-8.159-3.613-11.614-9.105-3.177-5.817-3.016-11.587.462-5.794 4.053-10.315 3.569-4.821 9.501-6.492 6.234-1.694 14.045 1.341 12.192 4.817 22.924 6.413t21.276.783q12.05-.931 19.954-4.571 7.878-3.943 11.631-10.294t3.056-15.39q-.977-12.654-10.203-18.307t-26.098-4.35l-17.776 1.372q-9.942.767-15.738-3.634-5.517-4.726-6.191-13.464-.699-9.04 4.052-14.255 5.028-5.54 14.97-6.308l13.257-1.023q10.243-.791 16.941-4.339 6.975-3.872 10.45-9.899 3.776-6.05 3.125-14.486-.931-12.052-9.855-17.727-8.624-5.7-24.29-4.49a76 76 0 0 0-18.796 3.875q-9.177 2.83-19.581 9.392-6.373 3.826-12.19 3.063-5.818-.764-10.06-4.679a21.96 21.96 0 0 1-5.565-9.27q-1.346-5.654.623-11.565 2.27-5.934 8.92-10.084 12.374-8.532 27.136-13.612 15.063-5.103 30.73-6.312 22.899-1.767 39.703 3.906 16.804 5.675 26.542 17.955 9.714 11.979 11.109 30.057.954 12.352-3.076 22.969-4.03 10.616-12.209 18.521-7.9 7.581-20.021 11.547l-.303-3.917q21.67 1.965 34.815 15.195t14.796 34.622q1.466 18.98-7.083 33.886-8.571 14.603-26.067 23.531-17.195 8.904-41.9 10.811m132.96-33.294q-12.088 0-19.34-7.252-6.951-7.252-6.951-18.736 0-11.18 6.951-18.131 7.252-7.252 19.34-7.252 12.087 0 18.735 7.252 6.95 6.951 6.95 18.131 0 11.484-6.95 18.736-6.648 7.252-18.735 7.252m0-100.023q-12.088 0-19.34-7.252-6.951-7.253-6.951-18.434 0-11.482 6.951-18.433 7.252-7.252 19.34-7.252 12.087 0 18.735 7.252 6.95 6.95 6.95 18.433 0 11.181-6.95 18.434-6.648 7.252-18.735 7.252m167.917 133.087q-10.879-.099-17.169-6.201-5.988-6.1-5.882-17.582l.158-17.223-67.687-.622q-11.18-.103-17.783-4.998-6.602-5.199-6.507-15.472.056-6.044 2.834-12.364t9.813-15.625l79.309-113.2q5.207-7.507 11.588-11.377 6.382-3.87 14.54-3.795 9.67.089 15.356 6.185 5.99 5.797 5.882 17.581l-1.076 117.243 11.18.103q9.972.092 15.064 4.973 5.096 4.58 5.012 13.645-.08 8.763-5.261 13.551-4.88 4.79-15.153 4.696l-11.181-.103-.158 17.224q-.105 11.483-6.204 17.471-5.797 5.99-16.675 5.89m-22.555-77.871.764-83.098 8.763.081-65.232 93.989.106-11.483zm193.226 77.092q-25.128 3.594-44.103-1.017t-30.474-16.703q-11.541-12.391-14.28-31.536-2.14-14.957 2.174-27.48 4.612-12.564 14.355-21.285 9.741-8.72 22.946-12.44l1.113 7.777q-19.446-1.491-33.123-13.882-13.421-12.732-16.289-32.775-2.568-17.948 4.566-32.095 7.433-14.19 23.201-23.467 16.067-9.319 38.801-12.572 23.034-3.294 40.77 1.189t28.85 16.02 13.681 29.484q1.926 13.462-1.875 25.3-3.503 11.796-12.048 20.345-8.245 8.505-20.211 12.354l-1.027-7.179q21.069.039 36.028 12.856 15.26 12.775 18.426 34.911 2.74 19.145-4.864 34.275-7.648 14.83-24.568 24.578-16.922 9.747-42.049 13.342m-5.093-35.598q18.546-2.654 27.092-11.202t6.534-22.608-12.568-19.571q-10.6-5.81-29.146-3.156-18.548 2.654-27.092 11.202-8.589 8.25-6.577 22.309 2.011 14.06 12.611 19.87t29.146 3.156m-13.181-92.135q10.17-1.455 16.879-5.773 7.008-4.36 9.699-11.155 2.99-6.839 1.834-14.915-1.797-12.564-11.499-18.503-9.404-5.98-24.659-3.798-15.256 2.183-22.605 10.56t-5.552 20.942q1.798 12.564 11.244 18.844 9.402 5.98 24.659 3.798m139.004 95.448q-12.087 0-19.34-7.252-6.95-7.252-6.95-18.736 0-11.18 6.95-18.131 7.253-7.252 19.34-7.252t18.735 7.252q6.951 6.951 6.951 18.131 0 11.484-6.951 18.736-6.648 7.252-18.735 7.252m0-100.023q-12.087 0-19.34-7.252-6.95-7.253-6.95-18.434 0-11.482 6.95-18.433 7.253-7.252 19.34-7.252t18.735 7.252q6.951 6.95 6.951 18.433 0 11.181-6.951 18.434-6.648 7.252-18.735 7.252m97.57 134.537q-11.128 1.096-17.044-3.485-5.644-4.91-6.651-15.135-.651-6.615 2.095-12.655 2.745-6.04 7.868-12.617l50.678-65.108q11.299-14.775 15.677-25.834 4.678-11.088 3.642-21.613-1.302-13.233-10.704-19.291-9.1-6.089-25.34-4.491-8.721.858-17.778 4.482-8.786 3.294-18.147 9.984-6.26 4.26-12.064 3.92-5.532-.67-9.826-4.195-4.323-3.826-6.089-9.421-1.764-5.595.079-11.546 1.844-5.95 8.075-10.511 12.434-9.422 27.687-14.87 15.224-5.75 30.561-7.259 23.758-2.337 40.707 3.282 16.92 5.32 26.673 18.023 9.752 12.705 11.675 32.252a79.7 79.7 0 0 1-1.483 25.045q-2.726 12.414-9.933 25.573-6.936 12.828-19.108 27.993l-47.36 58.709-1.184-12.029 81.498-8.019q9.624-.947 14.909 3.391 5.586 4.309 6.503 13.631.918 9.323-3.692 14.939-4.338 5.285-13.961 6.232zm177.29-5.941q-8.721-.86-13.748-5.303-4.998-4.744-5.248-11.449-.25-6.706 5.063-14.38l102.809-152.616-1.424 14.435-90.819-8.959q-9.924-.979-14.562-6.294-4.608-5.618-3.688-14.94t6.506-13.629q5.617-4.608 15.541-3.63l114.576 11.302q9.623.95 15.134 6.655 5.81 5.736 4.891 15.058-.8 8.12-3.8 13.897-2.698 5.806-6.989 12.367l-96.295 145.06q-4.981 7.404-11.652 10.39-6.671 2.985-16.295 2.036"/></svg>