<svg xmlns="http://www.w3.org/2000/svg" xml:space="preserve" style="fill-rule:evenodd;clip-rule:evenodd;stroke-linecap:round;stroke-linejoin:round;stroke-miterlimit:1.5" viewBox="0 0 1920 1080"><path d="M0 0h1920v1080H0z" style="fill:none"/><path d="m963.694 527.751-7.388 22.715-266.094-86.552L697.6 441.2z" style="fill:#111"/><path d="m971.612 552.794-21.055-28.839L1090.753 421.6l21.055 28.839zM948.8 242.4h22.4v86.4h-22.4zm308.8 308.8h-86.4v-22.4h86.4zm-308.8 200h22.4v86.4h-22.4zM662.4 528.8h86.4v22.4h-86.4zm456.1-240.929-34.253 59.329-19.399-11.2 34.254-59.329zm104.83 113.028-59.329 34.254-11.2-19.399 59.329-34.253z" style="fill:#111"/><path d="M948.8 751.2h22.4v86.4h-22.4zM662.4 528.8h86.4v22.4h-86.4zm549.73 169.699-59.329-34.253 11.2-19.399 59.329 34.254zm-113.03 104.83L1064.846 744l19.399-11.2 34.253 59.329zM855.153 744l-34.254 59.329-19.398-11.2 34.253-59.329zM767.2 664.246l-59.329 34.253-11.2-19.398L756 644.847zM756 435.153l-59.329-34.254 11.2-19.398 59.329 34.253zm79.754-87.953-34.253-59.329 19.398-11.2L855.153 336zm161.719-102.501-2.676 25.46-12.73-1.338 2.676-25.46zM1255.3 577.473l-25.46-2.676 1.338-12.73 25.46 2.676zM922.527 835.301l2.676-25.46 12.73 1.338-2.676 25.46zM664.699 502.527l25.46 2.676-1.338 12.73-25.46-2.676zm363.431-252.293-5.323 25.04-12.52-2.661 5.322-25.04zm221.64 357.901-25.04-5.323 2.661-12.52 25.04 5.322zM891.865 829.766l5.323-25.04 12.52 2.661-5.322 25.04zM670.234 471.865l25.04 5.323-2.661 12.52-25.04-5.322zm387.816-212.922-7.911 24.347-12.173-3.955 7.911-24.347zm183.01 379.107-24.347-7.911 3.955-12.173 24.347 7.911zM861.95 821.057l7.911-24.347 12.173 3.955-7.911 24.347zM678.943 441.95l24.347 7.911-3.955 12.173-24.347-7.911zm407.947-171.218-10.413 23.387-11.693-5.206 10.412-23.387zm142.38 396.16-23.387-10.413 5.206-11.693 23.387 10.412zM833.108 809.268l10.413-23.387 11.693 5.206-10.412 23.387zm-142.376-396.16 23.387 10.413-5.206 11.693-23.387-10.412zm449.368-110.11-15.048 20.711-10.355-7.523 15.047-20.711zm56.9 417.105-20.711-15.048 7.523-10.355 20.711 15.047zm-417.103 56.899 15.048-20.711 10.355 7.523-15.047 20.711zm-56.899-417.105 20.711 15.048-7.523 10.355-20.711-15.047zm440.892-36.774-17.129 19.024-9.513-8.565 17.13-19.024zm12.99 420.766-19.024-17.129 8.565-9.513 19.024 17.13zm-420.769 12.988 17.129-19.024 9.513 8.565-17.13 19.024zm-12.988-420.766 19.024 17.129-8.565 9.513-19.024-17.13zm442.317 9.512-19.024 17.13-8.565-9.513 19.024-17.129zm-31.06 419.819-17.13-19.024 9.513-8.565 17.129 19.024zm-419.822-31.065 19.024-17.13 8.565 9.513-19.024 17.129zm31.065-419.819 17.13 19.024-9.513 8.565-17.129-19.024zm438.907 55.695-20.711 15.047-7.523-10.355 20.711-15.048zm-74.78 414.272-15.047-20.711 10.355-7.523 15.048 20.711zm-414.275-74.778 20.711-15.047 7.523 10.355-20.711 15.048zm74.778-414.272 15.047 20.711-10.355 7.523-15.048-20.711zm444.217 129.327-23.387 10.412-5.206-11.693 23.387-10.413zM1075.2 814.474l-10.412-23.387 11.693-5.206 10.413 23.387zM685.526 655.198l23.387-10.412 5.206 11.693-23.387 10.413zm159.276-389.672 10.412 23.387-11.693 5.206-10.413-23.387zm400.208 188.597-24.347 7.911-3.955-12.173 24.347-7.911zm-199.13 370.889-7.911-24.347 12.173-3.955 7.911 24.347zM674.988 625.877l24.347-7.911 3.955 12.173-24.347 7.911zm199.135-370.889 7.911 24.347-12.173 3.955-7.911-24.347zm378.307 229.398-25.04 5.322-2.661-12.52 25.04-5.323zm-236.82 348.041-5.322-25.04 12.52-2.661 5.323 25.04zM667.573 595.614l25.04-5.322 2.661 12.52-25.04 5.323zm236.813-348.041 5.322 25.04-12.52 2.661-5.323-25.04zm352.254 267.684-25.46 2.676-1.338-12.73 25.46-2.676zM984.743 836.639l-2.676-25.46 12.73-1.338 2.676 25.46zM663.361 564.743l25.46-2.676 1.338 12.73-25.46 2.676zm271.896-321.382 2.676 25.46-12.73 1.338-2.676-25.46z" style="fill:#111"/><circle cx="960" cy="540" r="320" style="fill:none;stroke:#777;stroke-width:5px"/><path d="m981.715 700.713-27.621-157.339 12.608-2.213 27.621 157.338zM1005.18 834.4l-15.568-88.68 12.608-2.213 15.568 88.68z" style="fill:#f44"/><path d="M997.234 752.098c-16.391 2.877-32.034-8.094-34.912-24.484-2.877-16.391 8.094-32.035 24.485-34.912s32.034 8.094 34.912 24.484c2.877 16.391-8.094 32.035-24.485 34.912m-2.085-11.879c9.834-1.727 16.417-11.113 14.69-20.947-1.726-9.835-11.112-16.417-20.947-14.691s-16.417 11.113-14.69 20.947c1.726 9.835 11.112 16.417 20.947 14.691" style="fill:#f44"/><circle cx="960" cy="540" r="32" style="fill:#111"/></svg>