<?xml version="1.0" encoding="UTF-8" standalone="no"?>
<!DOCTYPE svg PUBLIC "-//W3C//DTD SVG 1.1//EN" "http://www.w3.org/Graphics/SVG/1.1/DTD/svg11.dtd">
<svg width="100%" height="100%" viewBox="0 0 253 62" version="1.1" xmlns="http://www.w3.org/2000/svg" xmlns:xlink="http://www.w3.org/1999/xlink" xml:space="preserve" xmlns:serif="http://www.serif.com/" style="fill-rule:evenodd;clip-rule:evenodd;stroke-linejoin:round;stroke-miterlimit:2;">
    <g>
        <path d="M20.71,61.301c12.702,0 19.789,-4.786 19.789,-13.806c0,-19.145 -31.663,-8.837 -31.663,-20.894c0,-4.326 4.234,-6.996 11.138,-6.996c7.271,0 11.781,3.222 12.149,8.468l7.824,0c-0.92,-9.572 -8.192,-15.371 -19.513,-15.371c-12.15,0 -19.422,5.431 -19.422,14.451c0,17.949 31.664,8.928 31.664,20.158c-0,4.602 -4.142,6.995 -11.69,6.995c-7.732,-0 -12.426,-3.037 -13.162,-8.744l-7.824,-0c0.92,10.217 8.192,15.739 20.71,15.739Z" style="fill:#fff;fill-rule:nonzero;"/>
        <path d="M64.615,59.829l9.757,-0l-0,-6.996l-9.665,0c-4.97,0 -7.732,-2.669 -7.732,-8.284l0,-23.747l16.936,-0l0,-6.995l-16.936,-0l0,-13.807l-7.916,0l0,44.181c0,10.585 4.971,15.648 15.556,15.648Z" style="fill:#fff;fill-rule:nonzero;"/>
        <path d="M118.369,13.807l-0,7.087c-3.314,-5.431 -8.837,-8.192 -16.108,-8.192c-13.715,0 -23.011,9.757 -23.011,24.116c-0,14.358 9.296,24.115 23.011,24.115c7.271,0 12.794,-2.761 16.108,-8.192l-0,7.088l7.915,-0l0,-46.022l-7.915,-0Zm-15.464,40.131c-9.388,-0 -15.739,-6.904 -15.739,-17.12c-0,-10.217 6.351,-17.121 15.739,-17.121c9.389,0 15.74,6.904 15.74,17.121c-0,10.216 -6.351,17.12 -15.74,17.12Z" style="fill:#fff;fill-rule:nonzero;"/>
        <path d="M136.961,59.829l7.824,-0l0,-22.919c0,-10.401 4.602,-16.2 13.439,-16.2l4.878,-0l-0,-6.903l-4.878,-0c-5.615,-0 -10.401,2.393 -13.439,6.719l0,-6.719l-7.824,-0l0,46.022Z" style="fill:#fff;fill-rule:nonzero;"/>
        <path d="M187.402,59.829l9.756,-0l0,-6.996l-9.664,0c-4.971,0 -7.732,-2.669 -7.732,-8.284l-0,-23.747l16.936,-0l0,-6.995l-16.936,-0l-0,-13.807l-7.916,0l0,44.181c0,10.585 4.971,15.648 15.556,15.648Z" style="fill:#fff;fill-rule:nonzero;"/>
    </g>
    <g>
        <path d="M206.057,59.829l0,-31.955l31.955,0l-0,31.955l-31.955,-0Zm24.932,-24.932l-17.909,0l0,17.909l17.909,-0l-0,-17.909Z" style="fill:#f57;"/>
        <path d="M245.035,20.852l-24.932,-0l0,-7.023l31.954,-0l0,31.954l-7.022,-0l-0,-24.931Z" style="fill:#d8465b;"/>
    </g>
</svg>
